<svg width="112" height="20" viewBox="0 0 112 20" fill="none" xmlns="http://www.w3.org/2000/svg">
<path d="M0.599077 19V1.54545H12.1559V4.58807H4.28942V8.74716H11.3889V11.7898H4.28942V19H0.599077ZM14.57 19V5.90909H18.2006V19H14.57ZM16.3938 4.22159C15.854 4.22159 15.391 4.04261 15.0046 3.68466C14.6239 3.32102 14.4336 2.88636 14.4336 2.38068C14.4336 1.88068 14.6239 1.4517 15.0046 1.09375C15.391 0.730113 15.854 0.548295 16.3938 0.548295C16.9336 0.548295 17.3938 0.730113 17.7745 1.09375C18.1609 1.4517 18.354 1.88068 18.354 2.38068C18.354 2.88636 18.1609 3.32102 17.7745 3.68466C17.3938 4.04261 16.9336 4.22159 16.3938 4.22159ZM24.7397 11.4318V19H21.109V5.90909H24.5692V8.21875H24.7227C25.0124 7.45739 25.4982 6.85511 26.18 6.41193C26.8619 5.96307 27.6886 5.73864 28.6602 5.73864C29.5692 5.73864 30.3619 5.9375 31.038 6.33523C31.7141 6.73295 32.2397 7.30114 32.6147 8.03977C32.9897 8.77273 33.1772 9.64773 33.1772 10.6648V19H29.5465V11.3125C29.5522 10.5114 29.3477 9.88636 28.9329 9.4375C28.5181 8.98295 27.9471 8.75568 27.2198 8.75568C26.7312 8.75568 26.2994 8.8608 25.9244 9.07102C25.555 9.28125 25.2653 9.58807 25.055 9.99148C24.8505 10.3892 24.7454 10.8693 24.7397 11.4318ZM40.8626 19.2131C39.8683 19.2131 38.9677 18.9574 38.1609 18.446C37.3597 17.929 36.7234 17.1705 36.2518 16.1705C35.7859 15.1648 35.5529 13.9318 35.5529 12.4716C35.5529 10.9716 35.7944 9.72443 36.2773 8.73011C36.7603 7.73011 37.4023 6.98295 38.2035 6.48864C39.0103 5.98864 39.8938 5.73864 40.854 5.73864C41.587 5.73864 42.1978 5.86364 42.6864 6.11364C43.1808 6.35795 43.5785 6.66477 43.8796 7.03409C44.1864 7.39773 44.4194 7.75568 44.5785 8.10795H44.6893V1.54545H48.3114V19H44.7319V16.9034H44.5785C44.408 17.267 44.1665 17.6278 43.854 17.9858C43.5472 18.3381 43.1467 18.6307 42.6523 18.8636C42.1637 19.0966 41.5671 19.2131 40.8626 19.2131ZM42.0131 16.3239C42.5984 16.3239 43.0927 16.1648 43.4961 15.8466C43.9052 15.5227 44.2177 15.071 44.4336 14.4915C44.6552 13.9119 44.766 13.233 44.766 12.4545C44.766 11.6761 44.658 11 44.4421 10.4261C44.2262 9.85227 43.9137 9.40909 43.5046 9.09659C43.0955 8.78409 42.5984 8.62784 42.0131 8.62784C41.4165 8.62784 40.9137 8.78977 40.5046 9.11364C40.0955 9.4375 39.7859 9.88636 39.5756 10.4602C39.3654 11.0341 39.2603 11.6989 39.2603 12.4545C39.2603 13.2159 39.3654 13.8892 39.5756 14.4744C39.7915 15.054 40.1012 15.5085 40.5046 15.8381C40.9137 16.1619 41.4165 16.3239 42.0131 16.3239ZM58.2596 5.90909V8.63636H50.3761V5.90909H58.2596ZM52.1658 2.77273H55.7965V14.9773C55.7965 15.3125 55.8477 15.5739 55.9499 15.7614C56.0522 15.9432 56.1942 16.071 56.3761 16.1449C56.5636 16.2187 56.7795 16.2557 57.0238 16.2557C57.1942 16.2557 57.3647 16.2415 57.5352 16.2131C57.7056 16.179 57.8363 16.1534 57.9272 16.1364L58.4982 18.8381C58.3164 18.8949 58.0607 18.9602 57.7312 19.0341C57.4016 19.1136 57.0011 19.1619 56.5295 19.179C55.6545 19.2131 54.8874 19.0966 54.2283 18.8295C53.5749 18.5625 53.0664 18.1477 52.7028 17.5852C52.3391 17.0227 52.1602 16.3125 52.1658 15.4545V2.77273ZM60.6246 19V5.90909H64.1445V8.19318H64.2809C64.5195 7.38068 64.9201 6.76705 65.4826 6.35227C66.0451 5.93182 66.6928 5.72159 67.4258 5.72159C67.6076 5.72159 67.8036 5.73295 68.0138 5.75568C68.2241 5.77841 68.4087 5.80966 68.5678 5.84943V9.07102C68.3974 9.01989 68.1616 8.97443 67.8604 8.93466C67.5593 8.89489 67.2837 8.875 67.0337 8.875C66.4996 8.875 66.0224 8.99148 65.6019 9.22443C65.1871 9.4517 64.8576 9.76989 64.6133 10.179C64.3746 10.5881 64.2553 11.0597 64.2553 11.5938V19H60.6246ZM75.8015 19.2557C74.4549 19.2557 73.2958 18.983 72.3242 18.4375C71.3583 17.8864 70.614 17.108 70.0913 16.1023C69.5685 15.0909 69.3072 13.8949 69.3072 12.5142C69.3072 11.1676 69.5685 9.9858 70.0913 8.96875C70.614 7.9517 71.3498 7.15909 72.2987 6.59091C73.2532 6.02273 74.3725 5.73864 75.6566 5.73864C76.5202 5.73864 77.3242 5.87784 78.0685 6.15625C78.8185 6.42898 79.4719 6.84091 80.0288 7.39205C80.5913 7.94318 81.0288 8.63636 81.3413 9.47159C81.6538 10.3011 81.81 11.2727 81.81 12.3864V13.3835H70.756V11.1335H78.3924C78.3924 10.6108 78.2788 10.1477 78.0515 9.74432C77.8242 9.34091 77.5089 9.02557 77.1055 8.7983C76.7077 8.56534 76.2447 8.44886 75.7163 8.44886C75.1651 8.44886 74.6765 8.5767 74.2504 8.83239C73.8299 9.08239 73.5004 9.42045 73.2617 9.84659C73.0231 10.267 72.9009 10.7358 72.8952 11.2528V13.392C72.8952 14.0398 73.0146 14.5994 73.2532 15.071C73.4975 15.5426 73.8413 15.9062 74.2844 16.1619C74.7276 16.4176 75.2532 16.5455 75.8612 16.5455C76.2646 16.5455 76.6339 16.4886 76.9691 16.375C77.3043 16.2614 77.5913 16.0909 77.8299 15.8636C78.0685 15.6364 78.2504 15.358 78.3754 15.0284L81.7333 15.25C81.5629 16.0568 81.2134 16.7614 80.685 17.3636C80.1623 17.9602 79.4862 18.4261 78.6566 18.7614C77.8327 19.0909 76.881 19.2557 75.8015 19.2557ZM87.81 11.4318V19H84.1793V5.90909H87.6396V8.21875H87.793C88.0827 7.45739 88.5685 6.85511 89.2504 6.41193C89.9322 5.96307 90.7589 5.73864 91.7305 5.73864C92.6396 5.73864 93.4322 5.9375 94.1083 6.33523C94.7844 6.73295 95.31 7.30114 95.685 8.03977C96.06 8.77273 96.2475 9.64773 96.2475 10.6648V19H92.6168V11.3125C92.6225 10.5114 92.418 9.88636 92.0032 9.4375C91.5884 8.98295 91.0174 8.75568 90.2901 8.75568C89.8015 8.75568 89.3697 8.8608 88.9947 9.07102C88.6254 9.28125 88.3356 9.58807 88.1254 9.99148C87.9208 10.3892 87.8157 10.8693 87.81 11.4318ZM103.933 19.2131C102.939 19.2131 102.038 18.9574 101.231 18.446C100.43 17.929 99.7937 17.1705 99.3221 16.1705C98.8562 15.1648 98.6232 13.9318 98.6232 12.4716C98.6232 10.9716 98.8647 9.72443 99.3477 8.73011C99.8306 7.73011 100.473 6.98295 101.274 6.48864C102.081 5.98864 102.964 5.73864 103.924 5.73864C104.657 5.73864 105.268 5.86364 105.757 6.11364C106.251 6.35795 106.649 6.66477 106.95 7.03409C107.257 7.39773 107.49 7.75568 107.649 8.10795H107.76V1.54545H111.382V19H107.802V16.9034H107.649C107.478 17.267 107.237 17.6278 106.924 17.9858C106.618 18.3381 106.217 18.6307 105.723 18.8636C105.234 19.0966 104.637 19.2131 103.933 19.2131ZM105.083 16.3239C105.669 16.3239 106.163 16.1648 106.566 15.8466C106.975 15.5227 107.288 15.071 107.504 14.4915C107.725 13.9119 107.836 13.233 107.836 12.4545C107.836 11.6761 107.728 11 107.512 10.4261C107.297 9.85227 106.984 9.40909 106.575 9.09659C106.166 8.78409 105.669 8.62784 105.083 8.62784C104.487 8.62784 103.984 8.78977 103.575 9.11364C103.166 9.4375 102.856 9.88636 102.646 10.4602C102.436 11.0341 102.331 11.6989 102.331 12.4545C102.331 13.2159 102.436 13.8892 102.646 14.4744C102.862 15.054 103.172 15.5085 103.575 15.8381C103.984 16.1619 104.487 16.3239 105.083 16.3239Z" fill="white"/>
</svg>
