<svg width="229" height="24" viewBox="0 0 229 24" fill="none" xmlns="http://www.w3.org/2000/svg">
<path d="M33.278 13.428V5.994H35.006V13.014C35.006 13.734 35.096 14.37 35.276 14.922C35.456 15.474 35.768 15.906 36.212 16.218C36.656 16.518 37.274 16.668 38.066 16.668C38.858 16.668 39.47 16.518 39.902 16.218C40.346 15.906 40.658 15.474 40.838 14.922C41.018 14.37 41.108 13.734 41.108 13.014V5.994H42.836V13.428C42.836 14.34 42.662 15.168 42.314 15.912C41.978 16.644 41.456 17.226 40.748 17.658C40.052 18.09 39.158 18.306 38.066 18.306C36.974 18.306 36.074 18.09 35.366 17.658C34.658 17.226 34.13 16.644 33.782 15.912C33.446 15.168 33.278 14.34 33.278 13.428ZM46.8293 21.6H45.2273V10.494C45.2273 10.386 45.2273 10.278 45.2273 10.17C45.2273 10.05 45.2213 9.87 45.2093 9.63H46.7573L46.8113 10.818C46.9313 10.662 47.1053 10.482 47.3333 10.278C47.5733 10.062 47.8853 9.87 48.2693 9.702C48.6533 9.534 49.1153 9.45 49.6553 9.45C50.5193 9.45 51.2273 9.654 51.7793 10.062C52.3433 10.47 52.7573 11.01 53.0213 11.682C53.2973 12.354 53.4353 13.08 53.4353 13.86C53.4353 14.616 53.3033 15.276 53.0393 15.84C52.7873 16.392 52.4513 16.848 52.0313 17.208C51.6113 17.556 51.1493 17.82 50.6453 18C50.1413 18.168 49.6433 18.252 49.1513 18.252C48.5873 18.252 48.1373 18.192 47.8013 18.072C47.4653 17.964 47.1413 17.844 46.8293 17.712V21.6ZM46.8293 14.04V16.182C47.0213 16.338 47.2973 16.488 47.6573 16.632C48.0173 16.776 48.4673 16.848 49.0073 16.848C49.5593 16.848 50.0393 16.722 50.4473 16.47C50.8673 16.206 51.1913 15.846 51.4193 15.39C51.6593 14.934 51.7793 14.424 51.7793 13.86C51.7793 13.32 51.6953 12.822 51.5273 12.366C51.3713 11.91 51.1133 11.544 50.7533 11.268C50.3933 10.992 49.9073 10.854 49.2953 10.854C48.7313 10.854 48.2393 11.016 47.8193 11.34C47.4113 11.664 47.1233 12.126 46.9553 12.726C46.9073 12.918 46.8713 13.128 46.8473 13.356C46.8353 13.572 46.8293 13.8 46.8293 14.04ZM59.2364 15.264V10.98H57.7244V9.63H59.2364V6.894H60.8564V9.63H63.3044V10.98H60.8564V15.102C60.8564 15.774 60.9584 16.236 61.1624 16.488C61.3784 16.74 61.6784 16.866 62.0624 16.866C62.3744 16.866 62.6324 16.818 62.8364 16.722C63.0524 16.626 63.2564 16.482 63.4484 16.29L64.1864 17.28C63.8384 17.616 63.4784 17.856 63.1064 18C62.7464 18.156 62.3144 18.234 61.8104 18.234C60.9344 18.234 60.2864 17.994 59.8664 17.514C59.4464 17.022 59.2364 16.272 59.2364 15.264ZM68.9117 18.252C68.0597 18.252 67.2977 18.054 66.6257 17.658C65.9537 17.25 65.4257 16.71 65.0417 16.038C64.6697 15.354 64.4837 14.61 64.4837 13.806C64.4837 12.99 64.6697 12.246 65.0417 11.574C65.4257 10.902 65.9537 10.368 66.6257 9.972C67.2977 9.564 68.0597 9.36 68.9117 9.36C69.7637 9.36 70.5197 9.564 71.1797 9.972C71.8517 10.368 72.3797 10.902 72.7637 11.574C73.1477 12.246 73.3397 12.99 73.3397 13.806C73.3397 14.61 73.1477 15.354 72.7637 16.038C72.3797 16.71 71.8517 17.25 71.1797 17.658C70.5197 18.054 69.7637 18.252 68.9117 18.252ZM68.9117 16.848C69.4997 16.848 69.9977 16.704 70.4057 16.416C70.8257 16.116 71.1437 15.732 71.3597 15.264C71.5877 14.796 71.7017 14.31 71.7017 13.806C71.7017 13.302 71.5877 12.816 71.3597 12.348C71.1437 11.88 70.8257 11.502 70.4057 11.214C69.9857 10.914 69.4877 10.764 68.9117 10.764C68.3357 10.764 67.8377 10.914 67.4177 11.214C66.9977 11.502 66.6737 11.88 66.4457 12.348C66.2297 12.804 66.1217 13.29 66.1217 13.806C66.1217 14.31 66.2357 14.796 66.4637 15.264C66.6917 15.72 67.0097 16.098 67.4177 16.398C67.8377 16.698 68.3357 16.848 68.9117 16.848ZM79.8544 18V16.56H81.8704V8.406L79.5304 9.666L78.8644 8.388L82.0504 6.642H83.5084V16.56H85.4884V18H79.8544ZM87.809 17.064L88.727 15.876C89.063 16.14 89.435 16.368 89.843 16.56C90.251 16.752 90.749 16.848 91.337 16.848C92.177 16.848 92.801 16.614 93.209 16.146C93.629 15.678 93.839 15.114 93.839 14.454C93.839 14.142 93.773 13.818 93.641 13.482C93.509 13.134 93.269 12.84 92.921 12.6C92.573 12.348 92.075 12.222 91.427 12.222C90.947 12.222 90.557 12.27 90.257 12.366C89.969 12.462 89.705 12.57 89.465 12.69L88.637 12.06L89.717 6.66H95.279V8.172H90.851L90.329 11.142C90.449 11.07 90.641 11.004 90.905 10.944C91.169 10.872 91.487 10.836 91.859 10.836C92.927 10.836 93.803 11.148 94.487 11.772C95.183 12.384 95.531 13.26 95.531 14.4C95.531 15.096 95.381 15.744 95.081 16.344C94.781 16.932 94.313 17.406 93.677 17.766C93.053 18.126 92.243 18.306 91.247 18.306C90.455 18.306 89.777 18.186 89.213 17.946C88.661 17.694 88.193 17.4 87.809 17.064ZM102.904 21.6H101.302V10.494C101.302 10.386 101.302 10.278 101.302 10.17C101.302 10.05 101.296 9.87 101.284 9.63H102.832L102.886 10.818C103.006 10.662 103.18 10.482 103.408 10.278C103.648 10.062 103.96 9.87 104.344 9.702C104.728 9.534 105.19 9.45 105.73 9.45C106.594 9.45 107.302 9.654 107.854 10.062C108.418 10.47 108.832 11.01 109.096 11.682C109.372 12.354 109.51 13.08 109.51 13.86C109.51 14.616 109.378 15.276 109.114 15.84C108.862 16.392 108.526 16.848 108.106 17.208C107.686 17.556 107.224 17.82 106.72 18C106.216 18.168 105.718 18.252 105.226 18.252C104.662 18.252 104.212 18.192 103.876 18.072C103.54 17.964 103.216 17.844 102.904 17.712V21.6ZM102.904 14.04V16.182C103.096 16.338 103.372 16.488 103.732 16.632C104.092 16.776 104.542 16.848 105.082 16.848C105.634 16.848 106.114 16.722 106.522 16.47C106.942 16.206 107.266 15.846 107.494 15.39C107.734 14.934 107.854 14.424 107.854 13.86C107.854 13.32 107.77 12.822 107.602 12.366C107.446 11.91 107.188 11.544 106.828 11.268C106.468 10.992 105.982 10.854 105.37 10.854C104.806 10.854 104.314 11.016 103.894 11.34C103.486 11.664 103.198 12.126 103.03 12.726C102.982 12.918 102.946 13.128 102.922 13.356C102.91 13.572 102.904 13.8 102.904 14.04ZM116.613 18L116.577 16.992C116.277 17.4 115.863 17.712 115.335 17.928C114.819 18.132 114.297 18.234 113.769 18.234C113.313 18.234 112.857 18.15 112.401 17.982C111.957 17.814 111.585 17.538 111.285 17.154C110.997 16.77 110.853 16.26 110.853 15.624C110.853 14.724 111.171 14.004 111.807 13.464C112.443 12.924 113.349 12.654 114.525 12.654C114.789 12.654 115.059 12.666 115.335 12.69C115.623 12.702 115.881 12.72 116.109 12.744C116.337 12.756 116.487 12.768 116.559 12.78V12.474C116.559 11.85 116.367 11.406 115.983 11.142C115.611 10.866 115.101 10.728 114.453 10.728C113.829 10.728 113.325 10.818 112.941 10.998C112.569 11.166 112.257 11.34 112.005 11.52L111.249 10.422C111.549 10.182 111.963 9.948 112.491 9.72C113.019 9.492 113.733 9.378 114.633 9.378C115.701 9.378 116.547 9.642 117.171 10.17C117.795 10.686 118.107 11.424 118.107 12.384V17.262C118.107 17.346 118.107 17.448 118.107 17.568C118.107 17.688 118.113 17.832 118.125 18H116.613ZM116.559 14.994V14.04C116.499 14.016 116.361 13.998 116.145 13.986C115.929 13.962 115.683 13.944 115.407 13.932C115.143 13.908 114.885 13.896 114.633 13.896C114.033 13.896 113.571 13.986 113.247 14.166C112.935 14.334 112.719 14.55 112.599 14.814C112.491 15.066 112.437 15.318 112.437 15.57C112.437 16.014 112.593 16.356 112.905 16.596C113.217 16.836 113.649 16.956 114.201 16.956C114.621 16.956 115.005 16.866 115.353 16.686C115.713 16.494 116.001 16.248 116.217 15.948C116.445 15.648 116.559 15.33 116.559 14.994ZM120.681 20.898L121.437 19.71C121.713 19.902 122.049 20.064 122.445 20.196C122.853 20.34 123.345 20.412 123.921 20.412C124.725 20.412 125.325 20.19 125.721 19.746C126.117 19.302 126.315 18.72 126.315 18V16.974C126.207 17.07 126.045 17.208 125.829 17.388C125.613 17.556 125.331 17.712 124.983 17.856C124.647 18 124.227 18.072 123.723 18.072C122.907 18.072 122.211 17.892 121.635 17.532C121.071 17.172 120.639 16.68 120.339 16.056C120.051 15.42 119.907 14.706 119.907 13.914C119.907 13.05 120.105 12.282 120.501 11.61C120.897 10.926 121.449 10.392 122.157 10.008C122.865 9.624 123.687 9.432 124.623 9.432C125.295 9.432 125.925 9.492 126.513 9.612C127.113 9.732 127.593 9.864 127.953 10.008V18C127.953 19.2 127.599 20.136 126.891 20.808C126.183 21.48 125.199 21.816 123.939 21.816C123.087 21.816 122.409 21.72 121.905 21.528C121.401 21.336 120.993 21.126 120.681 20.898ZM126.333 14.58V11.106C126.225 11.07 126.039 11.022 125.775 10.962C125.523 10.89 125.139 10.854 124.623 10.854C124.011 10.854 123.477 10.986 123.021 11.25C122.565 11.502 122.205 11.856 121.941 12.312C121.689 12.768 121.563 13.296 121.563 13.896C121.563 14.4 121.641 14.862 121.797 15.282C121.965 15.702 122.229 16.038 122.589 16.29C122.949 16.542 123.411 16.668 123.975 16.668C124.515 16.668 124.959 16.566 125.307 16.362C125.655 16.158 125.913 15.9 126.081 15.588C126.249 15.264 126.333 14.928 126.333 14.58ZM136.879 15.804L137.797 16.776C137.677 16.92 137.461 17.112 137.149 17.352C136.837 17.58 136.429 17.79 135.925 17.982C135.433 18.162 134.833 18.252 134.125 18.252C133.261 18.252 132.499 18.066 131.839 17.694C131.179 17.31 130.663 16.782 130.291 16.11C129.931 15.426 129.751 14.64 129.751 13.752C129.751 12.936 129.925 12.198 130.273 11.538C130.633 10.878 131.125 10.356 131.749 9.972C132.385 9.576 133.111 9.378 133.927 9.378C134.899 9.378 135.685 9.612 136.285 10.08C136.885 10.548 137.323 11.154 137.599 11.898C137.875 12.642 138.013 13.44 138.013 14.292H131.407C131.419 14.784 131.551 15.228 131.803 15.624C132.055 16.008 132.385 16.314 132.793 16.542C133.213 16.758 133.663 16.866 134.143 16.866C134.851 16.866 135.433 16.746 135.889 16.506C136.357 16.266 136.687 16.032 136.879 15.804ZM131.407 13.086H136.339C136.291 12.438 136.063 11.886 135.655 11.43C135.247 10.974 134.671 10.746 133.927 10.746C133.411 10.746 132.967 10.86 132.595 11.088C132.223 11.316 131.935 11.61 131.731 11.97C131.539 12.318 131.431 12.69 131.407 13.086ZM149.781 15.804L150.699 16.776C150.579 16.92 150.363 17.112 150.051 17.352C149.739 17.58 149.331 17.79 148.827 17.982C148.335 18.162 147.735 18.252 147.027 18.252C146.163 18.252 145.401 18.066 144.741 17.694C144.081 17.31 143.565 16.782 143.193 16.11C142.833 15.426 142.653 14.64 142.653 13.752C142.653 12.936 142.827 12.198 143.175 11.538C143.535 10.878 144.027 10.356 144.651 9.972C145.287 9.576 146.013 9.378 146.829 9.378C147.801 9.378 148.587 9.612 149.187 10.08C149.787 10.548 150.225 11.154 150.501 11.898C150.777 12.642 150.915 13.44 150.915 14.292H144.309C144.321 14.784 144.453 15.228 144.705 15.624C144.957 16.008 145.287 16.314 145.695 16.542C146.115 16.758 146.565 16.866 147.045 16.866C147.753 16.866 148.335 16.746 148.791 16.506C149.259 16.266 149.589 16.032 149.781 15.804ZM144.309 13.086H149.241C149.193 12.438 148.965 11.886 148.557 11.43C148.149 10.974 147.573 10.746 146.829 10.746C146.313 10.746 145.869 10.86 145.497 11.088C145.125 11.316 144.837 11.61 144.633 11.97C144.441 12.318 144.333 12.69 144.309 13.086ZM157.992 18L157.956 16.992C157.656 17.4 157.242 17.712 156.714 17.928C156.198 18.132 155.676 18.234 155.148 18.234C154.692 18.234 154.236 18.15 153.78 17.982C153.336 17.814 152.964 17.538 152.664 17.154C152.376 16.77 152.232 16.26 152.232 15.624C152.232 14.724 152.55 14.004 153.186 13.464C153.822 12.924 154.728 12.654 155.904 12.654C156.168 12.654 156.438 12.666 156.714 12.69C157.002 12.702 157.26 12.72 157.488 12.744C157.716 12.756 157.866 12.768 157.938 12.78V12.474C157.938 11.85 157.746 11.406 157.362 11.142C156.99 10.866 156.48 10.728 155.832 10.728C155.208 10.728 154.704 10.818 154.32 10.998C153.948 11.166 153.636 11.34 153.384 11.52L152.628 10.422C152.928 10.182 153.342 9.948 153.87 9.72C154.398 9.492 155.112 9.378 156.012 9.378C157.08 9.378 157.926 9.642 158.55 10.17C159.174 10.686 159.486 11.424 159.486 12.384V17.262C159.486 17.346 159.486 17.448 159.486 17.568C159.486 17.688 159.492 17.832 159.504 18H157.992ZM157.938 14.994V14.04C157.878 14.016 157.74 13.998 157.524 13.986C157.308 13.962 157.062 13.944 156.786 13.932C156.522 13.908 156.264 13.896 156.012 13.896C155.412 13.896 154.95 13.986 154.626 14.166C154.314 14.334 154.098 14.55 153.978 14.814C153.87 15.066 153.816 15.318 153.816 15.57C153.816 16.014 153.972 16.356 154.284 16.596C154.596 16.836 155.028 16.956 155.58 16.956C156 16.956 156.384 16.866 156.732 16.686C157.092 16.494 157.38 16.248 157.596 15.948C157.824 15.648 157.938 15.33 157.938 14.994ZM167.982 15.804L168.972 16.848C168.6 17.268 168.138 17.61 167.586 17.874C167.034 18.126 166.404 18.252 165.696 18.252C164.796 18.252 164.016 18.06 163.356 17.676C162.708 17.292 162.204 16.77 161.844 16.11C161.484 15.438 161.304 14.67 161.304 13.806C161.304 12.99 161.49 12.246 161.862 11.574C162.234 10.902 162.75 10.368 163.41 9.972C164.082 9.564 164.844 9.36 165.696 9.36C166.404 9.36 167.028 9.486 167.568 9.738C168.108 9.99 168.57 10.332 168.954 10.764L167.892 11.79C167.64 11.478 167.334 11.232 166.974 11.052C166.614 10.872 166.188 10.782 165.696 10.782C165.12 10.782 164.622 10.926 164.202 11.214C163.794 11.49 163.482 11.856 163.266 12.312C163.05 12.768 162.942 13.266 162.942 13.806C162.942 14.322 163.05 14.814 163.266 15.282C163.494 15.738 163.812 16.11 164.22 16.398C164.628 16.686 165.12 16.83 165.696 16.83C166.188 16.83 166.626 16.74 167.01 16.56C167.406 16.368 167.73 16.116 167.982 15.804ZM170.559 18V5.994H172.161V10.872C172.305 10.668 172.491 10.458 172.719 10.242C172.959 10.014 173.259 9.822 173.619 9.666C173.991 9.51 174.435 9.432 174.951 9.432C176.043 9.432 176.853 9.756 177.381 10.404C177.909 11.04 178.173 11.898 178.173 12.978V18H176.553V13.104C176.553 12.324 176.379 11.754 176.031 11.394C175.695 11.022 175.227 10.836 174.627 10.836C174.015 10.836 173.529 10.998 173.169 11.322C172.809 11.634 172.551 12.042 172.395 12.546C172.251 13.05 172.179 13.572 172.179 14.112V18H170.559ZM183.962 20.898L184.718 19.71C184.994 19.902 185.33 20.064 185.726 20.196C186.134 20.34 186.626 20.412 187.202 20.412C188.006 20.412 188.606 20.19 189.002 19.746C189.398 19.302 189.596 18.72 189.596 18V16.974C189.488 17.07 189.326 17.208 189.11 17.388C188.894 17.556 188.612 17.712 188.264 17.856C187.928 18 187.508 18.072 187.004 18.072C186.188 18.072 185.492 17.892 184.916 17.532C184.352 17.172 183.92 16.68 183.62 16.056C183.332 15.42 183.188 14.706 183.188 13.914C183.188 13.05 183.386 12.282 183.782 11.61C184.178 10.926 184.73 10.392 185.438 10.008C186.146 9.624 186.968 9.432 187.904 9.432C188.576 9.432 189.206 9.492 189.794 9.612C190.394 9.732 190.874 9.864 191.234 10.008V18C191.234 19.2 190.88 20.136 190.172 20.808C189.464 21.48 188.48 21.816 187.22 21.816C186.368 21.816 185.69 21.72 185.186 21.528C184.682 21.336 184.274 21.126 183.962 20.898ZM189.614 14.58V11.106C189.506 11.07 189.32 11.022 189.056 10.962C188.804 10.89 188.42 10.854 187.904 10.854C187.292 10.854 186.758 10.986 186.302 11.25C185.846 11.502 185.486 11.856 185.222 12.312C184.97 12.768 184.844 13.296 184.844 13.896C184.844 14.4 184.922 14.862 185.078 15.282C185.246 15.702 185.51 16.038 185.87 16.29C186.23 16.542 186.692 16.668 187.256 16.668C187.796 16.668 188.24 16.566 188.588 16.362C188.936 16.158 189.194 15.9 189.362 15.588C189.53 15.264 189.614 14.928 189.614 14.58ZM195.066 18H193.446V10.44C193.446 10.356 193.446 10.26 193.446 10.152C193.446 10.044 193.44 9.87 193.428 9.63H194.976L195.03 10.98C195.162 10.788 195.342 10.578 195.57 10.35C195.81 10.122 196.11 9.924 196.47 9.756C196.83 9.588 197.262 9.504 197.766 9.504C197.946 9.504 198.108 9.516 198.252 9.54C198.408 9.564 198.552 9.6 198.684 9.648L198.324 11.16C198.108 11.076 197.832 11.034 197.496 11.034C197.04 11.034 196.626 11.154 196.254 11.394C195.894 11.622 195.606 11.928 195.39 12.312C195.174 12.696 195.066 13.122 195.066 13.59V18ZM203.578 18.252C202.726 18.252 201.964 18.054 201.292 17.658C200.62 17.25 200.092 16.71 199.708 16.038C199.336 15.354 199.15 14.61 199.15 13.806C199.15 12.99 199.336 12.246 199.708 11.574C200.092 10.902 200.62 10.368 201.292 9.972C201.964 9.564 202.726 9.36 203.578 9.36C204.43 9.36 205.186 9.564 205.846 9.972C206.518 10.368 207.046 10.902 207.43 11.574C207.814 12.246 208.006 12.99 208.006 13.806C208.006 14.61 207.814 15.354 207.43 16.038C207.046 16.71 206.518 17.25 205.846 17.658C205.186 18.054 204.43 18.252 203.578 18.252ZM203.578 16.848C204.166 16.848 204.664 16.704 205.072 16.416C205.492 16.116 205.81 15.732 206.026 15.264C206.254 14.796 206.368 14.31 206.368 13.806C206.368 13.302 206.254 12.816 206.026 12.348C205.81 11.88 205.492 11.502 205.072 11.214C204.652 10.914 204.154 10.764 203.578 10.764C203.002 10.764 202.504 10.914 202.084 11.214C201.664 11.502 201.34 11.88 201.112 12.348C200.896 12.804 200.788 13.29 200.788 13.806C200.788 14.31 200.902 14.796 201.13 15.264C201.358 15.72 201.676 16.098 202.084 16.398C202.504 16.698 203.002 16.848 203.578 16.848ZM209.792 14.652V9.63H211.412V14.544C211.412 15.324 211.574 15.894 211.898 16.254C212.222 16.614 212.69 16.794 213.302 16.794C213.926 16.794 214.412 16.632 214.76 16.308C215.108 15.984 215.354 15.576 215.498 15.084C215.654 14.58 215.732 14.058 215.732 13.518V9.63H217.352V17.154C217.352 17.202 217.352 17.316 217.352 17.496C217.352 17.664 217.358 17.832 217.37 18H215.822L215.768 16.758C215.636 16.95 215.45 17.16 215.21 17.388C214.97 17.604 214.664 17.79 214.292 17.946C213.932 18.102 213.494 18.18 212.978 18.18C211.886 18.18 211.082 17.862 210.566 17.226C210.05 16.59 209.792 15.732 209.792 14.652ZM221.204 21.6H219.602V10.494C219.602 10.386 219.602 10.278 219.602 10.17C219.602 10.05 219.596 9.87 219.584 9.63H221.132L221.186 10.818C221.306 10.662 221.48 10.482 221.708 10.278C221.948 10.062 222.26 9.87 222.644 9.702C223.028 9.534 223.49 9.45 224.03 9.45C224.894 9.45 225.602 9.654 226.154 10.062C226.718 10.47 227.132 11.01 227.396 11.682C227.672 12.354 227.81 13.08 227.81 13.86C227.81 14.616 227.678 15.276 227.414 15.84C227.162 16.392 226.826 16.848 226.406 17.208C225.986 17.556 225.524 17.82 225.02 18C224.516 18.168 224.018 18.252 223.526 18.252C222.962 18.252 222.512 18.192 222.176 18.072C221.84 17.964 221.516 17.844 221.204 17.712V21.6ZM221.204 14.04V16.182C221.396 16.338 221.672 16.488 222.032 16.632C222.392 16.776 222.842 16.848 223.382 16.848C223.934 16.848 224.414 16.722 224.822 16.47C225.242 16.206 225.566 15.846 225.794 15.39C226.034 14.934 226.154 14.424 226.154 13.86C226.154 13.32 226.07 12.822 225.902 12.366C225.746 11.91 225.488 11.544 225.128 11.268C224.768 10.992 224.282 10.854 223.67 10.854C223.106 10.854 222.614 11.016 222.194 11.34C221.786 11.664 221.498 12.126 221.33 12.726C221.282 12.918 221.246 13.128 221.222 13.356C221.21 13.572 221.204 13.8 221.204 14.04Z" fill="black"/>
<path fill-rule="evenodd" clip-rule="evenodd" d="M18.6946 7.93136C19.1467 8.45305 19.0904 9.2425 18.5687 9.69463L11.0687 16.1946C10.5731 16.6241 9.82984 16.5976 9.36612 16.1339L5.36612 12.1339C4.87796 11.6457 4.87796 10.8543 5.36612 10.3661C5.85427 9.87798 6.64573 9.87798 7.13388 10.3661L10.3109 13.5431L16.9313 7.80541C17.453 7.35327 18.2425 7.40966 18.6946 7.93136Z" fill="black"/>
</svg>
