<svg width="260" height="24" viewBox="0 0 260 24" fill="none" xmlns="http://www.w3.org/2000/svg">
<path d="M33.368 18V5.994H37.382C38.654 5.994 39.776 6.21 40.748 6.642C41.732 7.062 42.5 7.716 43.052 8.604C43.616 9.492 43.898 10.632 43.898 12.024C43.898 13.368 43.616 14.484 43.052 15.372C42.5 16.26 41.732 16.92 40.748 17.352C39.764 17.784 38.636 18 37.364 18H33.368ZM35.096 16.452H37.328C38.828 16.452 39.992 16.086 40.82 15.354C41.66 14.61 42.08 13.512 42.08 12.06C42.08 10.596 41.672 9.48 40.856 8.712C40.052 7.932 38.858 7.542 37.274 7.542H35.096V16.452ZM49.9273 18.252C49.0753 18.252 48.3133 18.054 47.6413 17.658C46.9693 17.25 46.4413 16.71 46.0573 16.038C45.6853 15.354 45.4993 14.61 45.4993 13.806C45.4993 12.99 45.6853 12.246 46.0573 11.574C46.4413 10.902 46.9693 10.368 47.6413 9.972C48.3133 9.564 49.0753 9.36 49.9273 9.36C50.7793 9.36 51.5353 9.564 52.1953 9.972C52.8673 10.368 53.3953 10.902 53.7793 11.574C54.1633 12.246 54.3553 12.99 54.3553 13.806C54.3553 14.61 54.1633 15.354 53.7793 16.038C53.3953 16.71 52.8673 17.25 52.1953 17.658C51.5353 18.054 50.7793 18.252 49.9273 18.252ZM49.9273 16.848C50.5153 16.848 51.0133 16.704 51.4213 16.416C51.8413 16.116 52.1593 15.732 52.3753 15.264C52.6033 14.796 52.7173 14.31 52.7173 13.806C52.7173 13.302 52.6033 12.816 52.3753 12.348C52.1593 11.88 51.8413 11.502 51.4213 11.214C51.0013 10.914 50.5033 10.764 49.9273 10.764C49.3513 10.764 48.8533 10.914 48.4333 11.214C48.0133 11.502 47.6893 11.88 47.4613 12.348C47.2453 12.804 47.1373 13.29 47.1373 13.806C47.1373 14.31 47.2513 14.796 47.4793 15.264C47.7073 15.72 48.0253 16.098 48.4333 16.398C48.8533 16.698 49.3513 16.848 49.9273 16.848ZM57.8404 18L55.0144 9.63H56.7964L58.6684 16.02L60.6844 9.63H62.0704L64.0864 16.074L65.9224 9.63H67.5964L64.8244 18H63.2224L61.2784 12.15L59.3524 18H57.8404ZM70.5426 18H68.9226V10.494C68.9226 10.386 68.9226 10.278 68.9226 10.17C68.9226 10.05 68.9166 9.87 68.9046 9.63H70.4526L70.5066 10.89C70.6506 10.686 70.8426 10.476 71.0826 10.26C71.3226 10.032 71.6226 9.84 71.9826 9.684C72.3546 9.516 72.7986 9.432 73.3146 9.432C74.4066 9.432 75.2166 9.756 75.7446 10.404C76.2726 11.04 76.5366 11.898 76.5366 12.978V18H74.9166V13.104C74.9166 12.324 74.7426 11.754 74.3946 11.394C74.0586 11.022 73.5906 10.836 72.9906 10.836C72.3786 10.836 71.8926 10.998 71.5326 11.322C71.1726 11.634 70.9146 12.042 70.7586 12.546C70.6146 13.05 70.5426 13.572 70.5426 14.112V18ZM78.6957 18V5.994H80.3157V18H78.6957ZM86.5601 18.252C85.7081 18.252 84.9461 18.054 84.2741 17.658C83.6021 17.25 83.0741 16.71 82.6901 16.038C82.3181 15.354 82.1321 14.61 82.1321 13.806C82.1321 12.99 82.3181 12.246 82.6901 11.574C83.0741 10.902 83.6021 10.368 84.2741 9.972C84.9461 9.564 85.7081 9.36 86.5601 9.36C87.4121 9.36 88.1681 9.564 88.8281 9.972C89.5001 10.368 90.0281 10.902 90.4121 11.574C90.7961 12.246 90.9881 12.99 90.9881 13.806C90.9881 14.61 90.7961 15.354 90.4121 16.038C90.0281 16.71 89.5001 17.25 88.8281 17.658C88.1681 18.054 87.4121 18.252 86.5601 18.252ZM86.5601 16.848C87.1481 16.848 87.6461 16.704 88.0541 16.416C88.4741 16.116 88.7921 15.732 89.0081 15.264C89.2361 14.796 89.3501 14.31 89.3501 13.806C89.3501 13.302 89.2361 12.816 89.0081 12.348C88.7921 11.88 88.4741 11.502 88.0541 11.214C87.6341 10.914 87.1361 10.764 86.5601 10.764C85.9841 10.764 85.4861 10.914 85.0661 11.214C84.6461 11.502 84.3221 11.88 84.0941 12.348C83.8781 12.804 83.7701 13.29 83.7701 13.806C83.7701 14.31 83.8841 14.796 84.1121 15.264C84.3401 15.72 84.6581 16.098 85.0661 16.398C85.4861 16.698 85.9841 16.848 86.5601 16.848ZM98.1029 18L98.0669 16.992C97.7669 17.4 97.3529 17.712 96.8249 17.928C96.3089 18.132 95.7869 18.234 95.2589 18.234C94.8029 18.234 94.3469 18.15 93.8909 17.982C93.4469 17.814 93.0749 17.538 92.7749 17.154C92.4869 16.77 92.3429 16.26 92.3429 15.624C92.3429 14.724 92.6609 14.004 93.2969 13.464C93.9329 12.924 94.8389 12.654 96.0149 12.654C96.2789 12.654 96.5489 12.666 96.8249 12.69C97.1129 12.702 97.3709 12.72 97.5989 12.744C97.8269 12.756 97.9769 12.768 98.0489 12.78V12.474C98.0489 11.85 97.8569 11.406 97.4729 11.142C97.1009 10.866 96.5909 10.728 95.9429 10.728C95.3189 10.728 94.8149 10.818 94.4309 10.998C94.0589 11.166 93.7469 11.34 93.4949 11.52L92.7389 10.422C93.0389 10.182 93.4529 9.948 93.9809 9.72C94.5089 9.492 95.2229 9.378 96.1229 9.378C97.1909 9.378 98.0369 9.642 98.6609 10.17C99.2849 10.686 99.5969 11.424 99.5969 12.384V17.262C99.5969 17.346 99.5969 17.448 99.5969 17.568C99.5969 17.688 99.6029 17.832 99.6149 18H98.1029ZM98.0489 14.994V14.04C97.9889 14.016 97.8509 13.998 97.6349 13.986C97.4189 13.962 97.1729 13.944 96.8969 13.932C96.6329 13.908 96.3749 13.896 96.1229 13.896C95.5229 13.896 95.0609 13.986 94.7369 14.166C94.4249 14.334 94.2089 14.55 94.0889 14.814C93.9809 15.066 93.9269 15.318 93.9269 15.57C93.9269 16.014 94.0829 16.356 94.3949 16.596C94.7069 16.836 95.1389 16.956 95.6909 16.956C96.1109 16.956 96.4949 16.866 96.8429 16.686C97.2029 16.494 97.4909 16.248 97.7069 15.948C97.9349 15.648 98.0489 15.33 98.0489 14.994ZM107.895 18L107.841 16.938C107.757 17.034 107.601 17.19 107.373 17.406C107.157 17.622 106.863 17.82 106.491 18C106.119 18.168 105.663 18.252 105.123 18.252C104.415 18.252 103.779 18.078 103.215 17.73C102.651 17.37 102.207 16.866 101.883 16.218C101.559 15.57 101.397 14.808 101.397 13.932C101.397 13.14 101.529 12.462 101.793 11.898C102.069 11.322 102.423 10.854 102.855 10.494C103.287 10.134 103.749 9.87 104.241 9.702C104.745 9.522 105.219 9.432 105.663 9.432C106.119 9.432 106.509 9.48 106.833 9.576C107.169 9.672 107.505 9.804 107.841 9.972V5.994H109.461V17.154C109.461 17.202 109.461 17.316 109.461 17.496C109.461 17.664 109.467 17.832 109.479 18H107.895ZM107.841 14.472V11.484C107.625 11.304 107.349 11.154 107.013 11.034C106.677 10.914 106.269 10.854 105.789 10.854C105.009 10.854 104.355 11.13 103.827 11.682C103.311 12.234 103.053 12.99 103.053 13.95C103.053 14.478 103.137 14.964 103.305 15.408C103.485 15.852 103.755 16.206 104.115 16.47C104.475 16.722 104.931 16.848 105.483 16.848C106.047 16.848 106.497 16.722 106.833 16.47C107.181 16.206 107.433 15.888 107.589 15.516C107.757 15.144 107.841 14.796 107.841 14.472ZM116.562 21.6H114.96V10.494C114.96 10.386 114.96 10.278 114.96 10.17C114.96 10.05 114.954 9.87 114.942 9.63H116.49L116.544 10.818C116.664 10.662 116.838 10.482 117.066 10.278C117.306 10.062 117.618 9.87 118.002 9.702C118.386 9.534 118.848 9.45 119.388 9.45C120.252 9.45 120.96 9.654 121.512 10.062C122.076 10.47 122.49 11.01 122.754 11.682C123.03 12.354 123.168 13.08 123.168 13.86C123.168 14.616 123.036 15.276 122.772 15.84C122.52 16.392 122.184 16.848 121.764 17.208C121.344 17.556 120.882 17.82 120.378 18C119.874 18.168 119.376 18.252 118.884 18.252C118.32 18.252 117.87 18.192 117.534 18.072C117.198 17.964 116.874 17.844 116.562 17.712V21.6ZM116.562 14.04V16.182C116.754 16.338 117.03 16.488 117.39 16.632C117.75 16.776 118.2 16.848 118.74 16.848C119.292 16.848 119.772 16.722 120.18 16.47C120.6 16.206 120.924 15.846 121.152 15.39C121.392 14.934 121.512 14.424 121.512 13.86C121.512 13.32 121.428 12.822 121.26 12.366C121.104 11.91 120.846 11.544 120.486 11.268C120.126 10.992 119.64 10.854 119.028 10.854C118.464 10.854 117.972 11.016 117.552 11.34C117.144 11.664 116.856 12.126 116.688 12.726C116.64 12.918 116.604 13.128 116.58 13.356C116.568 13.572 116.562 13.8 116.562 14.04ZM130.271 18L130.235 16.992C129.935 17.4 129.521 17.712 128.993 17.928C128.477 18.132 127.955 18.234 127.427 18.234C126.971 18.234 126.515 18.15 126.059 17.982C125.615 17.814 125.243 17.538 124.943 17.154C124.655 16.77 124.511 16.26 124.511 15.624C124.511 14.724 124.829 14.004 125.465 13.464C126.101 12.924 127.007 12.654 128.183 12.654C128.447 12.654 128.717 12.666 128.993 12.69C129.281 12.702 129.539 12.72 129.767 12.744C129.995 12.756 130.145 12.768 130.217 12.78V12.474C130.217 11.85 130.025 11.406 129.641 11.142C129.269 10.866 128.759 10.728 128.111 10.728C127.487 10.728 126.983 10.818 126.599 10.998C126.227 11.166 125.915 11.34 125.663 11.52L124.907 10.422C125.207 10.182 125.621 9.948 126.149 9.72C126.677 9.492 127.391 9.378 128.291 9.378C129.359 9.378 130.205 9.642 130.829 10.17C131.453 10.686 131.765 11.424 131.765 12.384V17.262C131.765 17.346 131.765 17.448 131.765 17.568C131.765 17.688 131.771 17.832 131.783 18H130.271ZM130.217 14.994V14.04C130.157 14.016 130.019 13.998 129.803 13.986C129.587 13.962 129.341 13.944 129.065 13.932C128.801 13.908 128.543 13.896 128.291 13.896C127.691 13.896 127.229 13.986 126.905 14.166C126.593 14.334 126.377 14.55 126.257 14.814C126.149 15.066 126.095 15.318 126.095 15.57C126.095 16.014 126.251 16.356 126.563 16.596C126.875 16.836 127.307 16.956 127.859 16.956C128.279 16.956 128.663 16.866 129.011 16.686C129.371 16.494 129.659 16.248 129.875 15.948C130.103 15.648 130.217 15.33 130.217 14.994ZM134.339 20.898L135.095 19.71C135.371 19.902 135.707 20.064 136.103 20.196C136.511 20.34 137.003 20.412 137.579 20.412C138.383 20.412 138.983 20.19 139.379 19.746C139.775 19.302 139.973 18.72 139.973 18V16.974C139.865 17.07 139.703 17.208 139.487 17.388C139.271 17.556 138.989 17.712 138.641 17.856C138.305 18 137.885 18.072 137.381 18.072C136.565 18.072 135.869 17.892 135.293 17.532C134.729 17.172 134.297 16.68 133.997 16.056C133.709 15.42 133.565 14.706 133.565 13.914C133.565 13.05 133.763 12.282 134.159 11.61C134.555 10.926 135.107 10.392 135.815 10.008C136.523 9.624 137.345 9.432 138.281 9.432C138.953 9.432 139.583 9.492 140.171 9.612C140.771 9.732 141.251 9.864 141.611 10.008V18C141.611 19.2 141.257 20.136 140.549 20.808C139.841 21.48 138.857 21.816 137.597 21.816C136.745 21.816 136.067 21.72 135.563 21.528C135.059 21.336 134.651 21.126 134.339 20.898ZM139.991 14.58V11.106C139.883 11.07 139.697 11.022 139.433 10.962C139.181 10.89 138.797 10.854 138.281 10.854C137.669 10.854 137.135 10.986 136.679 11.25C136.223 11.502 135.863 11.856 135.599 12.312C135.347 12.768 135.221 13.296 135.221 13.896C135.221 14.4 135.299 14.862 135.455 15.282C135.623 15.702 135.887 16.038 136.247 16.29C136.607 16.542 137.069 16.668 137.633 16.668C138.173 16.668 138.617 16.566 138.965 16.362C139.313 16.158 139.571 15.9 139.739 15.588C139.907 15.264 139.991 14.928 139.991 14.58ZM150.537 15.804L151.455 16.776C151.335 16.92 151.119 17.112 150.807 17.352C150.495 17.58 150.087 17.79 149.583 17.982C149.091 18.162 148.491 18.252 147.783 18.252C146.919 18.252 146.157 18.066 145.497 17.694C144.837 17.31 144.321 16.782 143.949 16.11C143.589 15.426 143.409 14.64 143.409 13.752C143.409 12.936 143.583 12.198 143.931 11.538C144.291 10.878 144.783 10.356 145.407 9.972C146.043 9.576 146.769 9.378 147.585 9.378C148.557 9.378 149.343 9.612 149.943 10.08C150.543 10.548 150.981 11.154 151.257 11.898C151.533 12.642 151.671 13.44 151.671 14.292H145.065C145.077 14.784 145.209 15.228 145.461 15.624C145.713 16.008 146.043 16.314 146.451 16.542C146.871 16.758 147.321 16.866 147.801 16.866C148.509 16.866 149.091 16.746 149.547 16.506C150.015 16.266 150.345 16.032 150.537 15.804ZM145.065 13.086H149.997C149.949 12.438 149.721 11.886 149.313 11.43C148.905 10.974 148.329 10.746 147.585 10.746C147.069 10.746 146.625 10.86 146.253 11.088C145.881 11.316 145.593 11.61 145.389 11.97C145.197 12.318 145.089 12.69 145.065 13.086ZM156.671 14.652V9.63H158.291V14.544C158.291 15.324 158.453 15.894 158.777 16.254C159.101 16.614 159.569 16.794 160.181 16.794C160.805 16.794 161.291 16.632 161.639 16.308C161.987 15.984 162.233 15.576 162.377 15.084C162.533 14.58 162.611 14.058 162.611 13.518V9.63H164.231V17.154C164.231 17.202 164.231 17.316 164.231 17.496C164.231 17.664 164.237 17.832 164.249 18H162.701L162.647 16.758C162.515 16.95 162.329 17.16 162.089 17.388C161.849 17.604 161.543 17.79 161.171 17.946C160.811 18.102 160.373 18.18 159.857 18.18C158.765 18.18 157.961 17.862 157.445 17.226C156.929 16.59 156.671 15.732 156.671 14.652ZM168.083 21.6H166.481V10.494C166.481 10.386 166.481 10.278 166.481 10.17C166.481 10.05 166.475 9.87 166.463 9.63H168.011L168.065 10.818C168.185 10.662 168.359 10.482 168.587 10.278C168.827 10.062 169.139 9.87 169.523 9.702C169.907 9.534 170.369 9.45 170.909 9.45C171.773 9.45 172.481 9.654 173.033 10.062C173.597 10.47 174.011 11.01 174.275 11.682C174.551 12.354 174.689 13.08 174.689 13.86C174.689 14.616 174.557 15.276 174.293 15.84C174.041 16.392 173.705 16.848 173.285 17.208C172.865 17.556 172.403 17.82 171.899 18C171.395 18.168 170.897 18.252 170.405 18.252C169.841 18.252 169.391 18.192 169.055 18.072C168.719 17.964 168.395 17.844 168.083 17.712V21.6ZM168.083 14.04V16.182C168.275 16.338 168.551 16.488 168.911 16.632C169.271 16.776 169.721 16.848 170.261 16.848C170.813 16.848 171.293 16.722 171.701 16.47C172.121 16.206 172.445 15.846 172.673 15.39C172.913 14.934 173.033 14.424 173.033 13.86C173.033 13.32 172.949 12.822 172.781 12.366C172.625 11.91 172.367 11.544 172.007 11.268C171.647 10.992 171.161 10.854 170.549 10.854C169.985 10.854 169.493 11.016 169.073 11.34C168.665 11.664 168.377 12.126 168.209 12.726C168.161 12.918 168.125 13.128 168.101 13.356C168.089 13.572 168.083 13.8 168.083 14.04ZM180.49 15.264V10.98H178.978V9.63H180.49V6.894H182.11V9.63H184.558V10.98H182.11V15.102C182.11 15.774 182.212 16.236 182.416 16.488C182.632 16.74 182.932 16.866 183.316 16.866C183.628 16.866 183.886 16.818 184.09 16.722C184.306 16.626 184.51 16.482 184.702 16.29L185.44 17.28C185.092 17.616 184.732 17.856 184.36 18C184 18.156 183.568 18.234 183.064 18.234C182.188 18.234 181.54 17.994 181.12 17.514C180.7 17.022 180.49 16.272 180.49 15.264ZM190.166 18.252C189.314 18.252 188.552 18.054 187.88 17.658C187.208 17.25 186.68 16.71 186.296 16.038C185.924 15.354 185.738 14.61 185.738 13.806C185.738 12.99 185.924 12.246 186.296 11.574C186.68 10.902 187.208 10.368 187.88 9.972C188.552 9.564 189.314 9.36 190.166 9.36C191.018 9.36 191.774 9.564 192.434 9.972C193.106 10.368 193.634 10.902 194.018 11.574C194.402 12.246 194.594 12.99 194.594 13.806C194.594 14.61 194.402 15.354 194.018 16.038C193.634 16.71 193.106 17.25 192.434 17.658C191.774 18.054 191.018 18.252 190.166 18.252ZM190.166 16.848C190.754 16.848 191.252 16.704 191.66 16.416C192.08 16.116 192.398 15.732 192.614 15.264C192.842 14.796 192.956 14.31 192.956 13.806C192.956 13.302 192.842 12.816 192.614 12.348C192.398 11.88 192.08 11.502 191.66 11.214C191.24 10.914 190.742 10.764 190.166 10.764C189.59 10.764 189.092 10.914 188.672 11.214C188.252 11.502 187.928 11.88 187.7 12.348C187.484 12.804 187.376 13.29 187.376 13.806C187.376 14.31 187.49 14.796 187.718 15.264C187.946 15.72 188.264 16.098 188.672 16.398C189.092 16.698 189.59 16.848 190.166 16.848ZM199.794 18V16.83C199.794 16.194 199.944 15.636 200.244 15.156C200.544 14.664 200.904 14.214 201.324 13.806C201.852 13.29 202.344 12.846 202.8 12.474C203.256 12.102 203.658 11.76 204.006 11.448C204.354 11.136 204.624 10.83 204.816 10.53C205.02 10.218 205.122 9.864 205.122 9.468C205.122 9.228 205.056 8.982 204.924 8.73C204.804 8.478 204.606 8.262 204.33 8.082C204.054 7.902 203.676 7.812 203.196 7.812C202.764 7.812 202.392 7.89 202.08 8.046C201.78 8.19 201.528 8.37 201.324 8.586C201.132 8.79 200.964 8.994 200.82 9.198L199.614 8.334C199.782 8.046 200.022 7.746 200.334 7.434C200.646 7.122 201.042 6.864 201.522 6.66C202.014 6.444 202.608 6.336 203.304 6.336C204.12 6.336 204.792 6.48 205.32 6.768C205.848 7.056 206.238 7.428 206.49 7.884C206.742 8.34 206.868 8.832 206.868 9.36C206.868 9.924 206.742 10.434 206.49 10.89C206.25 11.346 205.932 11.766 205.536 12.15C205.152 12.534 204.744 12.9 204.312 13.248C203.544 13.848 202.896 14.406 202.368 14.922C201.852 15.426 201.594 15.96 201.594 16.524H206.994V18H199.794ZM213.275 18.252C212.339 18.252 211.547 18.006 210.899 17.514C210.263 17.01 209.777 16.302 209.441 15.39C209.117 14.478 208.955 13.416 208.955 12.204C208.955 11.004 209.123 9.966 209.459 9.09C209.795 8.214 210.281 7.536 210.917 7.056C211.565 6.576 212.357 6.336 213.293 6.336C214.229 6.336 215.015 6.576 215.651 7.056C216.299 7.536 216.785 8.214 217.109 9.09C217.445 9.966 217.613 11.004 217.613 12.204C217.613 13.416 217.445 14.478 217.109 15.39C216.773 16.302 216.281 17.01 215.633 17.514C214.997 18.006 214.211 18.252 213.275 18.252ZM213.275 16.758C213.851 16.758 214.337 16.566 214.733 16.182C215.129 15.798 215.423 15.264 215.615 14.58C215.819 13.896 215.921 13.104 215.921 12.204C215.921 10.884 215.693 9.828 215.237 9.036C214.781 8.244 214.127 7.848 213.275 7.848C212.423 7.848 211.769 8.244 211.313 9.036C210.869 9.828 210.647 10.884 210.647 12.204C210.647 13.104 210.743 13.896 210.935 14.58C211.139 15.264 211.439 15.798 211.835 16.182C212.231 16.566 212.711 16.758 213.275 16.758ZM224.157 21.6H222.555V10.494C222.555 10.386 222.555 10.278 222.555 10.17C222.555 10.05 222.549 9.87 222.537 9.63H224.085L224.139 10.818C224.259 10.662 224.433 10.482 224.661 10.278C224.901 10.062 225.213 9.87 225.597 9.702C225.981 9.534 226.443 9.45 226.983 9.45C227.847 9.45 228.555 9.654 229.107 10.062C229.671 10.47 230.085 11.01 230.349 11.682C230.625 12.354 230.763 13.08 230.763 13.86C230.763 14.616 230.631 15.276 230.367 15.84C230.115 16.392 229.779 16.848 229.359 17.208C228.939 17.556 228.477 17.82 227.973 18C227.469 18.168 226.971 18.252 226.479 18.252C225.915 18.252 225.465 18.192 225.129 18.072C224.793 17.964 224.469 17.844 224.157 17.712V21.6ZM224.157 14.04V16.182C224.349 16.338 224.625 16.488 224.985 16.632C225.345 16.776 225.795 16.848 226.335 16.848C226.887 16.848 227.367 16.722 227.775 16.47C228.195 16.206 228.519 15.846 228.747 15.39C228.987 14.934 229.107 14.424 229.107 13.86C229.107 13.32 229.023 12.822 228.855 12.366C228.699 11.91 228.441 11.544 228.081 11.268C227.721 10.992 227.235 10.854 226.623 10.854C226.059 10.854 225.567 11.016 225.147 11.34C224.739 11.664 224.451 12.126 224.283 12.726C224.235 12.918 224.199 13.128 224.175 13.356C224.163 13.572 224.157 13.8 224.157 14.04ZM237.867 18L237.831 16.992C237.531 17.4 237.117 17.712 236.589 17.928C236.073 18.132 235.551 18.234 235.023 18.234C234.567 18.234 234.111 18.15 233.655 17.982C233.211 17.814 232.839 17.538 232.539 17.154C232.251 16.77 232.107 16.26 232.107 15.624C232.107 14.724 232.425 14.004 233.061 13.464C233.697 12.924 234.603 12.654 235.779 12.654C236.043 12.654 236.313 12.666 236.589 12.69C236.877 12.702 237.135 12.72 237.363 12.744C237.591 12.756 237.741 12.768 237.813 12.78V12.474C237.813 11.85 237.621 11.406 237.237 11.142C236.865 10.866 236.355 10.728 235.707 10.728C235.083 10.728 234.579 10.818 234.195 10.998C233.823 11.166 233.511 11.34 233.259 11.52L232.503 10.422C232.803 10.182 233.217 9.948 233.745 9.72C234.273 9.492 234.987 9.378 235.887 9.378C236.955 9.378 237.801 9.642 238.425 10.17C239.049 10.686 239.361 11.424 239.361 12.384V17.262C239.361 17.346 239.361 17.448 239.361 17.568C239.361 17.688 239.367 17.832 239.379 18H237.867ZM237.813 14.994V14.04C237.753 14.016 237.615 13.998 237.399 13.986C237.183 13.962 236.937 13.944 236.661 13.932C236.397 13.908 236.139 13.896 235.887 13.896C235.287 13.896 234.825 13.986 234.501 14.166C234.189 14.334 233.973 14.55 233.853 14.814C233.745 15.066 233.691 15.318 233.691 15.57C233.691 16.014 233.847 16.356 234.159 16.596C234.471 16.836 234.903 16.956 235.455 16.956C235.875 16.956 236.259 16.866 236.607 16.686C236.967 16.494 237.255 16.248 237.471 15.948C237.699 15.648 237.813 15.33 237.813 14.994ZM241.935 20.898L242.691 19.71C242.967 19.902 243.303 20.064 243.699 20.196C244.107 20.34 244.599 20.412 245.175 20.412C245.979 20.412 246.579 20.19 246.975 19.746C247.371 19.302 247.569 18.72 247.569 18V16.974C247.461 17.07 247.299 17.208 247.083 17.388C246.867 17.556 246.585 17.712 246.237 17.856C245.901 18 245.481 18.072 244.977 18.072C244.161 18.072 243.465 17.892 242.889 17.532C242.325 17.172 241.893 16.68 241.593 16.056C241.305 15.42 241.161 14.706 241.161 13.914C241.161 13.05 241.359 12.282 241.755 11.61C242.151 10.926 242.703 10.392 243.411 10.008C244.119 9.624 244.941 9.432 245.877 9.432C246.549 9.432 247.179 9.492 247.767 9.612C248.367 9.732 248.847 9.864 249.207 10.008V18C249.207 19.2 248.853 20.136 248.145 20.808C247.437 21.48 246.453 21.816 245.193 21.816C244.341 21.816 243.663 21.72 243.159 21.528C242.655 21.336 242.247 21.126 241.935 20.898ZM247.587 14.58V11.106C247.479 11.07 247.293 11.022 247.029 10.962C246.777 10.89 246.393 10.854 245.877 10.854C245.265 10.854 244.731 10.986 244.275 11.25C243.819 11.502 243.459 11.856 243.195 12.312C242.943 12.768 242.817 13.296 242.817 13.896C242.817 14.4 242.895 14.862 243.051 15.282C243.219 15.702 243.483 16.038 243.843 16.29C244.203 16.542 244.665 16.668 245.229 16.668C245.769 16.668 246.213 16.566 246.561 16.362C246.909 16.158 247.167 15.9 247.335 15.588C247.503 15.264 247.587 14.928 247.587 14.58ZM258.133 15.804L259.051 16.776C258.931 16.92 258.715 17.112 258.403 17.352C258.091 17.58 257.683 17.79 257.179 17.982C256.687 18.162 256.087 18.252 255.379 18.252C254.515 18.252 253.753 18.066 253.093 17.694C252.433 17.31 251.917 16.782 251.545 16.11C251.185 15.426 251.005 14.64 251.005 13.752C251.005 12.936 251.179 12.198 251.527 11.538C251.887 10.878 252.379 10.356 253.003 9.972C253.639 9.576 254.365 9.378 255.181 9.378C256.153 9.378 256.939 9.612 257.539 10.08C258.139 10.548 258.577 11.154 258.853 11.898C259.129 12.642 259.267 13.44 259.267 14.292H252.661C252.673 14.784 252.805 15.228 253.057 15.624C253.309 16.008 253.639 16.314 254.047 16.542C254.467 16.758 254.917 16.866 255.397 16.866C256.105 16.866 256.687 16.746 257.143 16.506C257.611 16.266 257.941 16.032 258.133 15.804ZM252.661 13.086H257.593C257.545 12.438 257.317 11.886 256.909 11.43C256.501 10.974 255.925 10.746 255.181 10.746C254.665 10.746 254.221 10.86 253.849 11.088C253.477 11.316 253.189 11.61 252.985 11.97C252.793 12.318 252.685 12.69 252.661 13.086Z" fill="black"/>
<path fill-rule="evenodd" clip-rule="evenodd" d="M18.6946 7.93136C19.1467 8.45305 19.0904 9.2425 18.5687 9.69463L11.0687 16.1946C10.5731 16.6241 9.82984 16.5976 9.36612 16.1339L5.36612 12.1339C4.87796 11.6457 4.87796 10.8543 5.36612 10.3661C5.85427 9.87798 6.64573 9.87798 7.13388 10.3661L10.3109 13.5431L16.9313 7.80541C17.453 7.35327 18.2425 7.40966 18.6946 7.93136Z" fill="black"/>
</svg>
