<svg width="188" height="24" viewBox="0 0 188 24" fill="none" xmlns="http://www.w3.org/2000/svg">
<path d="M33.278 13.428V5.994H35.006V13.014C35.006 13.734 35.096 14.37 35.276 14.922C35.456 15.474 35.768 15.906 36.212 16.218C36.656 16.518 37.274 16.668 38.066 16.668C38.858 16.668 39.47 16.518 39.902 16.218C40.346 15.906 40.658 15.474 40.838 14.922C41.018 14.37 41.108 13.734 41.108 13.014V5.994H42.836V13.428C42.836 14.34 42.662 15.168 42.314 15.912C41.978 16.644 41.456 17.226 40.748 17.658C40.052 18.09 39.158 18.306 38.066 18.306C36.974 18.306 36.074 18.09 35.366 17.658C34.658 17.226 34.13 16.644 33.782 15.912C33.446 15.168 33.278 14.34 33.278 13.428ZM46.8293 21.6H45.2273V10.494C45.2273 10.386 45.2273 10.278 45.2273 10.17C45.2273 10.05 45.2213 9.87 45.2093 9.63H46.7573L46.8113 10.818C46.9313 10.662 47.1053 10.482 47.3333 10.278C47.5733 10.062 47.8853 9.87 48.2693 9.702C48.6533 9.534 49.1153 9.45 49.6553 9.45C50.5193 9.45 51.2273 9.654 51.7793 10.062C52.3433 10.47 52.7573 11.01 53.0213 11.682C53.2973 12.354 53.4353 13.08 53.4353 13.86C53.4353 14.616 53.3033 15.276 53.0393 15.84C52.7873 16.392 52.4513 16.848 52.0313 17.208C51.6113 17.556 51.1493 17.82 50.6453 18C50.1413 18.168 49.6433 18.252 49.1513 18.252C48.5873 18.252 48.1373 18.192 47.8013 18.072C47.4653 17.964 47.1413 17.844 46.8293 17.712V21.6ZM46.8293 14.04V16.182C47.0213 16.338 47.2973 16.488 47.6573 16.632C48.0173 16.776 48.4673 16.848 49.0073 16.848C49.5593 16.848 50.0393 16.722 50.4473 16.47C50.8673 16.206 51.1913 15.846 51.4193 15.39C51.6593 14.934 51.7793 14.424 51.7793 13.86C51.7793 13.32 51.6953 12.822 51.5273 12.366C51.3713 11.91 51.1133 11.544 50.7533 11.268C50.3933 10.992 49.9073 10.854 49.2953 10.854C48.7313 10.854 48.2393 11.016 47.8193 11.34C47.4113 11.664 47.1233 12.126 46.9553 12.726C46.9073 12.918 46.8713 13.128 46.8473 13.356C46.8353 13.572 46.8293 13.8 46.8293 14.04ZM59.2364 15.264V10.98H57.7244V9.63H59.2364V6.894H60.8564V9.63H63.3044V10.98H60.8564V15.102C60.8564 15.774 60.9584 16.236 61.1624 16.488C61.3784 16.74 61.6784 16.866 62.0624 16.866C62.3744 16.866 62.6324 16.818 62.8364 16.722C63.0524 16.626 63.2564 16.482 63.4484 16.29L64.1864 17.28C63.8384 17.616 63.4784 17.856 63.1064 18C62.7464 18.156 62.3144 18.234 61.8104 18.234C60.9344 18.234 60.2864 17.994 59.8664 17.514C59.4464 17.022 59.2364 16.272 59.2364 15.264ZM68.9117 18.252C68.0597 18.252 67.2977 18.054 66.6257 17.658C65.9537 17.25 65.4257 16.71 65.0417 16.038C64.6697 15.354 64.4837 14.61 64.4837 13.806C64.4837 12.99 64.6697 12.246 65.0417 11.574C65.4257 10.902 65.9537 10.368 66.6257 9.972C67.2977 9.564 68.0597 9.36 68.9117 9.36C69.7637 9.36 70.5197 9.564 71.1797 9.972C71.8517 10.368 72.3797 10.902 72.7637 11.574C73.1477 12.246 73.3397 12.99 73.3397 13.806C73.3397 14.61 73.1477 15.354 72.7637 16.038C72.3797 16.71 71.8517 17.25 71.1797 17.658C70.5197 18.054 69.7637 18.252 68.9117 18.252ZM68.9117 16.848C69.4997 16.848 69.9977 16.704 70.4057 16.416C70.8257 16.116 71.1437 15.732 71.3597 15.264C71.5877 14.796 71.7017 14.31 71.7017 13.806C71.7017 13.302 71.5877 12.816 71.3597 12.348C71.1437 11.88 70.8257 11.502 70.4057 11.214C69.9857 10.914 69.4877 10.764 68.9117 10.764C68.3357 10.764 67.8377 10.914 67.4177 11.214C66.9977 11.502 66.6737 11.88 66.4457 12.348C66.2297 12.804 66.1217 13.29 66.1217 13.806C66.1217 14.31 66.2357 14.796 66.4637 15.264C66.6917 15.72 67.0097 16.098 67.4177 16.398C67.8377 16.698 68.3357 16.848 68.9117 16.848ZM79.8544 18V16.56H81.8704V8.406L79.5304 9.666L78.8644 8.388L82.0504 6.642H83.5084V16.56H85.4884V18H79.8544ZM92.021 18.252C91.085 18.252 90.293 18.006 89.645 17.514C89.009 17.01 88.523 16.302 88.187 15.39C87.863 14.478 87.701 13.416 87.701 12.204C87.701 11.004 87.869 9.966 88.205 9.09C88.541 8.214 89.027 7.536 89.663 7.056C90.311 6.576 91.103 6.336 92.039 6.336C92.975 6.336 93.761 6.576 94.397 7.056C95.045 7.536 95.531 8.214 95.855 9.09C96.191 9.966 96.359 11.004 96.359 12.204C96.359 13.416 96.191 14.478 95.855 15.39C95.519 16.302 95.027 17.01 94.379 17.514C93.743 18.006 92.957 18.252 92.021 18.252ZM92.021 16.758C92.597 16.758 93.083 16.566 93.479 16.182C93.875 15.798 94.169 15.264 94.361 14.58C94.565 13.896 94.667 13.104 94.667 12.204C94.667 10.884 94.439 9.828 93.983 9.036C93.527 8.244 92.873 7.848 92.021 7.848C91.169 7.848 90.515 8.244 90.059 9.036C89.615 9.828 89.393 10.884 89.393 12.204C89.393 13.104 89.489 13.896 89.681 14.58C89.885 15.264 90.185 15.798 90.581 16.182C90.977 16.566 91.457 16.758 92.021 16.758ZM101.662 20.898L102.418 19.71C102.694 19.902 103.03 20.064 103.426 20.196C103.834 20.34 104.326 20.412 104.902 20.412C105.706 20.412 106.306 20.19 106.702 19.746C107.098 19.302 107.296 18.72 107.296 18V16.974C107.188 17.07 107.026 17.208 106.81 17.388C106.594 17.556 106.312 17.712 105.964 17.856C105.628 18 105.208 18.072 104.704 18.072C103.888 18.072 103.192 17.892 102.616 17.532C102.052 17.172 101.62 16.68 101.32 16.056C101.032 15.42 100.888 14.706 100.888 13.914C100.888 13.05 101.086 12.282 101.482 11.61C101.878 10.926 102.43 10.392 103.138 10.008C103.846 9.624 104.668 9.432 105.604 9.432C106.276 9.432 106.906 9.492 107.494 9.612C108.094 9.732 108.574 9.864 108.934 10.008V18C108.934 19.2 108.58 20.136 107.872 20.808C107.164 21.48 106.18 21.816 104.92 21.816C104.068 21.816 103.39 21.72 102.886 21.528C102.382 21.336 101.974 21.126 101.662 20.898ZM107.314 14.58V11.106C107.206 11.07 107.02 11.022 106.756 10.962C106.504 10.89 106.12 10.854 105.604 10.854C104.992 10.854 104.458 10.986 104.002 11.25C103.546 11.502 103.186 11.856 102.922 12.312C102.67 12.768 102.544 13.296 102.544 13.896C102.544 14.4 102.622 14.862 102.778 15.282C102.946 15.702 103.21 16.038 103.57 16.29C103.93 16.542 104.392 16.668 104.956 16.668C105.496 16.668 105.94 16.566 106.288 16.362C106.636 16.158 106.894 15.9 107.062 15.588C107.23 15.264 107.314 14.928 107.314 14.58ZM112.765 18H111.145V10.44C111.145 10.356 111.145 10.26 111.145 10.152C111.145 10.044 111.139 9.87 111.127 9.63H112.675L112.729 10.98C112.861 10.788 113.041 10.578 113.269 10.35C113.509 10.122 113.809 9.924 114.169 9.756C114.529 9.588 114.961 9.504 115.465 9.504C115.645 9.504 115.807 9.516 115.951 9.54C116.107 9.564 116.251 9.6 116.383 9.648L116.023 11.16C115.807 11.076 115.531 11.034 115.195 11.034C114.739 11.034 114.325 11.154 113.953 11.394C113.593 11.622 113.305 11.928 113.089 12.312C112.873 12.696 112.765 13.122 112.765 13.59V18ZM121.277 18.252C120.425 18.252 119.663 18.054 118.991 17.658C118.319 17.25 117.791 16.71 117.407 16.038C117.035 15.354 116.849 14.61 116.849 13.806C116.849 12.99 117.035 12.246 117.407 11.574C117.791 10.902 118.319 10.368 118.991 9.972C119.663 9.564 120.425 9.36 121.277 9.36C122.129 9.36 122.885 9.564 123.545 9.972C124.217 10.368 124.745 10.902 125.129 11.574C125.513 12.246 125.705 12.99 125.705 13.806C125.705 14.61 125.513 15.354 125.129 16.038C124.745 16.71 124.217 17.25 123.545 17.658C122.885 18.054 122.129 18.252 121.277 18.252ZM121.277 16.848C121.865 16.848 122.363 16.704 122.771 16.416C123.191 16.116 123.509 15.732 123.725 15.264C123.953 14.796 124.067 14.31 124.067 13.806C124.067 13.302 123.953 12.816 123.725 12.348C123.509 11.88 123.191 11.502 122.771 11.214C122.351 10.914 121.853 10.764 121.277 10.764C120.701 10.764 120.203 10.914 119.783 11.214C119.363 11.502 119.039 11.88 118.811 12.348C118.595 12.804 118.487 13.29 118.487 13.806C118.487 14.31 118.601 14.796 118.829 15.264C119.057 15.72 119.375 16.098 119.783 16.398C120.203 16.698 120.701 16.848 121.277 16.848ZM127.492 14.652V9.63H129.112V14.544C129.112 15.324 129.274 15.894 129.598 16.254C129.922 16.614 130.39 16.794 131.002 16.794C131.626 16.794 132.112 16.632 132.46 16.308C132.808 15.984 133.054 15.576 133.198 15.084C133.354 14.58 133.432 14.058 133.432 13.518V9.63H135.052V17.154C135.052 17.202 135.052 17.316 135.052 17.496C135.052 17.664 135.058 17.832 135.07 18H133.522L133.468 16.758C133.336 16.95 133.15 17.16 132.91 17.388C132.67 17.604 132.364 17.79 131.992 17.946C131.632 18.102 131.194 18.18 130.678 18.18C129.586 18.18 128.782 17.862 128.266 17.226C127.75 16.59 127.492 15.732 127.492 14.652ZM138.904 21.6H137.302V10.494C137.302 10.386 137.302 10.278 137.302 10.17C137.302 10.05 137.296 9.87 137.284 9.63H138.832L138.886 10.818C139.006 10.662 139.18 10.482 139.408 10.278C139.648 10.062 139.96 9.87 140.344 9.702C140.728 9.534 141.19 9.45 141.73 9.45C142.594 9.45 143.302 9.654 143.854 10.062C144.418 10.47 144.832 11.01 145.096 11.682C145.372 12.354 145.51 13.08 145.51 13.86C145.51 14.616 145.378 15.276 145.114 15.84C144.862 16.392 144.526 16.848 144.106 17.208C143.686 17.556 143.224 17.82 142.72 18C142.216 18.168 141.718 18.252 141.226 18.252C140.662 18.252 140.212 18.192 139.876 18.072C139.54 17.964 139.216 17.844 138.904 17.712V21.6ZM138.904 14.04V16.182C139.096 16.338 139.372 16.488 139.732 16.632C140.092 16.776 140.542 16.848 141.082 16.848C141.634 16.848 142.114 16.722 142.522 16.47C142.942 16.206 143.266 15.846 143.494 15.39C143.734 14.934 143.854 14.424 143.854 13.86C143.854 13.32 143.77 12.822 143.602 12.366C143.446 11.91 143.188 11.544 142.828 11.268C142.468 10.992 141.982 10.854 141.37 10.854C140.806 10.854 140.314 11.016 139.894 11.34C139.486 11.664 139.198 12.126 139.03 12.726C138.982 12.918 138.946 13.128 138.922 13.356C138.91 13.572 138.904 13.8 138.904 14.04ZM152.193 21.6H150.591V10.494C150.591 10.386 150.591 10.278 150.591 10.17C150.591 10.05 150.585 9.87 150.573 9.63H152.121L152.175 10.818C152.295 10.662 152.469 10.482 152.697 10.278C152.937 10.062 153.249 9.87 153.633 9.702C154.017 9.534 154.479 9.45 155.019 9.45C155.883 9.45 156.591 9.654 157.143 10.062C157.707 10.47 158.121 11.01 158.385 11.682C158.661 12.354 158.799 13.08 158.799 13.86C158.799 14.616 158.667 15.276 158.403 15.84C158.151 16.392 157.815 16.848 157.395 17.208C156.975 17.556 156.513 17.82 156.009 18C155.505 18.168 155.007 18.252 154.515 18.252C153.951 18.252 153.501 18.192 153.165 18.072C152.829 17.964 152.505 17.844 152.193 17.712V21.6ZM152.193 14.04V16.182C152.385 16.338 152.661 16.488 153.021 16.632C153.381 16.776 153.831 16.848 154.371 16.848C154.923 16.848 155.403 16.722 155.811 16.47C156.231 16.206 156.555 15.846 156.783 15.39C157.023 14.934 157.143 14.424 157.143 13.86C157.143 13.32 157.059 12.822 156.891 12.366C156.735 11.91 156.477 11.544 156.117 11.268C155.757 10.992 155.271 10.854 154.659 10.854C154.095 10.854 153.603 11.016 153.183 11.34C152.775 11.664 152.487 12.126 152.319 12.726C152.271 12.918 152.235 13.128 152.211 13.356C152.199 13.572 152.193 13.8 152.193 14.04ZM165.902 18L165.866 16.992C165.566 17.4 165.152 17.712 164.624 17.928C164.108 18.132 163.586 18.234 163.058 18.234C162.602 18.234 162.146 18.15 161.69 17.982C161.246 17.814 160.874 17.538 160.574 17.154C160.286 16.77 160.142 16.26 160.142 15.624C160.142 14.724 160.46 14.004 161.096 13.464C161.732 12.924 162.638 12.654 163.814 12.654C164.078 12.654 164.348 12.666 164.624 12.69C164.912 12.702 165.17 12.72 165.398 12.744C165.626 12.756 165.776 12.768 165.848 12.78V12.474C165.848 11.85 165.656 11.406 165.272 11.142C164.9 10.866 164.39 10.728 163.742 10.728C163.118 10.728 162.614 10.818 162.23 10.998C161.858 11.166 161.546 11.34 161.294 11.52L160.538 10.422C160.838 10.182 161.252 9.948 161.78 9.72C162.308 9.492 163.022 9.378 163.922 9.378C164.99 9.378 165.836 9.642 166.46 10.17C167.084 10.686 167.396 11.424 167.396 12.384V17.262C167.396 17.346 167.396 17.448 167.396 17.568C167.396 17.688 167.402 17.832 167.414 18H165.902ZM165.848 14.994V14.04C165.788 14.016 165.65 13.998 165.434 13.986C165.218 13.962 164.972 13.944 164.696 13.932C164.432 13.908 164.174 13.896 163.922 13.896C163.322 13.896 162.86 13.986 162.536 14.166C162.224 14.334 162.008 14.55 161.888 14.814C161.78 15.066 161.726 15.318 161.726 15.57C161.726 16.014 161.882 16.356 162.194 16.596C162.506 16.836 162.938 16.956 163.49 16.956C163.91 16.956 164.294 16.866 164.642 16.686C165.002 16.494 165.29 16.248 165.506 15.948C165.734 15.648 165.848 15.33 165.848 14.994ZM169.97 20.898L170.726 19.71C171.002 19.902 171.338 20.064 171.734 20.196C172.142 20.34 172.634 20.412 173.21 20.412C174.014 20.412 174.614 20.19 175.01 19.746C175.406 19.302 175.604 18.72 175.604 18V16.974C175.496 17.07 175.334 17.208 175.118 17.388C174.902 17.556 174.62 17.712 174.272 17.856C173.936 18 173.516 18.072 173.012 18.072C172.196 18.072 171.5 17.892 170.924 17.532C170.36 17.172 169.928 16.68 169.628 16.056C169.34 15.42 169.196 14.706 169.196 13.914C169.196 13.05 169.394 12.282 169.79 11.61C170.186 10.926 170.738 10.392 171.446 10.008C172.154 9.624 172.976 9.432 173.912 9.432C174.584 9.432 175.214 9.492 175.802 9.612C176.402 9.732 176.882 9.864 177.242 10.008V18C177.242 19.2 176.888 20.136 176.18 20.808C175.472 21.48 174.488 21.816 173.228 21.816C172.376 21.816 171.698 21.72 171.194 21.528C170.69 21.336 170.282 21.126 169.97 20.898ZM175.622 14.58V11.106C175.514 11.07 175.328 11.022 175.064 10.962C174.812 10.89 174.428 10.854 173.912 10.854C173.3 10.854 172.766 10.986 172.31 11.25C171.854 11.502 171.494 11.856 171.23 12.312C170.978 12.768 170.852 13.296 170.852 13.896C170.852 14.4 170.93 14.862 171.086 15.282C171.254 15.702 171.518 16.038 171.878 16.29C172.238 16.542 172.7 16.668 173.264 16.668C173.804 16.668 174.248 16.566 174.596 16.362C174.944 16.158 175.202 15.9 175.37 15.588C175.538 15.264 175.622 14.928 175.622 14.58ZM186.168 15.804L187.086 16.776C186.966 16.92 186.75 17.112 186.438 17.352C186.126 17.58 185.718 17.79 185.214 17.982C184.722 18.162 184.122 18.252 183.414 18.252C182.55 18.252 181.788 18.066 181.128 17.694C180.468 17.31 179.952 16.782 179.58 16.11C179.22 15.426 179.04 14.64 179.04 13.752C179.04 12.936 179.214 12.198 179.562 11.538C179.922 10.878 180.414 10.356 181.038 9.972C181.674 9.576 182.4 9.378 183.216 9.378C184.188 9.378 184.974 9.612 185.574 10.08C186.174 10.548 186.612 11.154 186.888 11.898C187.164 12.642 187.302 13.44 187.302 14.292H180.696C180.708 14.784 180.84 15.228 181.092 15.624C181.344 16.008 181.674 16.314 182.082 16.542C182.502 16.758 182.952 16.866 183.432 16.866C184.14 16.866 184.722 16.746 185.178 16.506C185.646 16.266 185.976 16.032 186.168 15.804ZM180.696 13.086H185.628C185.58 12.438 185.352 11.886 184.944 11.43C184.536 10.974 183.96 10.746 183.216 10.746C182.7 10.746 182.256 10.86 181.884 11.088C181.512 11.316 181.224 11.61 181.02 11.97C180.828 12.318 180.72 12.69 180.696 13.086Z" fill="black"/>
<path fill-rule="evenodd" clip-rule="evenodd" d="M18.6946 7.93136C19.1467 8.45305 19.0904 9.2425 18.5687 9.69463L11.0687 16.1946C10.5731 16.6241 9.82984 16.5976 9.36612 16.1339L5.36612 12.1339C4.87796 11.6457 4.87796 10.8543 5.36612 10.3661C5.85427 9.87798 6.64573 9.87798 7.13388 10.3661L10.3109 13.5431L16.9313 7.80541C17.453 7.35327 18.2425 7.40966 18.6946 7.93136Z" fill="black"/>
</svg>
