<svg width="239" height="24" viewBox="0 0 239 24" fill="none" xmlns="http://www.w3.org/2000/svg">
<path d="M33.278 13.428V5.994H35.006V13.014C35.006 13.734 35.096 14.37 35.276 14.922C35.456 15.474 35.768 15.906 36.212 16.218C36.656 16.518 37.274 16.668 38.066 16.668C38.858 16.668 39.47 16.518 39.902 16.218C40.346 15.906 40.658 15.474 40.838 14.922C41.018 14.37 41.108 13.734 41.108 13.014V5.994H42.836V13.428C42.836 14.34 42.662 15.168 42.314 15.912C41.978 16.644 41.456 17.226 40.748 17.658C40.052 18.09 39.158 18.306 38.066 18.306C36.974 18.306 36.074 18.09 35.366 17.658C34.658 17.226 34.13 16.644 33.782 15.912C33.446 15.168 33.278 14.34 33.278 13.428ZM46.8473 18H45.2273V10.494C45.2273 10.386 45.2273 10.278 45.2273 10.17C45.2273 10.05 45.2213 9.87 45.2093 9.63H46.7573L46.8113 10.89C46.9553 10.686 47.1473 10.476 47.3873 10.26C47.6273 10.032 47.9273 9.84 48.2873 9.684C48.6593 9.516 49.1033 9.432 49.6193 9.432C50.7113 9.432 51.5213 9.756 52.0493 10.404C52.5773 11.04 52.8413 11.898 52.8413 12.978V18H51.2213V13.104C51.2213 12.324 51.0473 11.754 50.6993 11.394C50.3633 11.022 49.8953 10.836 49.2953 10.836C48.6833 10.836 48.1973 10.998 47.8373 11.322C47.4773 11.634 47.2193 12.042 47.0633 12.546C46.9193 13.05 46.8473 13.572 46.8473 14.112V18ZM55.0003 18V5.994H56.6203V18H55.0003ZM58.7968 8.136V6.318H60.6148V8.136H58.7968ZM58.9048 18V9.63H60.5248V18H58.9048ZM64.443 18H62.823V10.494C62.823 10.386 62.823 10.278 62.823 10.17C62.823 10.05 62.817 9.87 62.805 9.63H64.353L64.407 10.89C64.539 10.686 64.719 10.476 64.947 10.26C65.175 10.032 65.469 9.84 65.829 9.684C66.189 9.516 66.621 9.432 67.125 9.432C67.773 9.432 68.307 9.564 68.727 9.828C69.159 10.08 69.495 10.452 69.735 10.944C70.071 10.548 70.485 10.2 70.977 9.9C71.469 9.588 72.069 9.432 72.777 9.432C73.857 9.432 74.655 9.756 75.171 10.404C75.687 11.04 75.945 11.898 75.945 12.978V18H74.325V13.104C74.325 11.592 73.725 10.836 72.525 10.836C72.081 10.836 71.685 10.956 71.337 11.196C70.989 11.424 70.713 11.73 70.509 12.114C70.305 12.486 70.203 12.9 70.203 13.356V18H68.583V13.104C68.583 12.324 68.427 11.754 68.115 11.394C67.803 11.022 67.365 10.836 66.801 10.836C66.213 10.836 65.745 10.998 65.397 11.322C65.049 11.646 64.803 12.06 64.659 12.564C64.515 13.056 64.443 13.572 64.443 14.112V18ZM78.08 8.136V6.318H79.898V8.136H78.08ZM78.188 18V9.63H79.808V18H78.188ZM82.8262 15.264V10.98H81.3142V9.63H82.8262V6.894H84.4462V9.63H86.8942V10.98H84.4462V15.102C84.4462 15.774 84.5482 16.236 84.7522 16.488C84.9682 16.74 85.2682 16.866 85.6522 16.866C85.9642 16.866 86.2222 16.818 86.4262 16.722C86.6422 16.626 86.8462 16.482 87.0382 16.29L87.7762 17.28C87.4282 17.616 87.0682 17.856 86.6962 18C86.3362 18.156 85.9042 18.234 85.4002 18.234C84.5242 18.234 83.8762 17.994 83.4562 17.514C83.0362 17.022 82.8262 16.272 82.8262 15.264ZM95.1835 15.804L96.1015 16.776C95.9815 16.92 95.7655 17.112 95.4535 17.352C95.1415 17.58 94.7335 17.79 94.2295 17.982C93.7375 18.162 93.1375 18.252 92.4295 18.252C91.5655 18.252 90.8035 18.066 90.1435 17.694C89.4835 17.31 88.9675 16.782 88.5955 16.11C88.2355 15.426 88.0555 14.64 88.0555 13.752C88.0555 12.936 88.2295 12.198 88.5775 11.538C88.9375 10.878 89.4295 10.356 90.0535 9.972C90.6895 9.576 91.4155 9.378 92.2315 9.378C93.2035 9.378 93.9895 9.612 94.5895 10.08C95.1895 10.548 95.6275 11.154 95.9035 11.898C96.1795 12.642 96.3175 13.44 96.3175 14.292H89.7115C89.7235 14.784 89.8555 15.228 90.1075 15.624C90.3595 16.008 90.6895 16.314 91.0975 16.542C91.5175 16.758 91.9675 16.866 92.4475 16.866C93.1555 16.866 93.7375 16.746 94.1935 16.506C94.6615 16.266 94.9915 16.032 95.1835 15.804ZM89.7115 13.086H94.6435C94.5955 12.438 94.3675 11.886 93.9595 11.43C93.5515 10.974 92.9755 10.746 92.2315 10.746C91.7155 10.746 91.2715 10.86 90.8995 11.088C90.5275 11.316 90.2395 11.61 90.0355 11.97C89.8435 12.318 89.7355 12.69 89.7115 13.086ZM104.204 18L104.15 16.938C104.066 17.034 103.91 17.19 103.682 17.406C103.466 17.622 103.172 17.82 102.8 18C102.428 18.168 101.972 18.252 101.432 18.252C100.724 18.252 100.088 18.078 99.5239 17.73C98.9599 17.37 98.5159 16.866 98.1919 16.218C97.8679 15.57 97.7059 14.808 97.7059 13.932C97.7059 13.14 97.8379 12.462 98.1019 11.898C98.3779 11.322 98.7319 10.854 99.1639 10.494C99.5959 10.134 100.058 9.87 100.55 9.702C101.054 9.522 101.528 9.432 101.972 9.432C102.428 9.432 102.818 9.48 103.142 9.576C103.478 9.672 103.814 9.804 104.15 9.972V5.994H105.77V17.154C105.77 17.202 105.77 17.316 105.77 17.496C105.77 17.664 105.776 17.832 105.788 18H104.204ZM104.15 14.472V11.484C103.934 11.304 103.658 11.154 103.322 11.034C102.986 10.914 102.578 10.854 102.098 10.854C101.318 10.854 100.664 11.13 100.136 11.682C99.6199 12.234 99.3619 12.99 99.3619 13.95C99.3619 14.478 99.4459 14.964 99.6139 15.408C99.7939 15.852 100.064 16.206 100.424 16.47C100.784 16.722 101.24 16.848 101.792 16.848C102.356 16.848 102.806 16.722 103.142 16.47C103.49 16.206 103.742 15.888 103.898 15.516C104.066 15.144 104.15 14.796 104.15 14.472ZM112.87 21.6H111.268V10.494C111.268 10.386 111.268 10.278 111.268 10.17C111.268 10.05 111.262 9.87 111.25 9.63H112.798L112.852 10.818C112.972 10.662 113.146 10.482 113.374 10.278C113.614 10.062 113.926 9.87 114.31 9.702C114.694 9.534 115.156 9.45 115.696 9.45C116.56 9.45 117.268 9.654 117.82 10.062C118.384 10.47 118.798 11.01 119.062 11.682C119.338 12.354 119.476 13.08 119.476 13.86C119.476 14.616 119.344 15.276 119.08 15.84C118.828 16.392 118.492 16.848 118.072 17.208C117.652 17.556 117.19 17.82 116.686 18C116.182 18.168 115.684 18.252 115.192 18.252C114.628 18.252 114.178 18.192 113.842 18.072C113.506 17.964 113.182 17.844 112.87 17.712V21.6ZM112.87 14.04V16.182C113.062 16.338 113.338 16.488 113.698 16.632C114.058 16.776 114.508 16.848 115.048 16.848C115.6 16.848 116.08 16.722 116.488 16.47C116.908 16.206 117.232 15.846 117.46 15.39C117.7 14.934 117.82 14.424 117.82 13.86C117.82 13.32 117.736 12.822 117.568 12.366C117.412 11.91 117.154 11.544 116.794 11.268C116.434 10.992 115.948 10.854 115.336 10.854C114.772 10.854 114.28 11.016 113.86 11.34C113.452 11.664 113.164 12.126 112.996 12.726C112.948 12.918 112.912 13.128 112.888 13.356C112.876 13.572 112.87 13.8 112.87 14.04ZM126.579 18L126.543 16.992C126.243 17.4 125.829 17.712 125.301 17.928C124.785 18.132 124.263 18.234 123.735 18.234C123.279 18.234 122.823 18.15 122.367 17.982C121.923 17.814 121.551 17.538 121.251 17.154C120.963 16.77 120.819 16.26 120.819 15.624C120.819 14.724 121.137 14.004 121.773 13.464C122.409 12.924 123.315 12.654 124.491 12.654C124.755 12.654 125.025 12.666 125.301 12.69C125.589 12.702 125.847 12.72 126.075 12.744C126.303 12.756 126.453 12.768 126.525 12.78V12.474C126.525 11.85 126.333 11.406 125.949 11.142C125.577 10.866 125.067 10.728 124.419 10.728C123.795 10.728 123.291 10.818 122.907 10.998C122.535 11.166 122.223 11.34 121.971 11.52L121.215 10.422C121.515 10.182 121.929 9.948 122.457 9.72C122.985 9.492 123.699 9.378 124.599 9.378C125.667 9.378 126.513 9.642 127.137 10.17C127.761 10.686 128.073 11.424 128.073 12.384V17.262C128.073 17.346 128.073 17.448 128.073 17.568C128.073 17.688 128.079 17.832 128.091 18H126.579ZM126.525 14.994V14.04C126.465 14.016 126.327 13.998 126.111 13.986C125.895 13.962 125.649 13.944 125.373 13.932C125.109 13.908 124.851 13.896 124.599 13.896C123.999 13.896 123.537 13.986 123.213 14.166C122.901 14.334 122.685 14.55 122.565 14.814C122.457 15.066 122.403 15.318 122.403 15.57C122.403 16.014 122.559 16.356 122.871 16.596C123.183 16.836 123.615 16.956 124.167 16.956C124.587 16.956 124.971 16.866 125.319 16.686C125.679 16.494 125.967 16.248 126.183 15.948C126.411 15.648 126.525 15.33 126.525 14.994ZM130.648 20.898L131.404 19.71C131.68 19.902 132.016 20.064 132.412 20.196C132.82 20.34 133.312 20.412 133.888 20.412C134.692 20.412 135.292 20.19 135.688 19.746C136.084 19.302 136.282 18.72 136.282 18V16.974C136.174 17.07 136.012 17.208 135.796 17.388C135.58 17.556 135.298 17.712 134.95 17.856C134.614 18 134.194 18.072 133.69 18.072C132.874 18.072 132.178 17.892 131.602 17.532C131.038 17.172 130.606 16.68 130.306 16.056C130.018 15.42 129.874 14.706 129.874 13.914C129.874 13.05 130.072 12.282 130.468 11.61C130.864 10.926 131.416 10.392 132.124 10.008C132.832 9.624 133.654 9.432 134.59 9.432C135.262 9.432 135.892 9.492 136.48 9.612C137.08 9.732 137.56 9.864 137.92 10.008V18C137.92 19.2 137.566 20.136 136.858 20.808C136.15 21.48 135.166 21.816 133.906 21.816C133.054 21.816 132.376 21.72 131.872 21.528C131.368 21.336 130.96 21.126 130.648 20.898ZM136.3 14.58V11.106C136.192 11.07 136.006 11.022 135.742 10.962C135.49 10.89 135.106 10.854 134.59 10.854C133.978 10.854 133.444 10.986 132.988 11.25C132.532 11.502 132.172 11.856 131.908 12.312C131.656 12.768 131.53 13.296 131.53 13.896C131.53 14.4 131.608 14.862 131.764 15.282C131.932 15.702 132.196 16.038 132.556 16.29C132.916 16.542 133.378 16.668 133.942 16.668C134.482 16.668 134.926 16.566 135.274 16.362C135.622 16.158 135.88 15.9 136.048 15.588C136.216 15.264 136.3 14.928 136.3 14.58ZM146.846 15.804L147.764 16.776C147.644 16.92 147.428 17.112 147.116 17.352C146.804 17.58 146.396 17.79 145.892 17.982C145.4 18.162 144.8 18.252 144.092 18.252C143.228 18.252 142.466 18.066 141.806 17.694C141.146 17.31 140.63 16.782 140.258 16.11C139.898 15.426 139.718 14.64 139.718 13.752C139.718 12.936 139.892 12.198 140.24 11.538C140.6 10.878 141.092 10.356 141.716 9.972C142.352 9.576 143.078 9.378 143.894 9.378C144.866 9.378 145.652 9.612 146.252 10.08C146.852 10.548 147.29 11.154 147.566 11.898C147.842 12.642 147.98 13.44 147.98 14.292H141.374C141.386 14.784 141.518 15.228 141.77 15.624C142.022 16.008 142.352 16.314 142.76 16.542C143.18 16.758 143.63 16.866 144.11 16.866C144.818 16.866 145.4 16.746 145.856 16.506C146.324 16.266 146.654 16.032 146.846 15.804ZM141.374 13.086H146.306C146.258 12.438 146.03 11.886 145.622 11.43C145.214 10.974 144.638 10.746 143.894 10.746C143.378 10.746 142.934 10.86 142.562 11.088C142.19 11.316 141.902 11.61 141.698 11.97C141.506 12.318 141.398 12.69 141.374 13.086ZM159.748 15.804L160.666 16.776C160.546 16.92 160.33 17.112 160.018 17.352C159.706 17.58 159.298 17.79 158.794 17.982C158.302 18.162 157.702 18.252 156.994 18.252C156.13 18.252 155.368 18.066 154.708 17.694C154.048 17.31 153.532 16.782 153.16 16.11C152.8 15.426 152.62 14.64 152.62 13.752C152.62 12.936 152.794 12.198 153.142 11.538C153.502 10.878 153.994 10.356 154.618 9.972C155.254 9.576 155.98 9.378 156.796 9.378C157.768 9.378 158.554 9.612 159.154 10.08C159.754 10.548 160.192 11.154 160.468 11.898C160.744 12.642 160.882 13.44 160.882 14.292H154.276C154.288 14.784 154.42 15.228 154.672 15.624C154.924 16.008 155.254 16.314 155.662 16.542C156.082 16.758 156.532 16.866 157.012 16.866C157.72 16.866 158.302 16.746 158.758 16.506C159.226 16.266 159.556 16.032 159.748 15.804ZM154.276 13.086H159.208C159.16 12.438 158.932 11.886 158.524 11.43C158.116 10.974 157.54 10.746 156.796 10.746C156.28 10.746 155.836 10.86 155.464 11.088C155.092 11.316 154.804 11.61 154.6 11.97C154.408 12.318 154.3 12.69 154.276 13.086ZM167.958 18L167.922 16.992C167.622 17.4 167.208 17.712 166.68 17.928C166.164 18.132 165.642 18.234 165.114 18.234C164.658 18.234 164.202 18.15 163.746 17.982C163.302 17.814 162.93 17.538 162.63 17.154C162.342 16.77 162.198 16.26 162.198 15.624C162.198 14.724 162.516 14.004 163.152 13.464C163.788 12.924 164.694 12.654 165.87 12.654C166.134 12.654 166.404 12.666 166.68 12.69C166.968 12.702 167.226 12.72 167.454 12.744C167.682 12.756 167.832 12.768 167.904 12.78V12.474C167.904 11.85 167.712 11.406 167.328 11.142C166.956 10.866 166.446 10.728 165.798 10.728C165.174 10.728 164.67 10.818 164.286 10.998C163.914 11.166 163.602 11.34 163.35 11.52L162.594 10.422C162.894 10.182 163.308 9.948 163.836 9.72C164.364 9.492 165.078 9.378 165.978 9.378C167.046 9.378 167.892 9.642 168.516 10.17C169.14 10.686 169.452 11.424 169.452 12.384V17.262C169.452 17.346 169.452 17.448 169.452 17.568C169.452 17.688 169.458 17.832 169.47 18H167.958ZM167.904 14.994V14.04C167.844 14.016 167.706 13.998 167.49 13.986C167.274 13.962 167.028 13.944 166.752 13.932C166.488 13.908 166.23 13.896 165.978 13.896C165.378 13.896 164.916 13.986 164.592 14.166C164.28 14.334 164.064 14.55 163.944 14.814C163.836 15.066 163.782 15.318 163.782 15.57C163.782 16.014 163.938 16.356 164.25 16.596C164.562 16.836 164.994 16.956 165.546 16.956C165.966 16.956 166.35 16.866 166.698 16.686C167.058 16.494 167.346 16.248 167.562 15.948C167.79 15.648 167.904 15.33 167.904 14.994ZM177.949 15.804L178.939 16.848C178.567 17.268 178.105 17.61 177.553 17.874C177.001 18.126 176.371 18.252 175.663 18.252C174.763 18.252 173.983 18.06 173.323 17.676C172.675 17.292 172.171 16.77 171.811 16.11C171.451 15.438 171.271 14.67 171.271 13.806C171.271 12.99 171.457 12.246 171.829 11.574C172.201 10.902 172.717 10.368 173.377 9.972C174.049 9.564 174.811 9.36 175.663 9.36C176.371 9.36 176.995 9.486 177.535 9.738C178.075 9.99 178.537 10.332 178.921 10.764L177.859 11.79C177.607 11.478 177.301 11.232 176.941 11.052C176.581 10.872 176.155 10.782 175.663 10.782C175.087 10.782 174.589 10.926 174.169 11.214C173.761 11.49 173.449 11.856 173.233 12.312C173.017 12.768 172.909 13.266 172.909 13.806C172.909 14.322 173.017 14.814 173.233 15.282C173.461 15.738 173.779 16.11 174.187 16.398C174.595 16.686 175.087 16.83 175.663 16.83C176.155 16.83 176.593 16.74 176.977 16.56C177.373 16.368 177.697 16.116 177.949 15.804ZM180.526 18V5.994H182.128V10.872C182.272 10.668 182.458 10.458 182.686 10.242C182.926 10.014 183.226 9.822 183.586 9.666C183.958 9.51 184.402 9.432 184.918 9.432C186.01 9.432 186.82 9.756 187.348 10.404C187.876 11.04 188.14 11.898 188.14 12.978V18H186.52V13.104C186.52 12.324 186.346 11.754 185.998 11.394C185.662 11.022 185.194 10.836 184.594 10.836C183.982 10.836 183.496 10.998 183.136 11.322C182.776 11.634 182.518 12.042 182.362 12.546C182.218 13.05 182.146 13.572 182.146 14.112V18H180.526ZM193.929 20.898L194.685 19.71C194.961 19.902 195.297 20.064 195.693 20.196C196.101 20.34 196.593 20.412 197.169 20.412C197.973 20.412 198.573 20.19 198.969 19.746C199.365 19.302 199.563 18.72 199.563 18V16.974C199.455 17.07 199.293 17.208 199.077 17.388C198.861 17.556 198.579 17.712 198.231 17.856C197.895 18 197.475 18.072 196.971 18.072C196.155 18.072 195.459 17.892 194.883 17.532C194.319 17.172 193.887 16.68 193.587 16.056C193.299 15.42 193.155 14.706 193.155 13.914C193.155 13.05 193.353 12.282 193.749 11.61C194.145 10.926 194.697 10.392 195.405 10.008C196.113 9.624 196.935 9.432 197.871 9.432C198.543 9.432 199.173 9.492 199.761 9.612C200.361 9.732 200.841 9.864 201.201 10.008V18C201.201 19.2 200.847 20.136 200.139 20.808C199.431 21.48 198.447 21.816 197.187 21.816C196.335 21.816 195.657 21.72 195.153 21.528C194.649 21.336 194.241 21.126 193.929 20.898ZM199.581 14.58V11.106C199.473 11.07 199.287 11.022 199.023 10.962C198.771 10.89 198.387 10.854 197.871 10.854C197.259 10.854 196.725 10.986 196.269 11.25C195.813 11.502 195.453 11.856 195.189 12.312C194.937 12.768 194.811 13.296 194.811 13.896C194.811 14.4 194.889 14.862 195.045 15.282C195.213 15.702 195.477 16.038 195.837 16.29C196.197 16.542 196.659 16.668 197.223 16.668C197.763 16.668 198.207 16.566 198.555 16.362C198.903 16.158 199.161 15.9 199.329 15.588C199.497 15.264 199.581 14.928 199.581 14.58ZM205.033 18H203.413V10.44C203.413 10.356 203.413 10.26 203.413 10.152C203.413 10.044 203.407 9.87 203.395 9.63H204.943L204.997 10.98C205.129 10.788 205.309 10.578 205.537 10.35C205.777 10.122 206.077 9.924 206.437 9.756C206.797 9.588 207.229 9.504 207.733 9.504C207.913 9.504 208.075 9.516 208.219 9.54C208.375 9.564 208.519 9.6 208.651 9.648L208.291 11.16C208.075 11.076 207.799 11.034 207.463 11.034C207.007 11.034 206.593 11.154 206.221 11.394C205.861 11.622 205.573 11.928 205.357 12.312C205.141 12.696 205.033 13.122 205.033 13.59V18ZM213.544 18.252C212.692 18.252 211.93 18.054 211.258 17.658C210.586 17.25 210.058 16.71 209.674 16.038C209.302 15.354 209.116 14.61 209.116 13.806C209.116 12.99 209.302 12.246 209.674 11.574C210.058 10.902 210.586 10.368 211.258 9.972C211.93 9.564 212.692 9.36 213.544 9.36C214.396 9.36 215.152 9.564 215.812 9.972C216.484 10.368 217.012 10.902 217.396 11.574C217.78 12.246 217.972 12.99 217.972 13.806C217.972 14.61 217.78 15.354 217.396 16.038C217.012 16.71 216.484 17.25 215.812 17.658C215.152 18.054 214.396 18.252 213.544 18.252ZM213.544 16.848C214.132 16.848 214.63 16.704 215.038 16.416C215.458 16.116 215.776 15.732 215.992 15.264C216.22 14.796 216.334 14.31 216.334 13.806C216.334 13.302 216.22 12.816 215.992 12.348C215.776 11.88 215.458 11.502 215.038 11.214C214.618 10.914 214.12 10.764 213.544 10.764C212.968 10.764 212.47 10.914 212.05 11.214C211.63 11.502 211.306 11.88 211.078 12.348C210.862 12.804 210.754 13.29 210.754 13.806C210.754 14.31 210.868 14.796 211.096 15.264C211.324 15.72 211.642 16.098 212.05 16.398C212.47 16.698 212.968 16.848 213.544 16.848ZM219.759 14.652V9.63H221.379V14.544C221.379 15.324 221.541 15.894 221.865 16.254C222.189 16.614 222.657 16.794 223.269 16.794C223.893 16.794 224.379 16.632 224.727 16.308C225.075 15.984 225.321 15.576 225.465 15.084C225.621 14.58 225.699 14.058 225.699 13.518V9.63H227.319V17.154C227.319 17.202 227.319 17.316 227.319 17.496C227.319 17.664 227.325 17.832 227.337 18H225.789L225.735 16.758C225.603 16.95 225.417 17.16 225.177 17.388C224.937 17.604 224.631 17.79 224.259 17.946C223.899 18.102 223.461 18.18 222.945 18.18C221.853 18.18 221.049 17.862 220.533 17.226C220.017 16.59 219.759 15.732 219.759 14.652ZM231.171 21.6H229.569V10.494C229.569 10.386 229.569 10.278 229.569 10.17C229.569 10.05 229.563 9.87 229.551 9.63H231.099L231.153 10.818C231.273 10.662 231.447 10.482 231.675 10.278C231.915 10.062 232.227 9.87 232.611 9.702C232.995 9.534 233.457 9.45 233.997 9.45C234.861 9.45 235.569 9.654 236.121 10.062C236.685 10.47 237.099 11.01 237.363 11.682C237.639 12.354 237.777 13.08 237.777 13.86C237.777 14.616 237.645 15.276 237.381 15.84C237.129 16.392 236.793 16.848 236.373 17.208C235.953 17.556 235.491 17.82 234.987 18C234.483 18.168 233.985 18.252 233.493 18.252C232.929 18.252 232.479 18.192 232.143 18.072C231.807 17.964 231.483 17.844 231.171 17.712V21.6ZM231.171 14.04V16.182C231.363 16.338 231.639 16.488 231.999 16.632C232.359 16.776 232.809 16.848 233.349 16.848C233.901 16.848 234.381 16.722 234.789 16.47C235.209 16.206 235.533 15.846 235.761 15.39C236.001 14.934 236.121 14.424 236.121 13.86C236.121 13.32 236.037 12.822 235.869 12.366C235.713 11.91 235.455 11.544 235.095 11.268C234.735 10.992 234.249 10.854 233.637 10.854C233.073 10.854 232.581 11.016 232.161 11.34C231.753 11.664 231.465 12.126 231.297 12.726C231.249 12.918 231.213 13.128 231.189 13.356C231.177 13.572 231.171 13.8 231.171 14.04Z" fill="black"/>
<path fill-rule="evenodd" clip-rule="evenodd" d="M18.6946 7.93136C19.1467 8.45305 19.0904 9.2425 18.5687 9.69463L11.0687 16.1946C10.5731 16.6241 9.82984 16.5976 9.36612 16.1339L5.36612 12.1339C4.87796 11.6457 4.87796 10.8543 5.36612 10.3661C5.85427 9.87798 6.64573 9.87798 7.13388 10.3661L10.3109 13.5431L16.9313 7.80541C17.453 7.35327 18.2425 7.40966 18.6946 7.93136Z" fill="black"/>
</svg>
