<svg width="254" height="24" viewBox="0 0 254 24" fill="none" xmlns="http://www.w3.org/2000/svg">
<path d="M42.368 14.886L43.574 15.894C43.394 16.17 43.094 16.5 42.674 16.884C42.254 17.256 41.726 17.586 41.09 17.874C40.454 18.15 39.716 18.288 38.876 18.288C37.7 18.288 36.656 18.018 35.744 17.478C34.844 16.926 34.142 16.182 33.638 15.246C33.134 14.298 32.882 13.23 32.882 12.042C32.882 11.166 33.026 10.35 33.314 9.594C33.602 8.826 34.01 8.154 34.538 7.578C35.078 6.99 35.714 6.534 36.446 6.21C37.19 5.874 38.012 5.706 38.912 5.706C39.764 5.706 40.496 5.838 41.108 6.102C41.72 6.354 42.224 6.666 42.62 7.038C43.028 7.398 43.346 7.746 43.574 8.082L42.35 9.126C42.158 8.85 41.912 8.568 41.612 8.28C41.324 7.992 40.958 7.752 40.514 7.56C40.082 7.356 39.554 7.254 38.93 7.254C38.054 7.254 37.298 7.47 36.662 7.902C36.038 8.334 35.552 8.91 35.204 9.63C34.868 10.338 34.7 11.13 34.7 12.006C34.7 12.87 34.868 13.656 35.204 14.364C35.552 15.072 36.038 15.636 36.662 16.056C37.286 16.464 38.024 16.668 38.876 16.668C39.596 16.668 40.184 16.554 40.64 16.326C41.096 16.098 41.456 15.846 41.72 15.57C41.996 15.282 42.212 15.054 42.368 14.886ZM45.2612 14.652V9.63H46.8812V14.544C46.8812 15.324 47.0432 15.894 47.3672 16.254C47.6912 16.614 48.1592 16.794 48.7712 16.794C49.3952 16.794 49.8812 16.632 50.2292 16.308C50.5772 15.984 50.8232 15.576 50.9672 15.084C51.1232 14.58 51.2012 14.058 51.2012 13.518V9.63H52.8212V17.154C52.8212 17.202 52.8212 17.316 52.8212 17.496C52.8212 17.664 52.8272 17.832 52.8392 18H51.2912L51.2372 16.758C51.1052 16.95 50.9192 17.16 50.6792 17.388C50.4392 17.604 50.1332 17.79 49.7612 17.946C49.4012 18.102 48.9632 18.18 48.4472 18.18C47.3552 18.18 46.5512 17.862 46.0352 17.226C45.5192 16.59 45.2612 15.732 45.2612 14.652ZM54.6211 16.974L55.6111 15.894C55.9111 16.194 56.2711 16.434 56.6911 16.614C57.1111 16.794 57.5971 16.884 58.1491 16.884C58.6891 16.884 59.1391 16.8 59.4991 16.632C59.8591 16.452 60.0391 16.176 60.0391 15.804C60.0391 15.54 59.9671 15.33 59.8231 15.174C59.6791 15.018 59.4331 14.88 59.0851 14.76C58.7371 14.628 58.2571 14.49 57.6451 14.346C57.2131 14.238 56.7931 14.094 56.3851 13.914C55.9771 13.722 55.6411 13.464 55.3771 13.14C55.1131 12.804 54.9811 12.372 54.9811 11.844C54.9811 11.304 55.1371 10.848 55.4491 10.476C55.7731 10.104 56.1871 9.828 56.6911 9.648C57.1951 9.456 57.7231 9.36 58.2751 9.36C58.9831 9.36 59.5951 9.456 60.1111 9.648C60.6271 9.828 61.0711 10.086 61.4431 10.422L60.5611 11.538C60.3091 11.31 59.9911 11.118 59.6071 10.962C59.2351 10.806 58.7971 10.728 58.2931 10.728C57.7771 10.728 57.3631 10.812 57.0511 10.98C56.7391 11.148 56.5831 11.424 56.5831 11.808C56.5831 12.168 56.7931 12.438 57.2131 12.618C57.6331 12.786 58.1731 12.948 58.8331 13.104C59.3611 13.224 59.8351 13.386 60.2551 13.59C60.6871 13.782 61.0291 14.046 61.2811 14.382C61.5451 14.718 61.6771 15.156 61.6771 15.696C61.6771 16.248 61.5091 16.716 61.1731 17.1C60.8491 17.472 60.4231 17.76 59.8951 17.964C59.3671 18.156 58.7971 18.252 58.1851 18.252C56.6011 18.252 55.4131 17.826 54.6211 16.974ZM64.2813 15.264V10.98H62.7693V9.63H64.2813V6.894H65.9013V9.63H68.3493V10.98H65.9013V15.102C65.9013 15.774 66.0033 16.236 66.2073 16.488C66.4233 16.74 66.7233 16.866 67.1073 16.866C67.4193 16.866 67.6773 16.818 67.8813 16.722C68.0973 16.626 68.3013 16.482 68.4933 16.29L69.2313 17.28C68.8833 17.616 68.5233 17.856 68.1513 18C67.7913 18.156 67.3593 18.234 66.8553 18.234C65.9793 18.234 65.3313 17.994 64.9113 17.514C64.4913 17.022 64.2813 16.272 64.2813 15.264ZM73.9566 18.252C73.1046 18.252 72.3426 18.054 71.6706 17.658C70.9986 17.25 70.4706 16.71 70.0866 16.038C69.7146 15.354 69.5286 14.61 69.5286 13.806C69.5286 12.99 69.7146 12.246 70.0866 11.574C70.4706 10.902 70.9986 10.368 71.6706 9.972C72.3426 9.564 73.1046 9.36 73.9566 9.36C74.8086 9.36 75.5646 9.564 76.2246 9.972C76.8966 10.368 77.4246 10.902 77.8086 11.574C78.1926 12.246 78.3846 12.99 78.3846 13.806C78.3846 14.61 78.1926 15.354 77.8086 16.038C77.4246 16.71 76.8966 17.25 76.2246 17.658C75.5646 18.054 74.8086 18.252 73.9566 18.252ZM73.9566 16.848C74.5446 16.848 75.0426 16.704 75.4506 16.416C75.8706 16.116 76.1886 15.732 76.4046 15.264C76.6326 14.796 76.7466 14.31 76.7466 13.806C76.7466 13.302 76.6326 12.816 76.4046 12.348C76.1886 11.88 75.8706 11.502 75.4506 11.214C75.0306 10.914 74.5326 10.764 73.9566 10.764C73.3806 10.764 72.8826 10.914 72.4626 11.214C72.0426 11.502 71.7186 11.88 71.4906 12.348C71.2746 12.804 71.1666 13.29 71.1666 13.806C71.1666 14.31 71.2806 14.796 71.5086 15.264C71.7366 15.72 72.0546 16.098 72.4626 16.398C72.8826 16.698 73.3806 16.848 73.9566 16.848ZM81.8454 18H80.2254V10.494C80.2254 10.386 80.2254 10.278 80.2254 10.17C80.2254 10.05 80.2194 9.87 80.2074 9.63H81.7554L81.8094 10.89C81.9414 10.686 82.1214 10.476 82.3494 10.26C82.5774 10.032 82.8714 9.84 83.2314 9.684C83.5914 9.516 84.0234 9.432 84.5274 9.432C85.1754 9.432 85.7094 9.564 86.1294 9.828C86.5614 10.08 86.8974 10.452 87.1374 10.944C87.4734 10.548 87.8874 10.2 88.3794 9.9C88.8714 9.588 89.4714 9.432 90.1794 9.432C91.2594 9.432 92.0574 9.756 92.5734 10.404C93.0894 11.04 93.3474 11.898 93.3474 12.978V18H91.7274V13.104C91.7274 11.592 91.1274 10.836 89.9274 10.836C89.4834 10.836 89.0874 10.956 88.7394 11.196C88.3914 11.424 88.1154 11.73 87.9114 12.114C87.7074 12.486 87.6054 12.9 87.6054 13.356V18H85.9854V13.104C85.9854 12.324 85.8294 11.754 85.5174 11.394C85.2054 11.022 84.7674 10.836 84.2034 10.836C83.6154 10.836 83.1474 10.998 82.7994 11.322C82.4514 11.646 82.2054 12.06 82.0614 12.564C81.9174 13.056 81.8454 13.572 81.8454 14.112V18ZM95.4823 8.136V6.318H97.3003V8.136H95.4823ZM95.5903 18V9.63H97.2103V18H95.5903ZM99.3286 18V16.722L104.117 10.998H99.4906V9.63H106.097V10.926L101.219 16.65H106.151V18H99.3286ZM114.15 15.804L115.068 16.776C114.948 16.92 114.732 17.112 114.42 17.352C114.108 17.58 113.7 17.79 113.196 17.982C112.704 18.162 112.104 18.252 111.396 18.252C110.532 18.252 109.77 18.066 109.11 17.694C108.45 17.31 107.934 16.782 107.562 16.11C107.202 15.426 107.022 14.64 107.022 13.752C107.022 12.936 107.196 12.198 107.544 11.538C107.904 10.878 108.396 10.356 109.02 9.972C109.656 9.576 110.382 9.378 111.198 9.378C112.17 9.378 112.956 9.612 113.556 10.08C114.156 10.548 114.594 11.154 114.87 11.898C115.146 12.642 115.284 13.44 115.284 14.292H108.678C108.69 14.784 108.822 15.228 109.074 15.624C109.326 16.008 109.656 16.314 110.064 16.542C110.484 16.758 110.934 16.866 111.414 16.866C112.122 16.866 112.704 16.746 113.16 16.506C113.628 16.266 113.958 16.032 114.15 15.804ZM108.678 13.086H113.61C113.562 12.438 113.334 11.886 112.926 11.43C112.518 10.974 111.942 10.746 111.198 10.746C110.682 10.746 110.238 10.86 109.866 11.088C109.494 11.316 109.206 11.61 109.002 11.97C108.81 12.318 108.702 12.69 108.678 13.086ZM120.699 20.898L121.455 19.71C121.731 19.902 122.067 20.064 122.463 20.196C122.871 20.34 123.363 20.412 123.939 20.412C124.743 20.412 125.343 20.19 125.739 19.746C126.135 19.302 126.333 18.72 126.333 18V16.974C126.225 17.07 126.063 17.208 125.847 17.388C125.631 17.556 125.349 17.712 125.001 17.856C124.665 18 124.245 18.072 123.741 18.072C122.925 18.072 122.229 17.892 121.653 17.532C121.089 17.172 120.657 16.68 120.357 16.056C120.069 15.42 119.925 14.706 119.925 13.914C119.925 13.05 120.123 12.282 120.519 11.61C120.915 10.926 121.467 10.392 122.175 10.008C122.883 9.624 123.705 9.432 124.641 9.432C125.313 9.432 125.943 9.492 126.531 9.612C127.131 9.732 127.611 9.864 127.971 10.008V18C127.971 19.2 127.617 20.136 126.909 20.808C126.201 21.48 125.217 21.816 123.957 21.816C123.105 21.816 122.427 21.72 121.923 21.528C121.419 21.336 121.011 21.126 120.699 20.898ZM126.351 14.58V11.106C126.243 11.07 126.057 11.022 125.793 10.962C125.541 10.89 125.157 10.854 124.641 10.854C124.029 10.854 123.495 10.986 123.039 11.25C122.583 11.502 122.223 11.856 121.959 12.312C121.707 12.768 121.581 13.296 121.581 13.896C121.581 14.4 121.659 14.862 121.815 15.282C121.983 15.702 122.247 16.038 122.607 16.29C122.967 16.542 123.429 16.668 123.993 16.668C124.533 16.668 124.977 16.566 125.325 16.362C125.673 16.158 125.931 15.9 126.099 15.588C126.267 15.264 126.351 14.928 126.351 14.58ZM131.802 18H130.182V10.44C130.182 10.356 130.182 10.26 130.182 10.152C130.182 10.044 130.176 9.87 130.164 9.63H131.712L131.766 10.98C131.898 10.788 132.078 10.578 132.306 10.35C132.546 10.122 132.846 9.924 133.206 9.756C133.566 9.588 133.998 9.504 134.502 9.504C134.682 9.504 134.844 9.516 134.988 9.54C135.144 9.564 135.288 9.6 135.42 9.648L135.06 11.16C134.844 11.076 134.568 11.034 134.232 11.034C133.776 11.034 133.362 11.154 132.99 11.394C132.63 11.622 132.342 11.928 132.126 12.312C131.91 12.696 131.802 13.122 131.802 13.59V18ZM140.314 18.252C139.462 18.252 138.7 18.054 138.028 17.658C137.356 17.25 136.828 16.71 136.444 16.038C136.072 15.354 135.886 14.61 135.886 13.806C135.886 12.99 136.072 12.246 136.444 11.574C136.828 10.902 137.356 10.368 138.028 9.972C138.7 9.564 139.462 9.36 140.314 9.36C141.166 9.36 141.922 9.564 142.582 9.972C143.254 10.368 143.782 10.902 144.166 11.574C144.55 12.246 144.742 12.99 144.742 13.806C144.742 14.61 144.55 15.354 144.166 16.038C143.782 16.71 143.254 17.25 142.582 17.658C141.922 18.054 141.166 18.252 140.314 18.252ZM140.314 16.848C140.902 16.848 141.4 16.704 141.808 16.416C142.228 16.116 142.546 15.732 142.762 15.264C142.99 14.796 143.104 14.31 143.104 13.806C143.104 13.302 142.99 12.816 142.762 12.348C142.546 11.88 142.228 11.502 141.808 11.214C141.388 10.914 140.89 10.764 140.314 10.764C139.738 10.764 139.24 10.914 138.82 11.214C138.4 11.502 138.076 11.88 137.848 12.348C137.632 12.804 137.524 13.29 137.524 13.806C137.524 14.31 137.638 14.796 137.866 15.264C138.094 15.72 138.412 16.098 138.82 16.398C139.24 16.698 139.738 16.848 140.314 16.848ZM146.529 14.652V9.63H148.149V14.544C148.149 15.324 148.311 15.894 148.635 16.254C148.959 16.614 149.427 16.794 150.039 16.794C150.663 16.794 151.149 16.632 151.497 16.308C151.845 15.984 152.091 15.576 152.235 15.084C152.391 14.58 152.469 14.058 152.469 13.518V9.63H154.089V17.154C154.089 17.202 154.089 17.316 154.089 17.496C154.089 17.664 154.095 17.832 154.107 18H152.559L152.505 16.758C152.373 16.95 152.187 17.16 151.947 17.388C151.707 17.604 151.401 17.79 151.029 17.946C150.669 18.102 150.231 18.18 149.715 18.18C148.623 18.18 147.819 17.862 147.303 17.226C146.787 16.59 146.529 15.732 146.529 14.652ZM157.941 21.6H156.339V10.494C156.339 10.386 156.339 10.278 156.339 10.17C156.339 10.05 156.333 9.87 156.321 9.63H157.869L157.923 10.818C158.043 10.662 158.217 10.482 158.445 10.278C158.685 10.062 158.997 9.87 159.381 9.702C159.765 9.534 160.227 9.45 160.767 9.45C161.631 9.45 162.339 9.654 162.891 10.062C163.455 10.47 163.869 11.01 164.133 11.682C164.409 12.354 164.547 13.08 164.547 13.86C164.547 14.616 164.415 15.276 164.151 15.84C163.899 16.392 163.563 16.848 163.143 17.208C162.723 17.556 162.261 17.82 161.757 18C161.253 18.168 160.755 18.252 160.263 18.252C159.699 18.252 159.249 18.192 158.913 18.072C158.577 17.964 158.253 17.844 157.941 17.712V21.6ZM157.941 14.04V16.182C158.133 16.338 158.409 16.488 158.769 16.632C159.129 16.776 159.579 16.848 160.119 16.848C160.671 16.848 161.151 16.722 161.559 16.47C161.979 16.206 162.303 15.846 162.531 15.39C162.771 14.934 162.891 14.424 162.891 13.86C162.891 13.32 162.807 12.822 162.639 12.366C162.483 11.91 162.225 11.544 161.865 11.268C161.505 10.992 161.019 10.854 160.407 10.854C159.843 10.854 159.351 11.016 158.931 11.34C158.523 11.664 158.235 12.126 158.067 12.726C158.019 12.918 157.983 13.128 157.959 13.356C157.947 13.572 157.941 13.8 157.941 14.04ZM171.23 21.6H169.628V10.494C169.628 10.386 169.628 10.278 169.628 10.17C169.628 10.05 169.622 9.87 169.61 9.63H171.158L171.212 10.818C171.332 10.662 171.506 10.482 171.734 10.278C171.974 10.062 172.286 9.87 172.67 9.702C173.054 9.534 173.516 9.45 174.056 9.45C174.92 9.45 175.628 9.654 176.18 10.062C176.744 10.47 177.158 11.01 177.422 11.682C177.698 12.354 177.836 13.08 177.836 13.86C177.836 14.616 177.704 15.276 177.44 15.84C177.188 16.392 176.852 16.848 176.432 17.208C176.012 17.556 175.55 17.82 175.046 18C174.542 18.168 174.044 18.252 173.552 18.252C172.988 18.252 172.538 18.192 172.202 18.072C171.866 17.964 171.542 17.844 171.23 17.712V21.6ZM171.23 14.04V16.182C171.422 16.338 171.698 16.488 172.058 16.632C172.418 16.776 172.868 16.848 173.408 16.848C173.96 16.848 174.44 16.722 174.848 16.47C175.268 16.206 175.592 15.846 175.82 15.39C176.06 14.934 176.18 14.424 176.18 13.86C176.18 13.32 176.096 12.822 175.928 12.366C175.772 11.91 175.514 11.544 175.154 11.268C174.794 10.992 174.308 10.854 173.696 10.854C173.132 10.854 172.64 11.016 172.22 11.34C171.812 11.664 171.524 12.126 171.356 12.726C171.308 12.918 171.272 13.128 171.248 13.356C171.236 13.572 171.23 13.8 171.23 14.04ZM184.939 18L184.903 16.992C184.603 17.4 184.189 17.712 183.661 17.928C183.145 18.132 182.623 18.234 182.095 18.234C181.639 18.234 181.183 18.15 180.727 17.982C180.283 17.814 179.911 17.538 179.611 17.154C179.323 16.77 179.179 16.26 179.179 15.624C179.179 14.724 179.497 14.004 180.133 13.464C180.769 12.924 181.675 12.654 182.851 12.654C183.115 12.654 183.385 12.666 183.661 12.69C183.949 12.702 184.207 12.72 184.435 12.744C184.663 12.756 184.813 12.768 184.885 12.78V12.474C184.885 11.85 184.693 11.406 184.309 11.142C183.937 10.866 183.427 10.728 182.779 10.728C182.155 10.728 181.651 10.818 181.267 10.998C180.895 11.166 180.583 11.34 180.331 11.52L179.575 10.422C179.875 10.182 180.289 9.948 180.817 9.72C181.345 9.492 182.059 9.378 182.959 9.378C184.027 9.378 184.873 9.642 185.497 10.17C186.121 10.686 186.433 11.424 186.433 12.384V17.262C186.433 17.346 186.433 17.448 186.433 17.568C186.433 17.688 186.439 17.832 186.451 18H184.939ZM184.885 14.994V14.04C184.825 14.016 184.687 13.998 184.471 13.986C184.255 13.962 184.009 13.944 183.733 13.932C183.469 13.908 183.211 13.896 182.959 13.896C182.359 13.896 181.897 13.986 181.573 14.166C181.261 14.334 181.045 14.55 180.925 14.814C180.817 15.066 180.763 15.318 180.763 15.57C180.763 16.014 180.919 16.356 181.231 16.596C181.543 16.836 181.975 16.956 182.527 16.956C182.947 16.956 183.331 16.866 183.679 16.686C184.039 16.494 184.327 16.248 184.543 15.948C184.771 15.648 184.885 15.33 184.885 14.994ZM189.007 20.898L189.763 19.71C190.039 19.902 190.375 20.064 190.771 20.196C191.179 20.34 191.671 20.412 192.247 20.412C193.051 20.412 193.651 20.19 194.047 19.746C194.443 19.302 194.641 18.72 194.641 18V16.974C194.533 17.07 194.371 17.208 194.155 17.388C193.939 17.556 193.657 17.712 193.309 17.856C192.973 18 192.553 18.072 192.049 18.072C191.233 18.072 190.537 17.892 189.961 17.532C189.397 17.172 188.965 16.68 188.665 16.056C188.377 15.42 188.233 14.706 188.233 13.914C188.233 13.05 188.431 12.282 188.827 11.61C189.223 10.926 189.775 10.392 190.483 10.008C191.191 9.624 192.013 9.432 192.949 9.432C193.621 9.432 194.251 9.492 194.839 9.612C195.439 9.732 195.919 9.864 196.279 10.008V18C196.279 19.2 195.925 20.136 195.217 20.808C194.509 21.48 193.525 21.816 192.265 21.816C191.413 21.816 190.735 21.72 190.231 21.528C189.727 21.336 189.319 21.126 189.007 20.898ZM194.659 14.58V11.106C194.551 11.07 194.365 11.022 194.101 10.962C193.849 10.89 193.465 10.854 192.949 10.854C192.337 10.854 191.803 10.986 191.347 11.25C190.891 11.502 190.531 11.856 190.267 12.312C190.015 12.768 189.889 13.296 189.889 13.896C189.889 14.4 189.967 14.862 190.123 15.282C190.291 15.702 190.555 16.038 190.915 16.29C191.275 16.542 191.737 16.668 192.301 16.668C192.841 16.668 193.285 16.566 193.633 16.362C193.981 16.158 194.239 15.9 194.407 15.588C194.575 15.264 194.659 14.928 194.659 14.58ZM205.205 15.804L206.123 16.776C206.003 16.92 205.787 17.112 205.475 17.352C205.163 17.58 204.755 17.79 204.251 17.982C203.759 18.162 203.159 18.252 202.451 18.252C201.587 18.252 200.825 18.066 200.165 17.694C199.505 17.31 198.989 16.782 198.617 16.11C198.257 15.426 198.077 14.64 198.077 13.752C198.077 12.936 198.251 12.198 198.599 11.538C198.959 10.878 199.451 10.356 200.075 9.972C200.711 9.576 201.437 9.378 202.253 9.378C203.225 9.378 204.011 9.612 204.611 10.08C205.211 10.548 205.649 11.154 205.925 11.898C206.201 12.642 206.339 13.44 206.339 14.292H199.733C199.745 14.784 199.877 15.228 200.129 15.624C200.381 16.008 200.711 16.314 201.119 16.542C201.539 16.758 201.989 16.866 202.469 16.866C203.177 16.866 203.759 16.746 204.215 16.506C204.683 16.266 205.013 16.032 205.205 15.804ZM199.733 13.086H204.665C204.617 12.438 204.389 11.886 203.981 11.43C203.573 10.974 202.997 10.746 202.253 10.746C201.737 10.746 201.293 10.86 200.921 11.088C200.549 11.316 200.261 11.61 200.057 11.97C199.865 12.318 199.757 12.69 199.733 13.086ZM213.013 18H211.393V10.494C211.393 10.386 211.393 10.278 211.393 10.17C211.393 10.05 211.387 9.87 211.375 9.63H212.923L212.977 10.89C213.121 10.686 213.313 10.476 213.553 10.26C213.793 10.032 214.093 9.84 214.453 9.684C214.825 9.516 215.269 9.432 215.785 9.432C216.877 9.432 217.687 9.756 218.215 10.404C218.743 11.04 219.007 11.898 219.007 12.978V18H217.387V13.104C217.387 12.324 217.213 11.754 216.865 11.394C216.529 11.022 216.061 10.836 215.461 10.836C214.849 10.836 214.363 10.998 214.003 11.322C213.643 11.634 213.385 12.042 213.229 12.546C213.085 13.05 213.013 13.572 213.013 14.112V18ZM226.458 18L226.422 16.992C226.122 17.4 225.708 17.712 225.18 17.928C224.664 18.132 224.142 18.234 223.614 18.234C223.158 18.234 222.702 18.15 222.246 17.982C221.802 17.814 221.43 17.538 221.13 17.154C220.842 16.77 220.698 16.26 220.698 15.624C220.698 14.724 221.016 14.004 221.652 13.464C222.288 12.924 223.194 12.654 224.37 12.654C224.634 12.654 224.904 12.666 225.18 12.69C225.468 12.702 225.726 12.72 225.954 12.744C226.182 12.756 226.332 12.768 226.404 12.78V12.474C226.404 11.85 226.212 11.406 225.828 11.142C225.456 10.866 224.946 10.728 224.298 10.728C223.674 10.728 223.17 10.818 222.786 10.998C222.414 11.166 222.102 11.34 221.85 11.52L221.094 10.422C221.394 10.182 221.808 9.948 222.336 9.72C222.864 9.492 223.578 9.378 224.478 9.378C225.546 9.378 226.392 9.642 227.016 10.17C227.64 10.686 227.952 11.424 227.952 12.384V17.262C227.952 17.346 227.952 17.448 227.952 17.568C227.952 17.688 227.958 17.832 227.97 18H226.458ZM226.404 14.994V14.04C226.344 14.016 226.206 13.998 225.99 13.986C225.774 13.962 225.528 13.944 225.252 13.932C224.988 13.908 224.73 13.896 224.478 13.896C223.878 13.896 223.416 13.986 223.092 14.166C222.78 14.334 222.564 14.55 222.444 14.814C222.336 15.066 222.282 15.318 222.282 15.57C222.282 16.014 222.438 16.356 222.75 16.596C223.062 16.836 223.494 16.956 224.046 16.956C224.466 16.956 224.85 16.866 225.198 16.686C225.558 16.494 225.846 16.248 226.062 15.948C226.29 15.648 226.404 15.33 226.404 14.994ZM231.787 18H230.167V10.494C230.167 10.386 230.167 10.278 230.167 10.17C230.167 10.05 230.161 9.87 230.149 9.63H231.697L231.751 10.89C231.883 10.686 232.063 10.476 232.291 10.26C232.519 10.032 232.813 9.84 233.173 9.684C233.533 9.516 233.965 9.432 234.469 9.432C235.117 9.432 235.651 9.564 236.071 9.828C236.503 10.08 236.839 10.452 237.079 10.944C237.415 10.548 237.829 10.2 238.321 9.9C238.813 9.588 239.413 9.432 240.121 9.432C241.201 9.432 241.999 9.756 242.515 10.404C243.031 11.04 243.289 11.898 243.289 12.978V18H241.669V13.104C241.669 11.592 241.069 10.836 239.869 10.836C239.425 10.836 239.029 10.956 238.681 11.196C238.333 11.424 238.057 11.73 237.853 12.114C237.649 12.486 237.547 12.9 237.547 13.356V18H235.927V13.104C235.927 12.324 235.771 11.754 235.459 11.394C235.147 11.022 234.709 10.836 234.145 10.836C233.557 10.836 233.089 10.998 232.741 11.322C232.393 11.646 232.147 12.06 232.003 12.564C231.859 13.056 231.787 13.572 231.787 14.112V18ZM252.174 15.804L253.092 16.776C252.972 16.92 252.756 17.112 252.444 17.352C252.132 17.58 251.724 17.79 251.22 17.982C250.728 18.162 250.128 18.252 249.42 18.252C248.556 18.252 247.794 18.066 247.134 17.694C246.474 17.31 245.958 16.782 245.586 16.11C245.226 15.426 245.046 14.64 245.046 13.752C245.046 12.936 245.22 12.198 245.568 11.538C245.928 10.878 246.42 10.356 247.044 9.972C247.68 9.576 248.406 9.378 249.222 9.378C250.194 9.378 250.98 9.612 251.58 10.08C252.18 10.548 252.618 11.154 252.894 11.898C253.17 12.642 253.308 13.44 253.308 14.292H246.702C246.714 14.784 246.846 15.228 247.098 15.624C247.35 16.008 247.68 16.314 248.088 16.542C248.508 16.758 248.958 16.866 249.438 16.866C250.146 16.866 250.728 16.746 251.184 16.506C251.652 16.266 251.982 16.032 252.174 15.804ZM246.702 13.086H251.634C251.586 12.438 251.358 11.886 250.95 11.43C250.542 10.974 249.966 10.746 249.222 10.746C248.706 10.746 248.262 10.86 247.89 11.088C247.518 11.316 247.23 11.61 247.026 11.97C246.834 12.318 246.726 12.69 246.702 13.086Z" fill="black"/>
<path fill-rule="evenodd" clip-rule="evenodd" d="M18.6946 7.93136C19.1467 8.45305 19.0904 9.2425 18.5687 9.69463L11.0687 16.1946C10.5731 16.6241 9.82984 16.5976 9.36612 16.1339L5.36612 12.1339C4.87796 11.6457 4.87796 10.8543 5.36612 10.3661C5.85427 9.87798 6.64573 9.87798 7.13388 10.3661L10.3109 13.5431L16.9313 7.80541C17.453 7.35327 18.2425 7.40966 18.6946 7.93136Z" fill="black"/>
</svg>
