<svg width="228" height="24" viewBox="0 0 228 24" fill="none" xmlns="http://www.w3.org/2000/svg">
<path d="M33.278 13.428V5.994H35.006V13.014C35.006 13.734 35.096 14.37 35.276 14.922C35.456 15.474 35.768 15.906 36.212 16.218C36.656 16.518 37.274 16.668 38.066 16.668C38.858 16.668 39.47 16.518 39.902 16.218C40.346 15.906 40.658 15.474 40.838 14.922C41.018 14.37 41.108 13.734 41.108 13.014V5.994H42.836V13.428C42.836 14.34 42.662 15.168 42.314 15.912C41.978 16.644 41.456 17.226 40.748 17.658C40.052 18.09 39.158 18.306 38.066 18.306C36.974 18.306 36.074 18.09 35.366 17.658C34.658 17.226 34.13 16.644 33.782 15.912C33.446 15.168 33.278 14.34 33.278 13.428ZM46.8473 18H45.2273V10.494C45.2273 10.386 45.2273 10.278 45.2273 10.17C45.2273 10.05 45.2213 9.87 45.2093 9.63H46.7573L46.8113 10.89C46.9553 10.686 47.1473 10.476 47.3873 10.26C47.6273 10.032 47.9273 9.84 48.2873 9.684C48.6593 9.516 49.1033 9.432 49.6193 9.432C50.7113 9.432 51.5213 9.756 52.0493 10.404C52.5773 11.04 52.8413 11.898 52.8413 12.978V18H51.2213V13.104C51.2213 12.324 51.0473 11.754 50.6993 11.394C50.3633 11.022 49.8953 10.836 49.2953 10.836C48.6833 10.836 48.1973 10.998 47.8373 11.322C47.4773 11.634 47.2193 12.042 47.0633 12.546C46.9193 13.05 46.8473 13.572 46.8473 14.112V18ZM55.0003 18V5.994H56.6203V18H55.0003ZM58.7968 8.136V6.318H60.6148V8.136H58.7968ZM58.9048 18V9.63H60.5248V18H58.9048ZM64.443 18H62.823V10.494C62.823 10.386 62.823 10.278 62.823 10.17C62.823 10.05 62.817 9.87 62.805 9.63H64.353L64.407 10.89C64.539 10.686 64.719 10.476 64.947 10.26C65.175 10.032 65.469 9.84 65.829 9.684C66.189 9.516 66.621 9.432 67.125 9.432C67.773 9.432 68.307 9.564 68.727 9.828C69.159 10.08 69.495 10.452 69.735 10.944C70.071 10.548 70.485 10.2 70.977 9.9C71.469 9.588 72.069 9.432 72.777 9.432C73.857 9.432 74.655 9.756 75.171 10.404C75.687 11.04 75.945 11.898 75.945 12.978V18H74.325V13.104C74.325 11.592 73.725 10.836 72.525 10.836C72.081 10.836 71.685 10.956 71.337 11.196C70.989 11.424 70.713 11.73 70.509 12.114C70.305 12.486 70.203 12.9 70.203 13.356V18H68.583V13.104C68.583 12.324 68.427 11.754 68.115 11.394C67.803 11.022 67.365 10.836 66.801 10.836C66.213 10.836 65.745 10.998 65.397 11.322C65.049 11.646 64.803 12.06 64.659 12.564C64.515 13.056 64.443 13.572 64.443 14.112V18ZM78.08 8.136V6.318H79.898V8.136H78.08ZM78.188 18V9.63H79.808V18H78.188ZM82.8262 15.264V10.98H81.3142V9.63H82.8262V6.894H84.4462V9.63H86.8942V10.98H84.4462V15.102C84.4462 15.774 84.5482 16.236 84.7522 16.488C84.9682 16.74 85.2682 16.866 85.6522 16.866C85.9642 16.866 86.2222 16.818 86.4262 16.722C86.6422 16.626 86.8462 16.482 87.0382 16.29L87.7762 17.28C87.4282 17.616 87.0682 17.856 86.6962 18C86.3362 18.156 85.9042 18.234 85.4002 18.234C84.5242 18.234 83.8762 17.994 83.4562 17.514C83.0362 17.022 82.8262 16.272 82.8262 15.264ZM95.1835 15.804L96.1015 16.776C95.9815 16.92 95.7655 17.112 95.4535 17.352C95.1415 17.58 94.7335 17.79 94.2295 17.982C93.7375 18.162 93.1375 18.252 92.4295 18.252C91.5655 18.252 90.8035 18.066 90.1435 17.694C89.4835 17.31 88.9675 16.782 88.5955 16.11C88.2355 15.426 88.0555 14.64 88.0555 13.752C88.0555 12.936 88.2295 12.198 88.5775 11.538C88.9375 10.878 89.4295 10.356 90.0535 9.972C90.6895 9.576 91.4155 9.378 92.2315 9.378C93.2035 9.378 93.9895 9.612 94.5895 10.08C95.1895 10.548 95.6275 11.154 95.9035 11.898C96.1795 12.642 96.3175 13.44 96.3175 14.292H89.7115C89.7235 14.784 89.8555 15.228 90.1075 15.624C90.3595 16.008 90.6895 16.314 91.0975 16.542C91.5175 16.758 91.9675 16.866 92.4475 16.866C93.1555 16.866 93.7375 16.746 94.1935 16.506C94.6615 16.266 94.9915 16.032 95.1835 15.804ZM89.7115 13.086H94.6435C94.5955 12.438 94.3675 11.886 93.9595 11.43C93.5515 10.974 92.9755 10.746 92.2315 10.746C91.7155 10.746 91.2715 10.86 90.8995 11.088C90.5275 11.316 90.2395 11.61 90.0355 11.97C89.8435 12.318 89.7355 12.69 89.7115 13.086ZM104.204 18L104.15 16.938C104.066 17.034 103.91 17.19 103.682 17.406C103.466 17.622 103.172 17.82 102.8 18C102.428 18.168 101.972 18.252 101.432 18.252C100.724 18.252 100.088 18.078 99.5239 17.73C98.9599 17.37 98.5159 16.866 98.1919 16.218C97.8679 15.57 97.7059 14.808 97.7059 13.932C97.7059 13.14 97.8379 12.462 98.1019 11.898C98.3779 11.322 98.7319 10.854 99.1639 10.494C99.5959 10.134 100.058 9.87 100.55 9.702C101.054 9.522 101.528 9.432 101.972 9.432C102.428 9.432 102.818 9.48 103.142 9.576C103.478 9.672 103.814 9.804 104.15 9.972V5.994H105.77V17.154C105.77 17.202 105.77 17.316 105.77 17.496C105.77 17.664 105.776 17.832 105.788 18H104.204ZM104.15 14.472V11.484C103.934 11.304 103.658 11.154 103.322 11.034C102.986 10.914 102.578 10.854 102.098 10.854C101.318 10.854 100.664 11.13 100.136 11.682C99.6199 12.234 99.3619 12.99 99.3619 13.95C99.3619 14.478 99.4459 14.964 99.6139 15.408C99.7939 15.852 100.064 16.206 100.424 16.47C100.784 16.722 101.24 16.848 101.792 16.848C102.356 16.848 102.806 16.722 103.142 16.47C103.49 16.206 103.742 15.888 103.898 15.516C104.066 15.144 104.15 14.796 104.15 14.472ZM117.352 18L117.298 16.938C117.214 17.034 117.058 17.19 116.83 17.406C116.614 17.622 116.32 17.82 115.948 18C115.576 18.168 115.12 18.252 114.58 18.252C113.872 18.252 113.236 18.078 112.672 17.73C112.108 17.37 111.664 16.866 111.34 16.218C111.016 15.57 110.854 14.808 110.854 13.932C110.854 13.14 110.986 12.462 111.25 11.898C111.526 11.322 111.88 10.854 112.312 10.494C112.744 10.134 113.206 9.87 113.698 9.702C114.202 9.522 114.676 9.432 115.12 9.432C115.576 9.432 115.966 9.48 116.29 9.576C116.626 9.672 116.962 9.804 117.298 9.972V5.994H118.918V17.154C118.918 17.202 118.918 17.316 118.918 17.496C118.918 17.664 118.924 17.832 118.936 18H117.352ZM117.298 14.472V11.484C117.082 11.304 116.806 11.154 116.47 11.034C116.134 10.914 115.726 10.854 115.246 10.854C114.466 10.854 113.812 11.13 113.284 11.682C112.768 12.234 112.51 12.99 112.51 13.95C112.51 14.478 112.594 14.964 112.762 15.408C112.942 15.852 113.212 16.206 113.572 16.47C113.932 16.722 114.388 16.848 114.94 16.848C115.504 16.848 115.954 16.722 116.29 16.47C116.638 16.206 116.89 15.888 117.046 15.516C117.214 15.144 117.298 14.796 117.298 14.472ZM125.197 18.252C124.345 18.252 123.583 18.054 122.911 17.658C122.239 17.25 121.711 16.71 121.327 16.038C120.955 15.354 120.769 14.61 120.769 13.806C120.769 12.99 120.955 12.246 121.327 11.574C121.711 10.902 122.239 10.368 122.911 9.972C123.583 9.564 124.345 9.36 125.197 9.36C126.049 9.36 126.805 9.564 127.465 9.972C128.137 10.368 128.665 10.902 129.049 11.574C129.433 12.246 129.625 12.99 129.625 13.806C129.625 14.61 129.433 15.354 129.049 16.038C128.665 16.71 128.137 17.25 127.465 17.658C126.805 18.054 126.049 18.252 125.197 18.252ZM125.197 16.848C125.785 16.848 126.283 16.704 126.691 16.416C127.111 16.116 127.429 15.732 127.645 15.264C127.873 14.796 127.987 14.31 127.987 13.806C127.987 13.302 127.873 12.816 127.645 12.348C127.429 11.88 127.111 11.502 126.691 11.214C126.271 10.914 125.773 10.764 125.197 10.764C124.621 10.764 124.123 10.914 123.703 11.214C123.283 11.502 122.959 11.88 122.731 12.348C122.515 12.804 122.407 13.29 122.407 13.806C122.407 14.31 122.521 14.796 122.749 15.264C122.977 15.72 123.295 16.098 123.703 16.398C124.123 16.698 124.621 16.848 125.197 16.848ZM133.11 18L130.284 9.63H132.066L133.938 16.02L135.954 9.63H137.34L139.356 16.074L141.192 9.63H142.866L140.094 18H138.492L136.548 12.15L134.622 18H133.11ZM145.812 18H144.192V10.494C144.192 10.386 144.192 10.278 144.192 10.17C144.192 10.05 144.186 9.87 144.174 9.63H145.722L145.776 10.89C145.92 10.686 146.112 10.476 146.352 10.26C146.592 10.032 146.892 9.84 147.252 9.684C147.624 9.516 148.068 9.432 148.584 9.432C149.676 9.432 150.486 9.756 151.014 10.404C151.542 11.04 151.806 11.898 151.806 12.978V18H150.186V13.104C150.186 12.324 150.012 11.754 149.664 11.394C149.328 11.022 148.86 10.836 148.26 10.836C147.648 10.836 147.162 10.998 146.802 11.322C146.442 11.634 146.184 12.042 146.028 12.546C145.884 13.05 145.812 13.572 145.812 14.112V18ZM153.965 18V5.994H155.585V18H153.965ZM161.83 18.252C160.978 18.252 160.216 18.054 159.544 17.658C158.872 17.25 158.344 16.71 157.96 16.038C157.588 15.354 157.402 14.61 157.402 13.806C157.402 12.99 157.588 12.246 157.96 11.574C158.344 10.902 158.872 10.368 159.544 9.972C160.216 9.564 160.978 9.36 161.83 9.36C162.682 9.36 163.438 9.564 164.098 9.972C164.77 10.368 165.298 10.902 165.682 11.574C166.066 12.246 166.258 12.99 166.258 13.806C166.258 14.61 166.066 15.354 165.682 16.038C165.298 16.71 164.77 17.25 164.098 17.658C163.438 18.054 162.682 18.252 161.83 18.252ZM161.83 16.848C162.418 16.848 162.916 16.704 163.324 16.416C163.744 16.116 164.062 15.732 164.278 15.264C164.506 14.796 164.62 14.31 164.62 13.806C164.62 13.302 164.506 12.816 164.278 12.348C164.062 11.88 163.744 11.502 163.324 11.214C162.904 10.914 162.406 10.764 161.83 10.764C161.254 10.764 160.756 10.914 160.336 11.214C159.916 11.502 159.592 11.88 159.364 12.348C159.148 12.804 159.04 13.29 159.04 13.806C159.04 14.31 159.154 14.796 159.382 15.264C159.61 15.72 159.928 16.098 160.336 16.398C160.756 16.698 161.254 16.848 161.83 16.848ZM173.372 18L173.336 16.992C173.036 17.4 172.622 17.712 172.094 17.928C171.578 18.132 171.056 18.234 170.528 18.234C170.072 18.234 169.616 18.15 169.16 17.982C168.716 17.814 168.344 17.538 168.044 17.154C167.756 16.77 167.612 16.26 167.612 15.624C167.612 14.724 167.93 14.004 168.566 13.464C169.202 12.924 170.108 12.654 171.284 12.654C171.548 12.654 171.818 12.666 172.094 12.69C172.382 12.702 172.64 12.72 172.868 12.744C173.096 12.756 173.246 12.768 173.318 12.78V12.474C173.318 11.85 173.126 11.406 172.742 11.142C172.37 10.866 171.86 10.728 171.212 10.728C170.588 10.728 170.084 10.818 169.7 10.998C169.328 11.166 169.016 11.34 168.764 11.52L168.008 10.422C168.308 10.182 168.722 9.948 169.25 9.72C169.778 9.492 170.492 9.378 171.392 9.378C172.46 9.378 173.306 9.642 173.93 10.17C174.554 10.686 174.866 11.424 174.866 12.384V17.262C174.866 17.346 174.866 17.448 174.866 17.568C174.866 17.688 174.872 17.832 174.884 18H173.372ZM173.318 14.994V14.04C173.258 14.016 173.12 13.998 172.904 13.986C172.688 13.962 172.442 13.944 172.166 13.932C171.902 13.908 171.644 13.896 171.392 13.896C170.792 13.896 170.33 13.986 170.006 14.166C169.694 14.334 169.478 14.55 169.358 14.814C169.25 15.066 169.196 15.318 169.196 15.57C169.196 16.014 169.352 16.356 169.664 16.596C169.976 16.836 170.408 16.956 170.96 16.956C171.38 16.956 171.764 16.866 172.112 16.686C172.472 16.494 172.76 16.248 172.976 15.948C173.204 15.648 173.318 15.33 173.318 14.994ZM183.165 18L183.111 16.938C183.027 17.034 182.871 17.19 182.643 17.406C182.427 17.622 182.133 17.82 181.761 18C181.389 18.168 180.933 18.252 180.393 18.252C179.685 18.252 179.049 18.078 178.485 17.73C177.921 17.37 177.477 16.866 177.153 16.218C176.829 15.57 176.667 14.808 176.667 13.932C176.667 13.14 176.799 12.462 177.063 11.898C177.339 11.322 177.693 10.854 178.125 10.494C178.557 10.134 179.019 9.87 179.511 9.702C180.015 9.522 180.489 9.432 180.933 9.432C181.389 9.432 181.779 9.48 182.103 9.576C182.439 9.672 182.775 9.804 183.111 9.972V5.994H184.731V17.154C184.731 17.202 184.731 17.316 184.731 17.496C184.731 17.664 184.737 17.832 184.749 18H183.165ZM183.111 14.472V11.484C182.895 11.304 182.619 11.154 182.283 11.034C181.947 10.914 181.539 10.854 181.059 10.854C180.279 10.854 179.625 11.13 179.097 11.682C178.581 12.234 178.323 12.99 178.323 13.95C178.323 14.478 178.407 14.964 178.575 15.408C178.755 15.852 179.025 16.206 179.385 16.47C179.745 16.722 180.201 16.848 180.753 16.848C181.317 16.848 181.767 16.722 182.103 16.47C182.451 16.206 182.703 15.888 182.859 15.516C183.027 15.144 183.111 14.796 183.111 14.472ZM191.831 21.6H190.229V10.494C190.229 10.386 190.229 10.278 190.229 10.17C190.229 10.05 190.223 9.87 190.211 9.63H191.759L191.813 10.818C191.933 10.662 192.107 10.482 192.335 10.278C192.575 10.062 192.887 9.87 193.271 9.702C193.655 9.534 194.117 9.45 194.657 9.45C195.521 9.45 196.229 9.654 196.781 10.062C197.345 10.47 197.759 11.01 198.023 11.682C198.299 12.354 198.437 13.08 198.437 13.86C198.437 14.616 198.305 15.276 198.041 15.84C197.789 16.392 197.453 16.848 197.033 17.208C196.613 17.556 196.151 17.82 195.647 18C195.143 18.168 194.645 18.252 194.153 18.252C193.589 18.252 193.139 18.192 192.803 18.072C192.467 17.964 192.143 17.844 191.831 17.712V21.6ZM191.831 14.04V16.182C192.023 16.338 192.299 16.488 192.659 16.632C193.019 16.776 193.469 16.848 194.009 16.848C194.561 16.848 195.041 16.722 195.449 16.47C195.869 16.206 196.193 15.846 196.421 15.39C196.661 14.934 196.781 14.424 196.781 13.86C196.781 13.32 196.697 12.822 196.529 12.366C196.373 11.91 196.115 11.544 195.755 11.268C195.395 10.992 194.909 10.854 194.297 10.854C193.733 10.854 193.241 11.016 192.821 11.34C192.413 11.664 192.125 12.126 191.957 12.726C191.909 12.918 191.873 13.128 191.849 13.356C191.837 13.572 191.831 13.8 191.831 14.04ZM205.54 18L205.504 16.992C205.204 17.4 204.79 17.712 204.262 17.928C203.746 18.132 203.224 18.234 202.696 18.234C202.24 18.234 201.784 18.15 201.328 17.982C200.884 17.814 200.512 17.538 200.212 17.154C199.924 16.77 199.78 16.26 199.78 15.624C199.78 14.724 200.098 14.004 200.734 13.464C201.37 12.924 202.276 12.654 203.452 12.654C203.716 12.654 203.986 12.666 204.262 12.69C204.55 12.702 204.808 12.72 205.036 12.744C205.264 12.756 205.414 12.768 205.486 12.78V12.474C205.486 11.85 205.294 11.406 204.91 11.142C204.538 10.866 204.028 10.728 203.38 10.728C202.756 10.728 202.252 10.818 201.868 10.998C201.496 11.166 201.184 11.34 200.932 11.52L200.176 10.422C200.476 10.182 200.89 9.948 201.418 9.72C201.946 9.492 202.66 9.378 203.56 9.378C204.628 9.378 205.474 9.642 206.098 10.17C206.722 10.686 207.034 11.424 207.034 12.384V17.262C207.034 17.346 207.034 17.448 207.034 17.568C207.034 17.688 207.04 17.832 207.052 18H205.54ZM205.486 14.994V14.04C205.426 14.016 205.288 13.998 205.072 13.986C204.856 13.962 204.61 13.944 204.334 13.932C204.07 13.908 203.812 13.896 203.56 13.896C202.96 13.896 202.498 13.986 202.174 14.166C201.862 14.334 201.646 14.55 201.526 14.814C201.418 15.066 201.364 15.318 201.364 15.57C201.364 16.014 201.52 16.356 201.832 16.596C202.144 16.836 202.576 16.956 203.128 16.956C203.548 16.956 203.932 16.866 204.28 16.686C204.64 16.494 204.928 16.248 205.144 15.948C205.372 15.648 205.486 15.33 205.486 14.994ZM209.609 20.898L210.365 19.71C210.641 19.902 210.977 20.064 211.373 20.196C211.781 20.34 212.273 20.412 212.849 20.412C213.653 20.412 214.253 20.19 214.649 19.746C215.045 19.302 215.243 18.72 215.243 18V16.974C215.135 17.07 214.973 17.208 214.757 17.388C214.541 17.556 214.259 17.712 213.911 17.856C213.575 18 213.155 18.072 212.651 18.072C211.835 18.072 211.139 17.892 210.563 17.532C209.999 17.172 209.567 16.68 209.267 16.056C208.979 15.42 208.835 14.706 208.835 13.914C208.835 13.05 209.033 12.282 209.429 11.61C209.825 10.926 210.377 10.392 211.085 10.008C211.793 9.624 212.615 9.432 213.551 9.432C214.223 9.432 214.853 9.492 215.441 9.612C216.041 9.732 216.521 9.864 216.881 10.008V18C216.881 19.2 216.527 20.136 215.819 20.808C215.111 21.48 214.127 21.816 212.867 21.816C212.015 21.816 211.337 21.72 210.833 21.528C210.329 21.336 209.921 21.126 209.609 20.898ZM215.261 14.58V11.106C215.153 11.07 214.967 11.022 214.703 10.962C214.451 10.89 214.067 10.854 213.551 10.854C212.939 10.854 212.405 10.986 211.949 11.25C211.493 11.502 211.133 11.856 210.869 12.312C210.617 12.768 210.491 13.296 210.491 13.896C210.491 14.4 210.569 14.862 210.725 15.282C210.893 15.702 211.157 16.038 211.517 16.29C211.877 16.542 212.339 16.668 212.903 16.668C213.443 16.668 213.887 16.566 214.235 16.362C214.583 16.158 214.841 15.9 215.009 15.588C215.177 15.264 215.261 14.928 215.261 14.58ZM225.807 15.804L226.725 16.776C226.605 16.92 226.389 17.112 226.077 17.352C225.765 17.58 225.357 17.79 224.853 17.982C224.361 18.162 223.761 18.252 223.053 18.252C222.189 18.252 221.427 18.066 220.767 17.694C220.107 17.31 219.591 16.782 219.219 16.11C218.859 15.426 218.679 14.64 218.679 13.752C218.679 12.936 218.853 12.198 219.201 11.538C219.561 10.878 220.053 10.356 220.677 9.972C221.313 9.576 222.039 9.378 222.855 9.378C223.827 9.378 224.613 9.612 225.213 10.08C225.813 10.548 226.251 11.154 226.527 11.898C226.803 12.642 226.941 13.44 226.941 14.292H220.335C220.347 14.784 220.479 15.228 220.731 15.624C220.983 16.008 221.313 16.314 221.721 16.542C222.141 16.758 222.591 16.866 223.071 16.866C223.779 16.866 224.361 16.746 224.817 16.506C225.285 16.266 225.615 16.032 225.807 15.804ZM220.335 13.086H225.267C225.219 12.438 224.991 11.886 224.583 11.43C224.175 10.974 223.599 10.746 222.855 10.746C222.339 10.746 221.895 10.86 221.523 11.088C221.151 11.316 220.863 11.61 220.659 11.97C220.467 12.318 220.359 12.69 220.335 13.086Z" fill="black"/>
<path fill-rule="evenodd" clip-rule="evenodd" d="M18.6946 7.93136C19.1467 8.45305 19.0904 9.2425 18.5687 9.69463L11.0687 16.1946C10.5731 16.6241 9.82984 16.5976 9.36612 16.1339L5.36612 12.1339C4.87796 11.6457 4.87796 10.8543 5.36612 10.3661C5.85427 9.87798 6.64573 9.87798 7.13388 10.3661L10.3109 13.5431L16.9313 7.80541C17.453 7.35327 18.2425 7.40966 18.6946 7.93136Z" fill="black"/>
</svg>
