<svg width="275" height="24" viewBox="0 0 275 24" fill="none" xmlns="http://www.w3.org/2000/svg">
<path d="M42.368 14.886L43.574 15.894C43.394 16.17 43.094 16.5 42.674 16.884C42.254 17.256 41.726 17.586 41.09 17.874C40.454 18.15 39.716 18.288 38.876 18.288C37.7 18.288 36.656 18.018 35.744 17.478C34.844 16.926 34.142 16.182 33.638 15.246C33.134 14.298 32.882 13.23 32.882 12.042C32.882 11.166 33.026 10.35 33.314 9.594C33.602 8.826 34.01 8.154 34.538 7.578C35.078 6.99 35.714 6.534 36.446 6.21C37.19 5.874 38.012 5.706 38.912 5.706C39.764 5.706 40.496 5.838 41.108 6.102C41.72 6.354 42.224 6.666 42.62 7.038C43.028 7.398 43.346 7.746 43.574 8.082L42.35 9.126C42.158 8.85 41.912 8.568 41.612 8.28C41.324 7.992 40.958 7.752 40.514 7.56C40.082 7.356 39.554 7.254 38.93 7.254C38.054 7.254 37.298 7.47 36.662 7.902C36.038 8.334 35.552 8.91 35.204 9.63C34.868 10.338 34.7 11.13 34.7 12.006C34.7 12.87 34.868 13.656 35.204 14.364C35.552 15.072 36.038 15.636 36.662 16.056C37.286 16.464 38.024 16.668 38.876 16.668C39.596 16.668 40.184 16.554 40.64 16.326C41.096 16.098 41.456 15.846 41.72 15.57C41.996 15.282 42.212 15.054 42.368 14.886ZM45.2612 14.652V9.63H46.8812V14.544C46.8812 15.324 47.0432 15.894 47.3672 16.254C47.6912 16.614 48.1592 16.794 48.7712 16.794C49.3952 16.794 49.8812 16.632 50.2292 16.308C50.5772 15.984 50.8232 15.576 50.9672 15.084C51.1232 14.58 51.2012 14.058 51.2012 13.518V9.63H52.8212V17.154C52.8212 17.202 52.8212 17.316 52.8212 17.496C52.8212 17.664 52.8272 17.832 52.8392 18H51.2912L51.2372 16.758C51.1052 16.95 50.9192 17.16 50.6792 17.388C50.4392 17.604 50.1332 17.79 49.7612 17.946C49.4012 18.102 48.9632 18.18 48.4472 18.18C47.3552 18.18 46.5512 17.862 46.0352 17.226C45.5192 16.59 45.2612 15.732 45.2612 14.652ZM54.6211 16.974L55.6111 15.894C55.9111 16.194 56.2711 16.434 56.6911 16.614C57.1111 16.794 57.5971 16.884 58.1491 16.884C58.6891 16.884 59.1391 16.8 59.4991 16.632C59.8591 16.452 60.0391 16.176 60.0391 15.804C60.0391 15.54 59.9671 15.33 59.8231 15.174C59.6791 15.018 59.4331 14.88 59.0851 14.76C58.7371 14.628 58.2571 14.49 57.6451 14.346C57.2131 14.238 56.7931 14.094 56.3851 13.914C55.9771 13.722 55.6411 13.464 55.3771 13.14C55.1131 12.804 54.9811 12.372 54.9811 11.844C54.9811 11.304 55.1371 10.848 55.4491 10.476C55.7731 10.104 56.1871 9.828 56.6911 9.648C57.1951 9.456 57.7231 9.36 58.2751 9.36C58.9831 9.36 59.5951 9.456 60.1111 9.648C60.6271 9.828 61.0711 10.086 61.4431 10.422L60.5611 11.538C60.3091 11.31 59.9911 11.118 59.6071 10.962C59.2351 10.806 58.7971 10.728 58.2931 10.728C57.7771 10.728 57.3631 10.812 57.0511 10.98C56.7391 11.148 56.5831 11.424 56.5831 11.808C56.5831 12.168 56.7931 12.438 57.2131 12.618C57.6331 12.786 58.1731 12.948 58.8331 13.104C59.3611 13.224 59.8351 13.386 60.2551 13.59C60.6871 13.782 61.0291 14.046 61.2811 14.382C61.5451 14.718 61.6771 15.156 61.6771 15.696C61.6771 16.248 61.5091 16.716 61.1731 17.1C60.8491 17.472 60.4231 17.76 59.8951 17.964C59.3671 18.156 58.7971 18.252 58.1851 18.252C56.6011 18.252 55.4131 17.826 54.6211 16.974ZM64.2813 15.264V10.98H62.7693V9.63H64.2813V6.894H65.9013V9.63H68.3493V10.98H65.9013V15.102C65.9013 15.774 66.0033 16.236 66.2073 16.488C66.4233 16.74 66.7233 16.866 67.1073 16.866C67.4193 16.866 67.6773 16.818 67.8813 16.722C68.0973 16.626 68.3013 16.482 68.4933 16.29L69.2313 17.28C68.8833 17.616 68.5233 17.856 68.1513 18C67.7913 18.156 67.3593 18.234 66.8553 18.234C65.9793 18.234 65.3313 17.994 64.9113 17.514C64.4913 17.022 64.2813 16.272 64.2813 15.264ZM73.9566 18.252C73.1046 18.252 72.3426 18.054 71.6706 17.658C70.9986 17.25 70.4706 16.71 70.0866 16.038C69.7146 15.354 69.5286 14.61 69.5286 13.806C69.5286 12.99 69.7146 12.246 70.0866 11.574C70.4706 10.902 70.9986 10.368 71.6706 9.972C72.3426 9.564 73.1046 9.36 73.9566 9.36C74.8086 9.36 75.5646 9.564 76.2246 9.972C76.8966 10.368 77.4246 10.902 77.8086 11.574C78.1926 12.246 78.3846 12.99 78.3846 13.806C78.3846 14.61 78.1926 15.354 77.8086 16.038C77.4246 16.71 76.8966 17.25 76.2246 17.658C75.5646 18.054 74.8086 18.252 73.9566 18.252ZM73.9566 16.848C74.5446 16.848 75.0426 16.704 75.4506 16.416C75.8706 16.116 76.1886 15.732 76.4046 15.264C76.6326 14.796 76.7466 14.31 76.7466 13.806C76.7466 13.302 76.6326 12.816 76.4046 12.348C76.1886 11.88 75.8706 11.502 75.4506 11.214C75.0306 10.914 74.5326 10.764 73.9566 10.764C73.3806 10.764 72.8826 10.914 72.4626 11.214C72.0426 11.502 71.7186 11.88 71.4906 12.348C71.2746 12.804 71.1666 13.29 71.1666 13.806C71.1666 14.31 71.2806 14.796 71.5086 15.264C71.7366 15.72 72.0546 16.098 72.4626 16.398C72.8826 16.698 73.3806 16.848 73.9566 16.848ZM81.8454 18H80.2254V10.494C80.2254 10.386 80.2254 10.278 80.2254 10.17C80.2254 10.05 80.2194 9.87 80.2074 9.63H81.7554L81.8094 10.89C81.9414 10.686 82.1214 10.476 82.3494 10.26C82.5774 10.032 82.8714 9.84 83.2314 9.684C83.5914 9.516 84.0234 9.432 84.5274 9.432C85.1754 9.432 85.7094 9.564 86.1294 9.828C86.5614 10.08 86.8974 10.452 87.1374 10.944C87.4734 10.548 87.8874 10.2 88.3794 9.9C88.8714 9.588 89.4714 9.432 90.1794 9.432C91.2594 9.432 92.0574 9.756 92.5734 10.404C93.0894 11.04 93.3474 11.898 93.3474 12.978V18H91.7274V13.104C91.7274 11.592 91.1274 10.836 89.9274 10.836C89.4834 10.836 89.0874 10.956 88.7394 11.196C88.3914 11.424 88.1154 11.73 87.9114 12.114C87.7074 12.486 87.6054 12.9 87.6054 13.356V18H85.9854V13.104C85.9854 12.324 85.8294 11.754 85.5174 11.394C85.2054 11.022 84.7674 10.836 84.2034 10.836C83.6154 10.836 83.1474 10.998 82.7994 11.322C82.4514 11.646 82.2054 12.06 82.0614 12.564C81.9174 13.056 81.8454 13.572 81.8454 14.112V18ZM95.4823 8.136V6.318H97.3003V8.136H95.4823ZM95.5903 18V9.63H97.2103V18H95.5903ZM99.3286 18V16.722L104.117 10.998H99.4906V9.63H106.097V10.926L101.219 16.65H106.151V18H99.3286ZM114.15 15.804L115.068 16.776C114.948 16.92 114.732 17.112 114.42 17.352C114.108 17.58 113.7 17.79 113.196 17.982C112.704 18.162 112.104 18.252 111.396 18.252C110.532 18.252 109.77 18.066 109.11 17.694C108.45 17.31 107.934 16.782 107.562 16.11C107.202 15.426 107.022 14.64 107.022 13.752C107.022 12.936 107.196 12.198 107.544 11.538C107.904 10.878 108.396 10.356 109.02 9.972C109.656 9.576 110.382 9.378 111.198 9.378C112.17 9.378 112.956 9.612 113.556 10.08C114.156 10.548 114.594 11.154 114.87 11.898C115.146 12.642 115.284 13.44 115.284 14.292H108.678C108.69 14.784 108.822 15.228 109.074 15.624C109.326 16.008 109.656 16.314 110.064 16.542C110.484 16.758 110.934 16.866 111.414 16.866C112.122 16.866 112.704 16.746 113.16 16.506C113.628 16.266 113.958 16.032 114.15 15.804ZM108.678 13.086H113.61C113.562 12.438 113.334 11.886 112.926 11.43C112.518 10.974 111.942 10.746 111.198 10.746C110.682 10.746 110.238 10.86 109.866 11.088C109.494 11.316 109.206 11.61 109.002 11.97C108.81 12.318 108.702 12.69 108.678 13.086ZM119.889 16.974L120.879 15.894C121.179 16.194 121.539 16.434 121.959 16.614C122.379 16.794 122.865 16.884 123.417 16.884C123.957 16.884 124.407 16.8 124.767 16.632C125.127 16.452 125.307 16.176 125.307 15.804C125.307 15.54 125.235 15.33 125.091 15.174C124.947 15.018 124.701 14.88 124.353 14.76C124.005 14.628 123.525 14.49 122.913 14.346C122.481 14.238 122.061 14.094 121.653 13.914C121.245 13.722 120.909 13.464 120.645 13.14C120.381 12.804 120.249 12.372 120.249 11.844C120.249 11.304 120.405 10.848 120.717 10.476C121.041 10.104 121.455 9.828 121.959 9.648C122.463 9.456 122.991 9.36 123.543 9.36C124.251 9.36 124.863 9.456 125.379 9.648C125.895 9.828 126.339 10.086 126.711 10.422L125.829 11.538C125.577 11.31 125.259 11.118 124.875 10.962C124.503 10.806 124.065 10.728 123.561 10.728C123.045 10.728 122.631 10.812 122.319 10.98C122.007 11.148 121.851 11.424 121.851 11.808C121.851 12.168 122.061 12.438 122.481 12.618C122.901 12.786 123.441 12.948 124.101 13.104C124.629 13.224 125.103 13.386 125.523 13.59C125.955 13.782 126.297 14.046 126.549 14.382C126.813 14.718 126.945 15.156 126.945 15.696C126.945 16.248 126.777 16.716 126.441 17.1C126.117 17.472 125.691 17.76 125.163 17.964C124.635 18.156 124.065 18.252 123.453 18.252C121.869 18.252 120.681 17.826 119.889 16.974ZM132.861 18.252C132.009 18.252 131.247 18.054 130.575 17.658C129.903 17.25 129.375 16.71 128.991 16.038C128.619 15.354 128.433 14.61 128.433 13.806C128.433 12.99 128.619 12.246 128.991 11.574C129.375 10.902 129.903 10.368 130.575 9.972C131.247 9.564 132.009 9.36 132.861 9.36C133.713 9.36 134.469 9.564 135.129 9.972C135.801 10.368 136.329 10.902 136.713 11.574C137.097 12.246 137.289 12.99 137.289 13.806C137.289 14.61 137.097 15.354 136.713 16.038C136.329 16.71 135.801 17.25 135.129 17.658C134.469 18.054 133.713 18.252 132.861 18.252ZM132.861 16.848C133.449 16.848 133.947 16.704 134.355 16.416C134.775 16.116 135.093 15.732 135.309 15.264C135.537 14.796 135.651 14.31 135.651 13.806C135.651 13.302 135.537 12.816 135.309 12.348C135.093 11.88 134.775 11.502 134.355 11.214C133.935 10.914 133.437 10.764 132.861 10.764C132.285 10.764 131.787 10.914 131.367 11.214C130.947 11.502 130.623 11.88 130.395 12.348C130.179 12.804 130.071 13.29 130.071 13.806C130.071 14.31 130.185 14.796 130.413 15.264C130.641 15.72 130.959 16.098 131.367 16.398C131.787 16.698 132.285 16.848 132.861 16.848ZM140.75 18H139.13V10.44C139.13 10.356 139.13 10.26 139.13 10.152C139.13 10.044 139.124 9.87 139.112 9.63H140.66L140.714 10.98C140.846 10.788 141.026 10.578 141.254 10.35C141.494 10.122 141.794 9.924 142.154 9.756C142.514 9.588 142.946 9.504 143.45 9.504C143.63 9.504 143.792 9.516 143.936 9.54C144.092 9.564 144.236 9.6 144.368 9.648L144.008 11.16C143.792 11.076 143.516 11.034 143.18 11.034C142.724 11.034 142.31 11.154 141.938 11.394C141.578 11.622 141.29 11.928 141.074 12.312C140.858 12.696 140.75 13.122 140.75 13.59V18ZM146.758 15.264V10.98H145.246V9.63H146.758V6.894H148.378V9.63H150.826V10.98H148.378V15.102C148.378 15.774 148.48 16.236 148.684 16.488C148.9 16.74 149.2 16.866 149.584 16.866C149.896 16.866 150.154 16.818 150.358 16.722C150.574 16.626 150.778 16.482 150.97 16.29L151.708 17.28C151.36 17.616 151 17.856 150.628 18C150.268 18.156 149.836 18.234 149.332 18.234C148.456 18.234 147.808 17.994 147.388 17.514C146.968 17.022 146.758 16.272 146.758 15.264ZM152.91 8.136V6.318H154.728V8.136H152.91ZM153.018 18V9.63H154.638V18H153.018ZM158.556 18H156.936V10.494C156.936 10.386 156.936 10.278 156.936 10.17C156.936 10.05 156.93 9.87 156.918 9.63H158.466L158.52 10.89C158.664 10.686 158.856 10.476 159.096 10.26C159.336 10.032 159.636 9.84 159.996 9.684C160.368 9.516 160.812 9.432 161.328 9.432C162.42 9.432 163.23 9.756 163.758 10.404C164.286 11.04 164.55 11.898 164.55 12.978V18H162.93V13.104C162.93 12.324 162.756 11.754 162.408 11.394C162.072 11.022 161.604 10.836 161.004 10.836C160.392 10.836 159.906 10.998 159.546 11.322C159.186 11.634 158.928 12.042 158.772 12.546C158.628 13.05 158.556 13.572 158.556 14.112V18ZM167.087 20.898L167.843 19.71C168.119 19.902 168.455 20.064 168.851 20.196C169.259 20.34 169.751 20.412 170.327 20.412C171.131 20.412 171.731 20.19 172.127 19.746C172.523 19.302 172.721 18.72 172.721 18V16.974C172.613 17.07 172.451 17.208 172.235 17.388C172.019 17.556 171.737 17.712 171.389 17.856C171.053 18 170.633 18.072 170.129 18.072C169.313 18.072 168.617 17.892 168.041 17.532C167.477 17.172 167.045 16.68 166.745 16.056C166.457 15.42 166.313 14.706 166.313 13.914C166.313 13.05 166.511 12.282 166.907 11.61C167.303 10.926 167.855 10.392 168.563 10.008C169.271 9.624 170.093 9.432 171.029 9.432C171.701 9.432 172.331 9.492 172.919 9.612C173.519 9.732 173.999 9.864 174.359 10.008V18C174.359 19.2 174.005 20.136 173.297 20.808C172.589 21.48 171.605 21.816 170.345 21.816C169.493 21.816 168.815 21.72 168.311 21.528C167.807 21.336 167.399 21.126 167.087 20.898ZM172.739 14.58V11.106C172.631 11.07 172.445 11.022 172.181 10.962C171.929 10.89 171.545 10.854 171.029 10.854C170.417 10.854 169.883 10.986 169.427 11.25C168.971 11.502 168.611 11.856 168.347 12.312C168.095 12.768 167.969 13.296 167.969 13.896C167.969 14.4 168.047 14.862 168.203 15.282C168.371 15.702 168.635 16.038 168.995 16.29C169.355 16.542 169.817 16.668 170.381 16.668C170.921 16.668 171.365 16.566 171.713 16.362C172.061 16.158 172.319 15.9 172.487 15.588C172.655 15.264 172.739 14.928 172.739 14.58ZM180.183 20.898L180.939 19.71C181.215 19.902 181.551 20.064 181.947 20.196C182.355 20.34 182.847 20.412 183.423 20.412C184.227 20.412 184.827 20.19 185.223 19.746C185.619 19.302 185.817 18.72 185.817 18V16.974C185.709 17.07 185.547 17.208 185.331 17.388C185.115 17.556 184.833 17.712 184.485 17.856C184.149 18 183.729 18.072 183.225 18.072C182.409 18.072 181.713 17.892 181.137 17.532C180.573 17.172 180.141 16.68 179.841 16.056C179.553 15.42 179.409 14.706 179.409 13.914C179.409 13.05 179.607 12.282 180.003 11.61C180.399 10.926 180.951 10.392 181.659 10.008C182.367 9.624 183.189 9.432 184.125 9.432C184.797 9.432 185.427 9.492 186.015 9.612C186.615 9.732 187.095 9.864 187.455 10.008V18C187.455 19.2 187.101 20.136 186.393 20.808C185.685 21.48 184.701 21.816 183.441 21.816C182.589 21.816 181.911 21.72 181.407 21.528C180.903 21.336 180.495 21.126 180.183 20.898ZM185.835 14.58V11.106C185.727 11.07 185.541 11.022 185.277 10.962C185.025 10.89 184.641 10.854 184.125 10.854C183.513 10.854 182.979 10.986 182.523 11.25C182.067 11.502 181.707 11.856 181.443 12.312C181.191 12.768 181.065 13.296 181.065 13.896C181.065 14.4 181.143 14.862 181.299 15.282C181.467 15.702 181.731 16.038 182.091 16.29C182.451 16.542 182.913 16.668 183.477 16.668C184.017 16.668 184.461 16.566 184.809 16.362C185.157 16.158 185.415 15.9 185.583 15.588C185.751 15.264 185.835 14.928 185.835 14.58ZM191.287 18H189.667V10.44C189.667 10.356 189.667 10.26 189.667 10.152C189.667 10.044 189.661 9.87 189.649 9.63H191.197L191.251 10.98C191.383 10.788 191.563 10.578 191.791 10.35C192.031 10.122 192.331 9.924 192.691 9.756C193.051 9.588 193.483 9.504 193.987 9.504C194.167 9.504 194.329 9.516 194.473 9.54C194.629 9.564 194.773 9.6 194.905 9.648L194.545 11.16C194.329 11.076 194.053 11.034 193.717 11.034C193.261 11.034 192.847 11.154 192.475 11.394C192.115 11.622 191.827 11.928 191.611 12.312C191.395 12.696 191.287 13.122 191.287 13.59V18ZM199.798 18.252C198.946 18.252 198.184 18.054 197.512 17.658C196.84 17.25 196.312 16.71 195.928 16.038C195.556 15.354 195.37 14.61 195.37 13.806C195.37 12.99 195.556 12.246 195.928 11.574C196.312 10.902 196.84 10.368 197.512 9.972C198.184 9.564 198.946 9.36 199.798 9.36C200.65 9.36 201.406 9.564 202.066 9.972C202.738 10.368 203.266 10.902 203.65 11.574C204.034 12.246 204.226 12.99 204.226 13.806C204.226 14.61 204.034 15.354 203.65 16.038C203.266 16.71 202.738 17.25 202.066 17.658C201.406 18.054 200.65 18.252 199.798 18.252ZM199.798 16.848C200.386 16.848 200.884 16.704 201.292 16.416C201.712 16.116 202.03 15.732 202.246 15.264C202.474 14.796 202.588 14.31 202.588 13.806C202.588 13.302 202.474 12.816 202.246 12.348C202.03 11.88 201.712 11.502 201.292 11.214C200.872 10.914 200.374 10.764 199.798 10.764C199.222 10.764 198.724 10.914 198.304 11.214C197.884 11.502 197.56 11.88 197.332 12.348C197.116 12.804 197.008 13.29 197.008 13.806C197.008 14.31 197.122 14.796 197.35 15.264C197.578 15.72 197.896 16.098 198.304 16.398C198.724 16.698 199.222 16.848 199.798 16.848ZM206.013 14.652V9.63H207.633V14.544C207.633 15.324 207.795 15.894 208.119 16.254C208.443 16.614 208.911 16.794 209.523 16.794C210.147 16.794 210.633 16.632 210.981 16.308C211.329 15.984 211.575 15.576 211.719 15.084C211.875 14.58 211.953 14.058 211.953 13.518V9.63H213.573V17.154C213.573 17.202 213.573 17.316 213.573 17.496C213.573 17.664 213.579 17.832 213.591 18H212.043L211.989 16.758C211.857 16.95 211.671 17.16 211.431 17.388C211.191 17.604 210.885 17.79 210.513 17.946C210.153 18.102 209.715 18.18 209.199 18.18C208.107 18.18 207.303 17.862 206.787 17.226C206.271 16.59 206.013 15.732 206.013 14.652ZM217.425 21.6H215.823V10.494C215.823 10.386 215.823 10.278 215.823 10.17C215.823 10.05 215.817 9.87 215.805 9.63H217.353L217.407 10.818C217.527 10.662 217.701 10.482 217.929 10.278C218.169 10.062 218.481 9.87 218.865 9.702C219.249 9.534 219.711 9.45 220.251 9.45C221.115 9.45 221.823 9.654 222.375 10.062C222.939 10.47 223.353 11.01 223.617 11.682C223.893 12.354 224.031 13.08 224.031 13.86C224.031 14.616 223.899 15.276 223.635 15.84C223.383 16.392 223.047 16.848 222.627 17.208C222.207 17.556 221.745 17.82 221.241 18C220.737 18.168 220.239 18.252 219.747 18.252C219.183 18.252 218.733 18.192 218.397 18.072C218.061 17.964 217.737 17.844 217.425 17.712V21.6ZM217.425 14.04V16.182C217.617 16.338 217.893 16.488 218.253 16.632C218.613 16.776 219.063 16.848 219.603 16.848C220.155 16.848 220.635 16.722 221.043 16.47C221.463 16.206 221.787 15.846 222.015 15.39C222.255 14.934 222.375 14.424 222.375 13.86C222.375 13.32 222.291 12.822 222.123 12.366C221.967 11.91 221.709 11.544 221.349 11.268C220.989 10.992 220.503 10.854 219.891 10.854C219.327 10.854 218.835 11.016 218.415 11.34C218.007 11.664 217.719 12.126 217.551 12.726C217.503 12.918 217.467 13.128 217.443 13.356C217.431 13.572 217.425 13.8 217.425 14.04ZM230.714 21.6H229.112V10.494C229.112 10.386 229.112 10.278 229.112 10.17C229.112 10.05 229.106 9.87 229.094 9.63H230.642L230.696 10.818C230.816 10.662 230.99 10.482 231.218 10.278C231.458 10.062 231.77 9.87 232.154 9.702C232.538 9.534 233 9.45 233.54 9.45C234.404 9.45 235.112 9.654 235.664 10.062C236.228 10.47 236.642 11.01 236.906 11.682C237.182 12.354 237.32 13.08 237.32 13.86C237.32 14.616 237.188 15.276 236.924 15.84C236.672 16.392 236.336 16.848 235.916 17.208C235.496 17.556 235.034 17.82 234.53 18C234.026 18.168 233.528 18.252 233.036 18.252C232.472 18.252 232.022 18.192 231.686 18.072C231.35 17.964 231.026 17.844 230.714 17.712V21.6ZM230.714 14.04V16.182C230.906 16.338 231.182 16.488 231.542 16.632C231.902 16.776 232.352 16.848 232.892 16.848C233.444 16.848 233.924 16.722 234.332 16.47C234.752 16.206 235.076 15.846 235.304 15.39C235.544 14.934 235.664 14.424 235.664 13.86C235.664 13.32 235.58 12.822 235.412 12.366C235.256 11.91 234.998 11.544 234.638 11.268C234.278 10.992 233.792 10.854 233.18 10.854C232.616 10.854 232.124 11.016 231.704 11.34C231.296 11.664 231.008 12.126 230.84 12.726C230.792 12.918 230.756 13.128 230.732 13.356C230.72 13.572 230.714 13.8 230.714 14.04ZM244.423 18L244.387 16.992C244.087 17.4 243.673 17.712 243.145 17.928C242.629 18.132 242.107 18.234 241.579 18.234C241.123 18.234 240.667 18.15 240.211 17.982C239.767 17.814 239.395 17.538 239.095 17.154C238.807 16.77 238.663 16.26 238.663 15.624C238.663 14.724 238.981 14.004 239.617 13.464C240.253 12.924 241.159 12.654 242.335 12.654C242.599 12.654 242.869 12.666 243.145 12.69C243.433 12.702 243.691 12.72 243.919 12.744C244.147 12.756 244.297 12.768 244.369 12.78V12.474C244.369 11.85 244.177 11.406 243.793 11.142C243.421 10.866 242.911 10.728 242.263 10.728C241.639 10.728 241.135 10.818 240.751 10.998C240.379 11.166 240.067 11.34 239.815 11.52L239.059 10.422C239.359 10.182 239.773 9.948 240.301 9.72C240.829 9.492 241.543 9.378 242.443 9.378C243.511 9.378 244.357 9.642 244.981 10.17C245.605 10.686 245.917 11.424 245.917 12.384V17.262C245.917 17.346 245.917 17.448 245.917 17.568C245.917 17.688 245.923 17.832 245.935 18H244.423ZM244.369 14.994V14.04C244.309 14.016 244.171 13.998 243.955 13.986C243.739 13.962 243.493 13.944 243.217 13.932C242.953 13.908 242.695 13.896 242.443 13.896C241.843 13.896 241.381 13.986 241.057 14.166C240.745 14.334 240.529 14.55 240.409 14.814C240.301 15.066 240.247 15.318 240.247 15.57C240.247 16.014 240.403 16.356 240.715 16.596C241.027 16.836 241.459 16.956 242.011 16.956C242.431 16.956 242.815 16.866 243.163 16.686C243.523 16.494 243.811 16.248 244.027 15.948C244.255 15.648 244.369 15.33 244.369 14.994ZM248.492 20.898L249.248 19.71C249.524 19.902 249.86 20.064 250.256 20.196C250.664 20.34 251.156 20.412 251.732 20.412C252.536 20.412 253.136 20.19 253.532 19.746C253.928 19.302 254.126 18.72 254.126 18V16.974C254.018 17.07 253.856 17.208 253.64 17.388C253.424 17.556 253.142 17.712 252.794 17.856C252.458 18 252.038 18.072 251.534 18.072C250.718 18.072 250.022 17.892 249.446 17.532C248.882 17.172 248.45 16.68 248.15 16.056C247.862 15.42 247.718 14.706 247.718 13.914C247.718 13.05 247.916 12.282 248.312 11.61C248.708 10.926 249.26 10.392 249.968 10.008C250.676 9.624 251.498 9.432 252.434 9.432C253.106 9.432 253.736 9.492 254.324 9.612C254.924 9.732 255.404 9.864 255.764 10.008V18C255.764 19.2 255.41 20.136 254.702 20.808C253.994 21.48 253.01 21.816 251.75 21.816C250.898 21.816 250.22 21.72 249.716 21.528C249.212 21.336 248.804 21.126 248.492 20.898ZM254.144 14.58V11.106C254.036 11.07 253.85 11.022 253.586 10.962C253.334 10.89 252.95 10.854 252.434 10.854C251.822 10.854 251.288 10.986 250.832 11.25C250.376 11.502 250.016 11.856 249.752 12.312C249.5 12.768 249.374 13.296 249.374 13.896C249.374 14.4 249.452 14.862 249.608 15.282C249.776 15.702 250.04 16.038 250.4 16.29C250.76 16.542 251.222 16.668 251.786 16.668C252.326 16.668 252.77 16.566 253.118 16.362C253.466 16.158 253.724 15.9 253.892 15.588C254.06 15.264 254.144 14.928 254.144 14.58ZM264.689 15.804L265.607 16.776C265.487 16.92 265.271 17.112 264.959 17.352C264.647 17.58 264.239 17.79 263.735 17.982C263.243 18.162 262.643 18.252 261.935 18.252C261.071 18.252 260.309 18.066 259.649 17.694C258.989 17.31 258.473 16.782 258.101 16.11C257.741 15.426 257.561 14.64 257.561 13.752C257.561 12.936 257.735 12.198 258.083 11.538C258.443 10.878 258.935 10.356 259.559 9.972C260.195 9.576 260.921 9.378 261.737 9.378C262.709 9.378 263.495 9.612 264.095 10.08C264.695 10.548 265.133 11.154 265.409 11.898C265.685 12.642 265.823 13.44 265.823 14.292H259.217C259.229 14.784 259.361 15.228 259.613 15.624C259.865 16.008 260.195 16.314 260.603 16.542C261.023 16.758 261.473 16.866 261.953 16.866C262.661 16.866 263.243 16.746 263.699 16.506C264.167 16.266 264.497 16.032 264.689 15.804ZM259.217 13.086H264.149C264.101 12.438 263.873 11.886 263.465 11.43C263.057 10.974 262.481 10.746 261.737 10.746C261.221 10.746 260.777 10.86 260.405 11.088C260.033 11.316 259.745 11.61 259.541 11.97C259.349 12.318 259.241 12.69 259.217 13.086ZM267.176 16.974L268.166 15.894C268.466 16.194 268.826 16.434 269.246 16.614C269.666 16.794 270.152 16.884 270.704 16.884C271.244 16.884 271.694 16.8 272.054 16.632C272.414 16.452 272.594 16.176 272.594 15.804C272.594 15.54 272.522 15.33 272.378 15.174C272.234 15.018 271.988 14.88 271.64 14.76C271.292 14.628 270.812 14.49 270.2 14.346C269.768 14.238 269.348 14.094 268.94 13.914C268.532 13.722 268.196 13.464 267.932 13.14C267.668 12.804 267.536 12.372 267.536 11.844C267.536 11.304 267.692 10.848 268.004 10.476C268.328 10.104 268.742 9.828 269.246 9.648C269.75 9.456 270.278 9.36 270.83 9.36C271.538 9.36 272.15 9.456 272.666 9.648C273.182 9.828 273.626 10.086 273.998 10.422L273.116 11.538C272.864 11.31 272.546 11.118 272.162 10.962C271.79 10.806 271.352 10.728 270.848 10.728C270.332 10.728 269.918 10.812 269.606 10.98C269.294 11.148 269.138 11.424 269.138 11.808C269.138 12.168 269.348 12.438 269.768 12.618C270.188 12.786 270.728 12.948 271.388 13.104C271.916 13.224 272.39 13.386 272.81 13.59C273.242 13.782 273.584 14.046 273.836 14.382C274.1 14.718 274.232 15.156 274.232 15.696C274.232 16.248 274.064 16.716 273.728 17.1C273.404 17.472 272.978 17.76 272.45 17.964C271.922 18.156 271.352 18.252 270.74 18.252C269.156 18.252 267.968 17.826 267.176 16.974Z" fill="black"/>
<path fill-rule="evenodd" clip-rule="evenodd" d="M18.6946 7.93136C19.1467 8.45305 19.0904 9.2425 18.5687 9.69463L11.0687 16.1946C10.5731 16.6241 9.82984 16.5976 9.36612 16.1339L5.36612 12.1339C4.87796 11.6457 4.87796 10.8543 5.36612 10.3661C5.85427 9.87798 6.64573 9.87798 7.13388 10.3661L10.3109 13.5431L16.9313 7.80541C17.453 7.35327 18.2425 7.40966 18.6946 7.93136Z" fill="black"/>
</svg>
