<svg width="136" height="64" viewBox="0 0 136 64" fill="none" xmlns="http://www.w3.org/2000/svg">
<path d="M0.832 47.344L6.208 42.416C6.848 43.0987 7.59467 43.8453 8.448 44.656C9.30133 45.4667 10.304 46.2133 11.456 46.896C12.608 47.536 13.9093 47.9627 15.36 48.176V36.4C12.2453 35.632 9.77067 34.6507 7.936 33.456C6.144 32.2613 4.864 30.896 4.096 29.36C3.37067 27.824 3.008 26.1813 3.008 24.432C3.008 21.5733 4.01067 19.0773 6.016 16.944C8.064 14.8107 11.1787 13.5733 15.36 13.232V7.344H20.16V13.232C22.5493 13.488 24.4907 14 25.984 14.768C27.4773 15.536 28.6507 16.3253 29.504 17.136C30.3573 17.9467 30.9333 18.5227 31.232 18.864L25.92 23.664C25.6213 23.28 24.9813 22.6827 24 21.872C23.0613 21.0187 21.7813 20.3787 20.16 19.952V30.448C22.2933 30.9173 24.2773 31.664 26.112 32.688C27.9893 33.6693 29.504 34.992 30.656 36.656C31.808 38.32 32.384 40.4533 32.384 43.056C32.384 46.2133 31.232 48.8587 28.928 50.992C26.6667 53.0827 23.744 54.3627 20.16 54.832V60.784H15.36V54.96C12.928 54.7467 10.752 54.2347 8.832 53.424C6.95467 52.5707 5.35467 51.5893 4.032 50.48C2.70933 49.3707 1.64267 48.3253 0.832 47.344ZM15.36 29.36V19.696C13.5253 19.952 12.2027 20.528 11.392 21.424C10.624 22.2773 10.24 23.28 10.24 24.432C10.24 25.6267 10.6027 26.608 11.328 27.376C12.0533 28.1013 13.3973 28.7627 15.36 29.36ZM20.16 37.744V48.048C21.8667 47.7493 23.104 47.1733 23.872 46.32C24.64 45.4667 25.024 44.3147 25.024 42.864C25.024 41.7547 24.704 40.7947 24.064 39.984C23.424 39.1733 22.1227 38.4267 20.16 37.744ZM44.667 31.664C43.3443 30.896 42.171 29.7653 41.147 28.272C40.123 26.736 39.611 25.0507 39.611 23.216C39.611 21.0827 40.1443 19.2267 41.211 17.648C42.2777 16.0267 43.771 14.768 45.691 13.872C47.611 12.976 49.8297 12.528 52.347 12.528C56.5283 12.528 59.6857 13.5093 61.819 15.472C63.995 17.392 65.083 19.8667 65.083 22.896C65.083 24.8587 64.5497 26.5867 63.483 28.08C62.4163 29.5733 61.2003 30.6827 59.835 31.408C62.2243 32.432 64.1017 33.904 65.467 35.824C66.8323 37.7013 67.515 39.9413 67.515 42.544C67.515 43.9093 67.2377 45.3387 66.683 46.832C66.1283 48.2827 65.2323 49.6267 63.995 50.864C62.8003 52.1013 61.243 53.104 59.323 53.872C57.403 54.64 55.0777 55.024 52.347 55.024C49.5737 55.024 47.227 54.6613 45.307 53.936C43.387 53.168 41.8297 52.1653 40.635 50.928C39.4403 49.6907 38.5657 48.3467 38.011 46.896C37.4563 45.4453 37.179 44.0373 37.179 42.672C37.179 40.0693 37.8617 37.8293 39.227 35.952C40.635 34.032 42.4483 32.6027 44.667 31.664ZM52.347 28.976C54.0537 28.5067 55.419 27.696 56.443 26.544C57.467 25.392 57.979 24.2187 57.979 23.024C57.979 21.616 57.4457 20.464 56.379 19.568C55.355 18.6293 54.011 18.16 52.347 18.16C50.7683 18.16 49.4243 18.6293 48.315 19.568C47.2483 20.5067 46.715 21.7227 46.715 23.216C46.715 24.3253 47.227 25.456 48.251 26.608C49.275 27.7173 50.6403 28.5067 52.347 28.976ZM52.219 35.184C50.2563 35.6107 48.5283 36.4853 47.035 37.808C45.5843 39.088 44.859 40.6453 44.859 42.48C44.859 43.9733 45.243 45.1893 46.011 46.128C46.779 47.0667 47.739 47.7493 48.891 48.176C50.043 48.6027 51.195 48.816 52.347 48.816C53.499 48.816 54.651 48.6027 55.803 48.176C56.955 47.7493 57.915 47.0667 58.683 46.128C59.451 45.1893 59.835 43.9733 59.835 42.48C59.835 41.2427 59.4723 40.1333 58.747 39.152C58.0217 38.1707 57.083 37.3387 55.931 36.656C54.779 35.9307 53.5417 35.44 52.219 35.184Z" fill="black"/>
<path d="M78.45 55.288L83.238 42.67H84.84L80.088 55.288H78.45ZM86.1849 55L86.7429 42.994H88.3989L92.0529 49.24L95.7069 42.994H97.3269L97.8849 55H96.1929L95.7969 45.784L92.4129 51.454H91.5489L88.2189 45.856L87.8049 55H86.1849ZM104.101 55.252C103.249 55.252 102.487 55.054 101.815 54.658C101.143 54.25 100.615 53.71 100.231 53.038C99.8591 52.354 99.6731 51.61 99.6731 50.806C99.6731 49.99 99.8591 49.246 100.231 48.574C100.615 47.902 101.143 47.368 101.815 46.972C102.487 46.564 103.249 46.36 104.101 46.36C104.953 46.36 105.709 46.564 106.369 46.972C107.041 47.368 107.569 47.902 107.953 48.574C108.337 49.246 108.529 49.99 108.529 50.806C108.529 51.61 108.337 52.354 107.953 53.038C107.569 53.71 107.041 54.25 106.369 54.658C105.709 55.054 104.953 55.252 104.101 55.252ZM104.101 53.848C104.689 53.848 105.187 53.704 105.595 53.416C106.015 53.116 106.333 52.732 106.549 52.264C106.777 51.796 106.891 51.31 106.891 50.806C106.891 50.302 106.777 49.816 106.549 49.348C106.333 48.88 106.015 48.502 105.595 48.214C105.175 47.914 104.677 47.764 104.101 47.764C103.525 47.764 103.027 47.914 102.607 48.214C102.187 48.502 101.863 48.88 101.635 49.348C101.419 49.804 101.311 50.29 101.311 50.806C101.311 51.31 101.425 51.796 101.653 52.264C101.881 52.72 102.199 53.098 102.607 53.398C103.027 53.698 103.525 53.848 104.101 53.848ZM111.99 55H110.37V47.494C110.37 47.386 110.37 47.278 110.37 47.17C110.37 47.05 110.364 46.87 110.352 46.63H111.9L111.954 47.89C112.098 47.686 112.29 47.476 112.53 47.26C112.77 47.032 113.07 46.84 113.43 46.684C113.802 46.516 114.246 46.432 114.762 46.432C115.854 46.432 116.664 46.756 117.192 47.404C117.72 48.04 117.984 48.898 117.984 49.978V55H116.364V50.104C116.364 49.324 116.19 48.754 115.842 48.394C115.506 48.022 115.038 47.836 114.438 47.836C113.826 47.836 113.34 47.998 112.98 48.322C112.62 48.634 112.362 49.042 112.206 49.546C112.062 50.05 111.99 50.572 111.99 51.112V55ZM120.881 52.264V47.98H119.369V46.63H120.881V43.894H122.501V46.63H124.949V47.98H122.501V52.102C122.501 52.774 122.603 53.236 122.807 53.488C123.023 53.74 123.323 53.866 123.707 53.866C124.019 53.866 124.277 53.818 124.481 53.722C124.697 53.626 124.901 53.482 125.093 53.29L125.831 54.28C125.483 54.616 125.123 54.856 124.751 55C124.391 55.156 123.959 55.234 123.455 55.234C122.579 55.234 121.931 54.994 121.511 54.514C121.091 54.022 120.881 53.272 120.881 52.264ZM127.051 55V42.994H128.653V47.872C128.797 47.668 128.983 47.458 129.211 47.242C129.451 47.014 129.751 46.822 130.111 46.666C130.483 46.51 130.927 46.432 131.443 46.432C132.535 46.432 133.345 46.756 133.873 47.404C134.401 48.04 134.665 48.898 134.665 49.978V55H133.045V50.104C133.045 49.324 132.871 48.754 132.523 48.394C132.187 48.022 131.719 47.836 131.119 47.836C130.507 47.836 130.021 47.998 129.661 48.322C129.301 48.634 129.043 49.042 128.887 49.546C128.743 50.05 128.671 50.572 128.671 51.112V55H127.051Z" fill="black"/>
</svg>
