<svg width="234" height="24" viewBox="0 0 234 24" fill="none" xmlns="http://www.w3.org/2000/svg">
<path d="M34.538 18V16.56H36.554V8.406L34.214 9.666L33.548 8.388L36.734 6.642H38.192V16.56H40.172V18H34.538ZM42.4926 17.064L43.4106 15.876C43.7466 16.14 44.1186 16.368 44.5266 16.56C44.9346 16.752 45.4326 16.848 46.0206 16.848C46.8606 16.848 47.4846 16.614 47.8926 16.146C48.3126 15.678 48.5226 15.114 48.5226 14.454C48.5226 14.142 48.4566 13.818 48.3246 13.482C48.1926 13.134 47.9526 12.84 47.6046 12.6C47.2566 12.348 46.7586 12.222 46.1106 12.222C45.6306 12.222 45.2406 12.27 44.9406 12.366C44.6526 12.462 44.3886 12.57 44.1486 12.69L43.3206 12.06L44.4006 6.66H49.9626V8.172H45.5346L45.0126 11.142C45.1326 11.07 45.3246 11.004 45.5886 10.944C45.8526 10.872 46.1706 10.836 46.5426 10.836C47.6106 10.836 48.4866 11.148 49.1706 11.772C49.8666 12.384 50.2146 13.26 50.2146 14.4C50.2146 15.096 50.0646 15.744 49.7646 16.344C49.4646 16.932 48.9966 17.406 48.3606 17.766C47.7366 18.126 46.9266 18.306 45.9306 18.306C45.1386 18.306 44.4606 18.186 43.8966 17.946C43.3446 17.694 42.8766 17.4 42.4926 17.064ZM56.2371 18V5.994H60.2511C61.5231 5.994 62.6451 6.21 63.6171 6.642C64.6011 7.062 65.3691 7.716 65.9211 8.604C66.4851 9.492 66.7671 10.632 66.7671 12.024C66.7671 13.368 66.4851 14.484 65.9211 15.372C65.3691 16.26 64.6011 16.92 63.6171 17.352C62.6331 17.784 61.5051 18 60.2331 18H56.2371ZM57.9651 16.452H60.1971C61.6971 16.452 62.8611 16.086 63.6891 15.354C64.5291 14.61 64.9491 13.512 64.9491 12.06C64.9491 10.596 64.5411 9.48 63.7251 8.712C62.9211 7.932 61.7271 7.542 60.1431 7.542H57.9651V16.452ZM74.0384 18L74.0024 16.992C73.7024 17.4 73.2884 17.712 72.7604 17.928C72.2444 18.132 71.7224 18.234 71.1944 18.234C70.7384 18.234 70.2824 18.15 69.8264 17.982C69.3824 17.814 69.0104 17.538 68.7104 17.154C68.4224 16.77 68.2784 16.26 68.2784 15.624C68.2784 14.724 68.5964 14.004 69.2324 13.464C69.8684 12.924 70.7744 12.654 71.9504 12.654C72.2144 12.654 72.4844 12.666 72.7604 12.69C73.0484 12.702 73.3064 12.72 73.5344 12.744C73.7624 12.756 73.9124 12.768 73.9844 12.78V12.474C73.9844 11.85 73.7924 11.406 73.4084 11.142C73.0364 10.866 72.5264 10.728 71.8784 10.728C71.2544 10.728 70.7504 10.818 70.3664 10.998C69.9944 11.166 69.6824 11.34 69.4304 11.52L68.6744 10.422C68.9744 10.182 69.3884 9.948 69.9164 9.72C70.4444 9.492 71.1584 9.378 72.0584 9.378C73.1264 9.378 73.9724 9.642 74.5964 10.17C75.2204 10.686 75.5324 11.424 75.5324 12.384V17.262C75.5324 17.346 75.5324 17.448 75.5324 17.568C75.5324 17.688 75.5384 17.832 75.5504 18H74.0384ZM73.9844 14.994V14.04C73.9244 14.016 73.7864 13.998 73.5704 13.986C73.3544 13.962 73.1084 13.944 72.8324 13.932C72.5684 13.908 72.3104 13.896 72.0584 13.896C71.4584 13.896 70.9964 13.986 70.6724 14.166C70.3604 14.334 70.1444 14.55 70.0244 14.814C69.9164 15.066 69.8624 15.318 69.8624 15.57C69.8624 16.014 70.0184 16.356 70.3304 16.596C70.6424 16.836 71.0744 16.956 71.6264 16.956C72.0464 16.956 72.4304 16.866 72.7784 16.686C73.1384 16.494 73.4264 16.248 73.6424 15.948C73.8704 15.648 73.9844 15.33 73.9844 14.994ZM76.6933 21.186L77.4313 20.052C77.5513 20.16 77.6893 20.256 77.8453 20.34C78.0013 20.424 78.1933 20.466 78.4213 20.466C78.8053 20.466 79.0933 20.292 79.2853 19.944C79.4773 19.608 79.7053 19.116 79.9693 18.468L80.1853 17.928L76.4413 9.63H78.2953L80.9953 15.948L83.3713 9.63H85.1353L81.7873 17.784C81.6313 18.156 81.4693 18.57 81.3013 19.026C81.1333 19.494 80.9353 19.938 80.7073 20.358C80.4793 20.79 80.1853 21.138 79.8253 21.402C79.4773 21.678 79.0393 21.816 78.5113 21.816C78.0913 21.816 77.7373 21.756 77.4493 21.636C77.1613 21.528 76.9093 21.378 76.6933 21.186ZM85.7168 16.974L86.7068 15.894C87.0068 16.194 87.3668 16.434 87.7868 16.614C88.2068 16.794 88.6928 16.884 89.2448 16.884C89.7848 16.884 90.2348 16.8 90.5948 16.632C90.9548 16.452 91.1348 16.176 91.1348 15.804C91.1348 15.54 91.0628 15.33 90.9188 15.174C90.7748 15.018 90.5288 14.88 90.1808 14.76C89.8328 14.628 89.3528 14.49 88.7408 14.346C88.3088 14.238 87.8888 14.094 87.4808 13.914C87.0728 13.722 86.7368 13.464 86.4728 13.14C86.2088 12.804 86.0768 12.372 86.0768 11.844C86.0768 11.304 86.2328 10.848 86.5448 10.476C86.8688 10.104 87.2828 9.828 87.7868 9.648C88.2908 9.456 88.8188 9.36 89.3708 9.36C90.0788 9.36 90.6908 9.456 91.2068 9.648C91.7228 9.828 92.1668 10.086 92.5388 10.422L91.6568 11.538C91.4048 11.31 91.0868 11.118 90.7028 10.962C90.3308 10.806 89.8928 10.728 89.3888 10.728C88.8728 10.728 88.4588 10.812 88.1468 10.98C87.8348 11.148 87.6788 11.424 87.6788 11.808C87.6788 12.168 87.8888 12.438 88.3088 12.618C88.7288 12.786 89.2688 12.948 89.9288 13.104C90.4568 13.224 90.9308 13.386 91.3508 13.59C91.7828 13.782 92.1248 14.046 92.3768 14.382C92.6408 14.718 92.7728 15.156 92.7728 15.696C92.7728 16.248 92.6048 16.716 92.2688 17.1C91.9448 17.472 91.5188 17.76 90.9908 17.964C90.4628 18.156 89.8928 18.252 89.2808 18.252C87.6968 18.252 86.5088 17.826 85.7168 16.974ZM98.269 20.898L99.025 19.71C99.301 19.902 99.637 20.064 100.033 20.196C100.441 20.34 100.933 20.412 101.509 20.412C102.313 20.412 102.913 20.19 103.309 19.746C103.705 19.302 103.903 18.72 103.903 18V16.974C103.795 17.07 103.633 17.208 103.417 17.388C103.201 17.556 102.919 17.712 102.571 17.856C102.235 18 101.815 18.072 101.311 18.072C100.495 18.072 99.799 17.892 99.223 17.532C98.659 17.172 98.227 16.68 97.927 16.056C97.639 15.42 97.495 14.706 97.495 13.914C97.495 13.05 97.693 12.282 98.089 11.61C98.485 10.926 99.037 10.392 99.745 10.008C100.453 9.624 101.275 9.432 102.211 9.432C102.883 9.432 103.513 9.492 104.101 9.612C104.701 9.732 105.181 9.864 105.541 10.008V18C105.541 19.2 105.187 20.136 104.479 20.808C103.771 21.48 102.787 21.816 101.527 21.816C100.675 21.816 99.997 21.72 99.493 21.528C98.989 21.336 98.581 21.126 98.269 20.898ZM103.921 14.58V11.106C103.813 11.07 103.627 11.022 103.363 10.962C103.111 10.89 102.727 10.854 102.211 10.854C101.599 10.854 101.065 10.986 100.609 11.25C100.153 11.502 99.793 11.856 99.529 12.312C99.277 12.768 99.151 13.296 99.151 13.896C99.151 14.4 99.229 14.862 99.385 15.282C99.553 15.702 99.817 16.038 100.177 16.29C100.537 16.542 100.999 16.668 101.563 16.668C102.103 16.668 102.547 16.566 102.895 16.362C103.243 16.158 103.501 15.9 103.669 15.588C103.837 15.264 103.921 14.928 103.921 14.58ZM109.373 18H107.753V10.44C107.753 10.356 107.753 10.26 107.753 10.152C107.753 10.044 107.747 9.87 107.735 9.63H109.283L109.337 10.98C109.469 10.788 109.649 10.578 109.877 10.35C110.117 10.122 110.417 9.924 110.777 9.756C111.137 9.588 111.569 9.504 112.073 9.504C112.253 9.504 112.415 9.516 112.559 9.54C112.715 9.564 112.859 9.6 112.991 9.648L112.631 11.16C112.415 11.076 112.139 11.034 111.803 11.034C111.347 11.034 110.933 11.154 110.561 11.394C110.201 11.622 109.913 11.928 109.697 12.312C109.481 12.696 109.373 13.122 109.373 13.59V18ZM117.884 18.252C117.032 18.252 116.27 18.054 115.598 17.658C114.926 17.25 114.398 16.71 114.014 16.038C113.642 15.354 113.456 14.61 113.456 13.806C113.456 12.99 113.642 12.246 114.014 11.574C114.398 10.902 114.926 10.368 115.598 9.972C116.27 9.564 117.032 9.36 117.884 9.36C118.736 9.36 119.492 9.564 120.152 9.972C120.824 10.368 121.352 10.902 121.736 11.574C122.12 12.246 122.312 12.99 122.312 13.806C122.312 14.61 122.12 15.354 121.736 16.038C121.352 16.71 120.824 17.25 120.152 17.658C119.492 18.054 118.736 18.252 117.884 18.252ZM117.884 16.848C118.472 16.848 118.97 16.704 119.378 16.416C119.798 16.116 120.116 15.732 120.332 15.264C120.56 14.796 120.674 14.31 120.674 13.806C120.674 13.302 120.56 12.816 120.332 12.348C120.116 11.88 119.798 11.502 119.378 11.214C118.958 10.914 118.46 10.764 117.884 10.764C117.308 10.764 116.81 10.914 116.39 11.214C115.97 11.502 115.646 11.88 115.418 12.348C115.202 12.804 115.094 13.29 115.094 13.806C115.094 14.31 115.208 14.796 115.436 15.264C115.664 15.72 115.982 16.098 116.39 16.398C116.81 16.698 117.308 16.848 117.884 16.848ZM124.099 14.652V9.63H125.719V14.544C125.719 15.324 125.881 15.894 126.205 16.254C126.529 16.614 126.997 16.794 127.609 16.794C128.233 16.794 128.719 16.632 129.067 16.308C129.415 15.984 129.661 15.576 129.805 15.084C129.961 14.58 130.039 14.058 130.039 13.518V9.63H131.659V17.154C131.659 17.202 131.659 17.316 131.659 17.496C131.659 17.664 131.665 17.832 131.677 18H130.129L130.075 16.758C129.943 16.95 129.757 17.16 129.517 17.388C129.277 17.604 128.971 17.79 128.599 17.946C128.239 18.102 127.801 18.18 127.285 18.18C126.193 18.18 125.389 17.862 124.873 17.226C124.357 16.59 124.099 15.732 124.099 14.652ZM135.511 21.6H133.909V10.494C133.909 10.386 133.909 10.278 133.909 10.17C133.909 10.05 133.903 9.87 133.891 9.63H135.439L135.493 10.818C135.613 10.662 135.787 10.482 136.015 10.278C136.255 10.062 136.567 9.87 136.951 9.702C137.335 9.534 137.797 9.45 138.337 9.45C139.201 9.45 139.909 9.654 140.461 10.062C141.025 10.47 141.439 11.01 141.703 11.682C141.979 12.354 142.117 13.08 142.117 13.86C142.117 14.616 141.985 15.276 141.721 15.84C141.469 16.392 141.133 16.848 140.713 17.208C140.293 17.556 139.831 17.82 139.327 18C138.823 18.168 138.325 18.252 137.833 18.252C137.269 18.252 136.819 18.192 136.483 18.072C136.147 17.964 135.823 17.844 135.511 17.712V21.6ZM135.511 14.04V16.182C135.703 16.338 135.979 16.488 136.339 16.632C136.699 16.776 137.149 16.848 137.689 16.848C138.241 16.848 138.721 16.722 139.129 16.47C139.549 16.206 139.873 15.846 140.101 15.39C140.341 14.934 140.461 14.424 140.461 13.86C140.461 13.32 140.377 12.822 140.209 12.366C140.053 11.91 139.795 11.544 139.435 11.268C139.075 10.992 138.589 10.854 137.977 10.854C137.413 10.854 136.921 11.016 136.501 11.34C136.093 11.664 135.805 12.126 135.637 12.726C135.589 12.918 135.553 13.128 135.529 13.356C135.517 13.572 135.511 13.8 135.511 14.04ZM148.8 21.6H147.198V10.494C147.198 10.386 147.198 10.278 147.198 10.17C147.198 10.05 147.192 9.87 147.18 9.63H148.728L148.782 10.818C148.902 10.662 149.076 10.482 149.304 10.278C149.544 10.062 149.856 9.87 150.24 9.702C150.624 9.534 151.086 9.45 151.626 9.45C152.49 9.45 153.198 9.654 153.75 10.062C154.314 10.47 154.728 11.01 154.992 11.682C155.268 12.354 155.406 13.08 155.406 13.86C155.406 14.616 155.274 15.276 155.01 15.84C154.758 16.392 154.422 16.848 154.002 17.208C153.582 17.556 153.12 17.82 152.616 18C152.112 18.168 151.614 18.252 151.122 18.252C150.558 18.252 150.108 18.192 149.772 18.072C149.436 17.964 149.112 17.844 148.8 17.712V21.6ZM148.8 14.04V16.182C148.992 16.338 149.268 16.488 149.628 16.632C149.988 16.776 150.438 16.848 150.978 16.848C151.53 16.848 152.01 16.722 152.418 16.47C152.838 16.206 153.162 15.846 153.39 15.39C153.63 14.934 153.75 14.424 153.75 13.86C153.75 13.32 153.666 12.822 153.498 12.366C153.342 11.91 153.084 11.544 152.724 11.268C152.364 10.992 151.878 10.854 151.266 10.854C150.702 10.854 150.21 11.016 149.79 11.34C149.382 11.664 149.094 12.126 148.926 12.726C148.878 12.918 148.842 13.128 148.818 13.356C148.806 13.572 148.8 13.8 148.8 14.04ZM162.509 18L162.473 16.992C162.173 17.4 161.759 17.712 161.231 17.928C160.715 18.132 160.193 18.234 159.665 18.234C159.209 18.234 158.753 18.15 158.297 17.982C157.853 17.814 157.481 17.538 157.181 17.154C156.893 16.77 156.749 16.26 156.749 15.624C156.749 14.724 157.067 14.004 157.703 13.464C158.339 12.924 159.245 12.654 160.421 12.654C160.685 12.654 160.955 12.666 161.231 12.69C161.519 12.702 161.777 12.72 162.005 12.744C162.233 12.756 162.383 12.768 162.455 12.78V12.474C162.455 11.85 162.263 11.406 161.879 11.142C161.507 10.866 160.997 10.728 160.349 10.728C159.725 10.728 159.221 10.818 158.837 10.998C158.465 11.166 158.153 11.34 157.901 11.52L157.145 10.422C157.445 10.182 157.859 9.948 158.387 9.72C158.915 9.492 159.629 9.378 160.529 9.378C161.597 9.378 162.443 9.642 163.067 10.17C163.691 10.686 164.003 11.424 164.003 12.384V17.262C164.003 17.346 164.003 17.448 164.003 17.568C164.003 17.688 164.009 17.832 164.021 18H162.509ZM162.455 14.994V14.04C162.395 14.016 162.257 13.998 162.041 13.986C161.825 13.962 161.579 13.944 161.303 13.932C161.039 13.908 160.781 13.896 160.529 13.896C159.929 13.896 159.467 13.986 159.143 14.166C158.831 14.334 158.615 14.55 158.495 14.814C158.387 15.066 158.333 15.318 158.333 15.57C158.333 16.014 158.489 16.356 158.801 16.596C159.113 16.836 159.545 16.956 160.097 16.956C160.517 16.956 160.901 16.866 161.249 16.686C161.609 16.494 161.897 16.248 162.113 15.948C162.341 15.648 162.455 15.33 162.455 14.994ZM166.578 20.898L167.334 19.71C167.61 19.902 167.946 20.064 168.342 20.196C168.75 20.34 169.242 20.412 169.818 20.412C170.622 20.412 171.222 20.19 171.618 19.746C172.014 19.302 172.212 18.72 172.212 18V16.974C172.104 17.07 171.942 17.208 171.726 17.388C171.51 17.556 171.228 17.712 170.88 17.856C170.544 18 170.124 18.072 169.62 18.072C168.804 18.072 168.108 17.892 167.532 17.532C166.968 17.172 166.536 16.68 166.236 16.056C165.948 15.42 165.804 14.706 165.804 13.914C165.804 13.05 166.002 12.282 166.398 11.61C166.794 10.926 167.346 10.392 168.054 10.008C168.762 9.624 169.584 9.432 170.52 9.432C171.192 9.432 171.822 9.492 172.41 9.612C173.01 9.732 173.49 9.864 173.85 10.008V18C173.85 19.2 173.496 20.136 172.788 20.808C172.08 21.48 171.096 21.816 169.836 21.816C168.984 21.816 168.306 21.72 167.802 21.528C167.298 21.336 166.89 21.126 166.578 20.898ZM172.23 14.58V11.106C172.122 11.07 171.936 11.022 171.672 10.962C171.42 10.89 171.036 10.854 170.52 10.854C169.908 10.854 169.374 10.986 168.918 11.25C168.462 11.502 168.102 11.856 167.838 12.312C167.586 12.768 167.46 13.296 167.46 13.896C167.46 14.4 167.538 14.862 167.694 15.282C167.862 15.702 168.126 16.038 168.486 16.29C168.846 16.542 169.308 16.668 169.872 16.668C170.412 16.668 170.856 16.566 171.204 16.362C171.552 16.158 171.81 15.9 171.978 15.588C172.146 15.264 172.23 14.928 172.23 14.58ZM182.775 15.804L183.693 16.776C183.573 16.92 183.357 17.112 183.045 17.352C182.733 17.58 182.325 17.79 181.821 17.982C181.329 18.162 180.729 18.252 180.021 18.252C179.157 18.252 178.395 18.066 177.735 17.694C177.075 17.31 176.559 16.782 176.187 16.11C175.827 15.426 175.647 14.64 175.647 13.752C175.647 12.936 175.821 12.198 176.169 11.538C176.529 10.878 177.021 10.356 177.645 9.972C178.281 9.576 179.007 9.378 179.823 9.378C180.795 9.378 181.581 9.612 182.181 10.08C182.781 10.548 183.219 11.154 183.495 11.898C183.771 12.642 183.909 13.44 183.909 14.292H177.303C177.315 14.784 177.447 15.228 177.699 15.624C177.951 16.008 178.281 16.314 178.689 16.542C179.109 16.758 179.559 16.866 180.039 16.866C180.747 16.866 181.329 16.746 181.785 16.506C182.253 16.266 182.583 16.032 182.775 15.804ZM177.303 13.086H182.235C182.187 12.438 181.959 11.886 181.551 11.43C181.143 10.974 180.567 10.746 179.823 10.746C179.307 10.746 178.863 10.86 178.491 11.088C178.119 11.316 177.831 11.61 177.627 11.97C177.435 12.318 177.327 12.69 177.303 13.086ZM188.514 16.974L189.504 15.894C189.804 16.194 190.164 16.434 190.584 16.614C191.004 16.794 191.49 16.884 192.042 16.884C192.582 16.884 193.032 16.8 193.392 16.632C193.752 16.452 193.932 16.176 193.932 15.804C193.932 15.54 193.86 15.33 193.716 15.174C193.572 15.018 193.326 14.88 192.978 14.76C192.63 14.628 192.15 14.49 191.538 14.346C191.106 14.238 190.686 14.094 190.278 13.914C189.87 13.722 189.534 13.464 189.27 13.14C189.006 12.804 188.874 12.372 188.874 11.844C188.874 11.304 189.03 10.848 189.342 10.476C189.666 10.104 190.08 9.828 190.584 9.648C191.088 9.456 191.616 9.36 192.168 9.36C192.876 9.36 193.488 9.456 194.004 9.648C194.52 9.828 194.964 10.086 195.336 10.422L194.454 11.538C194.202 11.31 193.884 11.118 193.5 10.962C193.128 10.806 192.69 10.728 192.186 10.728C191.67 10.728 191.256 10.812 190.944 10.98C190.632 11.148 190.476 11.424 190.476 11.808C190.476 12.168 190.686 12.438 191.106 12.618C191.526 12.786 192.066 12.948 192.726 13.104C193.254 13.224 193.728 13.386 194.148 13.59C194.58 13.782 194.922 14.046 195.174 14.382C195.438 14.718 195.57 15.156 195.57 15.696C195.57 16.248 195.402 16.716 195.066 17.1C194.742 17.472 194.316 17.76 193.788 17.964C193.26 18.156 192.69 18.252 192.078 18.252C190.494 18.252 189.306 17.826 188.514 16.974ZM202.728 18L202.692 16.992C202.392 17.4 201.978 17.712 201.45 17.928C200.934 18.132 200.412 18.234 199.884 18.234C199.428 18.234 198.972 18.15 198.516 17.982C198.072 17.814 197.7 17.538 197.4 17.154C197.112 16.77 196.968 16.26 196.968 15.624C196.968 14.724 197.286 14.004 197.922 13.464C198.558 12.924 199.464 12.654 200.64 12.654C200.904 12.654 201.174 12.666 201.45 12.69C201.738 12.702 201.996 12.72 202.224 12.744C202.452 12.756 202.602 12.768 202.674 12.78V12.474C202.674 11.85 202.482 11.406 202.098 11.142C201.726 10.866 201.216 10.728 200.568 10.728C199.944 10.728 199.44 10.818 199.056 10.998C198.684 11.166 198.372 11.34 198.12 11.52L197.364 10.422C197.664 10.182 198.078 9.948 198.606 9.72C199.134 9.492 199.848 9.378 200.748 9.378C201.816 9.378 202.662 9.642 203.286 10.17C203.91 10.686 204.222 11.424 204.222 12.384V17.262C204.222 17.346 204.222 17.448 204.222 17.568C204.222 17.688 204.228 17.832 204.24 18H202.728ZM202.674 14.994V14.04C202.614 14.016 202.476 13.998 202.26 13.986C202.044 13.962 201.798 13.944 201.522 13.932C201.258 13.908 201 13.896 200.748 13.896C200.148 13.896 199.686 13.986 199.362 14.166C199.05 14.334 198.834 14.55 198.714 14.814C198.606 15.066 198.552 15.318 198.552 15.57C198.552 16.014 198.708 16.356 199.02 16.596C199.332 16.836 199.764 16.956 200.316 16.956C200.736 16.956 201.12 16.866 201.468 16.686C201.828 16.494 202.116 16.248 202.332 15.948C202.56 15.648 202.674 15.33 202.674 14.994ZM208.677 18L205.077 9.63H206.931L209.541 16.164L212.133 9.63H213.879L210.297 18H208.677ZM221.377 15.804L222.295 16.776C222.175 16.92 221.959 17.112 221.647 17.352C221.335 17.58 220.927 17.79 220.423 17.982C219.931 18.162 219.331 18.252 218.623 18.252C217.759 18.252 216.997 18.066 216.337 17.694C215.677 17.31 215.161 16.782 214.789 16.11C214.429 15.426 214.249 14.64 214.249 13.752C214.249 12.936 214.423 12.198 214.771 11.538C215.131 10.878 215.623 10.356 216.247 9.972C216.883 9.576 217.609 9.378 218.425 9.378C219.397 9.378 220.183 9.612 220.783 10.08C221.383 10.548 221.821 11.154 222.097 11.898C222.373 12.642 222.511 13.44 222.511 14.292H215.905C215.917 14.784 216.049 15.228 216.301 15.624C216.553 16.008 216.883 16.314 217.291 16.542C217.711 16.758 218.161 16.866 218.641 16.866C219.349 16.866 219.931 16.746 220.387 16.506C220.855 16.266 221.185 16.032 221.377 15.804ZM215.905 13.086H220.837C220.789 12.438 220.561 11.886 220.153 11.43C219.745 10.974 219.169 10.746 218.425 10.746C217.909 10.746 217.465 10.86 217.093 11.088C216.721 11.316 216.433 11.61 216.229 11.97C216.037 12.318 215.929 12.69 215.905 13.086ZM230.397 18L230.343 16.938C230.259 17.034 230.103 17.19 229.875 17.406C229.659 17.622 229.365 17.82 228.993 18C228.621 18.168 228.165 18.252 227.625 18.252C226.917 18.252 226.281 18.078 225.717 17.73C225.153 17.37 224.709 16.866 224.385 16.218C224.061 15.57 223.899 14.808 223.899 13.932C223.899 13.14 224.031 12.462 224.295 11.898C224.571 11.322 224.925 10.854 225.357 10.494C225.789 10.134 226.251 9.87 226.743 9.702C227.247 9.522 227.721 9.432 228.165 9.432C228.621 9.432 229.011 9.48 229.335 9.576C229.671 9.672 230.007 9.804 230.343 9.972V5.994H231.963V17.154C231.963 17.202 231.963 17.316 231.963 17.496C231.963 17.664 231.969 17.832 231.981 18H230.397ZM230.343 14.472V11.484C230.127 11.304 229.851 11.154 229.515 11.034C229.179 10.914 228.771 10.854 228.291 10.854C227.511 10.854 226.857 11.13 226.329 11.682C225.813 12.234 225.555 12.99 225.555 13.95C225.555 14.478 225.639 14.964 225.807 15.408C225.987 15.852 226.257 16.206 226.617 16.47C226.977 16.722 227.433 16.848 227.985 16.848C228.549 16.848 228.999 16.722 229.335 16.47C229.683 16.206 229.935 15.888 230.091 15.516C230.259 15.144 230.343 14.796 230.343 14.472Z" fill="black"/>
<path fill-rule="evenodd" clip-rule="evenodd" d="M18.6946 7.93136C19.1467 8.45305 19.0904 9.2425 18.5687 9.69463L11.0687 16.1946C10.5731 16.6241 9.82984 16.5976 9.36612 16.1339L5.36612 12.1339C4.87796 11.6457 4.87796 10.8543 5.36612 10.3661C5.85427 9.87798 6.64573 9.87798 7.13388 10.3661L10.3109 13.5431L16.9313 7.80541C17.453 7.35327 18.2425 7.40966 18.6946 7.93136Z" fill="black"/>
</svg>
