<svg width="171" height="64" viewBox="0 0 171 64" fill="none" xmlns="http://www.w3.org/2000/svg">
<path d="M0.832 47.344L6.208 42.416C6.848 43.0987 7.59467 43.8453 8.448 44.656C9.30133 45.4667 10.304 46.2133 11.456 46.896C12.608 47.536 13.9093 47.9627 15.36 48.176V36.4C12.2453 35.632 9.77067 34.6507 7.936 33.456C6.144 32.2613 4.864 30.896 4.096 29.36C3.37067 27.824 3.008 26.1813 3.008 24.432C3.008 21.5733 4.01067 19.0773 6.016 16.944C8.064 14.8107 11.1787 13.5733 15.36 13.232V7.344H20.16V13.232C22.5493 13.488 24.4907 14 25.984 14.768C27.4773 15.536 28.6507 16.3253 29.504 17.136C30.3573 17.9467 30.9333 18.5227 31.232 18.864L25.92 23.664C25.6213 23.28 24.9813 22.6827 24 21.872C23.0613 21.0187 21.7813 20.3787 20.16 19.952V30.448C22.2933 30.9173 24.2773 31.664 26.112 32.688C27.9893 33.6693 29.504 34.992 30.656 36.656C31.808 38.32 32.384 40.4533 32.384 43.056C32.384 46.2133 31.232 48.8587 28.928 50.992C26.6667 53.0827 23.744 54.3627 20.16 54.832V60.784H15.36V54.96C12.928 54.7467 10.752 54.2347 8.832 53.424C6.95467 52.5707 5.35467 51.5893 4.032 50.48C2.70933 49.3707 1.64267 48.3253 0.832 47.344ZM15.36 29.36V19.696C13.5253 19.952 12.2027 20.528 11.392 21.424C10.624 22.2773 10.24 23.28 10.24 24.432C10.24 25.6267 10.6027 26.608 11.328 27.376C12.0533 28.1013 13.3973 28.7627 15.36 29.36ZM20.16 37.744V48.048C21.8667 47.7493 23.104 47.1733 23.872 46.32C24.64 45.4667 25.024 44.3147 25.024 42.864C25.024 41.7547 24.704 40.7947 24.064 39.984C23.424 39.1733 22.1227 38.4267 20.16 37.744ZM38.907 54V48.944C38.907 46.4693 39.419 44.3147 40.443 42.48C41.5097 40.6027 42.811 38.9173 44.347 37.424C45.9257 35.9307 47.5043 34.5227 49.083 33.2C50.6617 31.8347 52.0057 30.704 53.115 29.808C54.2243 28.912 55.0563 28.0373 55.611 27.184C56.2083 26.3307 56.507 25.3067 56.507 24.112C56.507 22.96 56.1017 21.872 55.291 20.848C54.4803 19.7813 52.9657 19.248 50.747 19.248C48.7843 19.248 47.2057 19.7813 46.011 20.848C44.8163 21.9147 43.899 22.96 43.259 23.984L37.627 19.952C38.3097 18.8 39.227 17.6693 40.379 16.56C41.531 15.408 43.003 14.448 44.795 13.68C46.6297 12.912 48.827 12.528 51.387 12.528C54.459 12.528 56.955 13.0613 58.875 14.128C60.8377 15.1947 62.267 16.56 63.163 18.224C64.1017 19.8453 64.571 21.5733 64.571 23.408C64.571 25.328 64.1657 27.0773 63.355 28.656C62.587 30.192 61.5843 31.6213 60.347 32.944C59.1097 34.224 57.787 35.44 56.379 36.592C54.715 37.9573 53.2003 39.1947 51.835 40.304C50.5123 41.3707 49.4457 42.4373 48.635 43.504C47.8243 44.5707 47.419 45.7867 47.419 47.152H64.827V54H38.907ZM87.158 55.024C83.702 55.024 80.8007 54.1067 78.454 52.272C76.1073 50.4373 74.3367 47.8987 73.142 44.656C71.99 41.3707 71.414 37.5947 71.414 33.328C71.414 29.1467 72.0113 25.4987 73.206 22.384C74.4007 19.2693 76.1713 16.8587 78.518 15.152C80.8647 13.4027 83.766 12.528 87.222 12.528C90.7207 12.528 93.622 13.4027 95.926 15.152C98.2727 16.8587 100.022 19.2693 101.174 22.384C102.369 25.4987 102.966 29.1467 102.966 33.328C102.966 37.5947 102.369 41.3707 101.174 44.656C99.9793 47.8987 98.2087 50.4373 95.862 52.272C93.558 54.1067 90.6567 55.024 87.158 55.024ZM87.222 48.112C89.014 48.112 90.486 47.472 91.638 46.192C92.8327 44.8693 93.7287 43.0987 94.326 40.88C94.9233 38.6187 95.222 36.1013 95.222 33.328C95.222 30.64 94.9233 28.2507 94.326 26.16C93.7287 24.0693 92.8327 22.448 91.638 21.296C90.4433 20.1013 88.95 19.504 87.158 19.504C85.4087 19.504 83.9367 20.1013 82.742 21.296C81.5473 22.448 80.6513 24.0693 80.054 26.16C79.4567 28.2507 79.158 30.64 79.158 33.328C79.158 36.1013 79.4567 38.6187 80.054 40.88C80.6513 43.0987 81.5473 44.8693 82.742 46.192C83.9793 47.472 85.4727 48.112 87.222 48.112Z" fill="black"/>
<path d="M113.45 55.288L118.238 42.67H119.84L115.088 55.288H113.45ZM121.185 55L121.743 42.994H123.399L127.053 49.24L130.707 42.994H132.327L132.885 55H131.193L130.797 45.784L127.413 51.454H126.549L123.219 45.856L122.805 55H121.185ZM139.101 55.252C138.249 55.252 137.487 55.054 136.815 54.658C136.143 54.25 135.615 53.71 135.231 53.038C134.859 52.354 134.673 51.61 134.673 50.806C134.673 49.99 134.859 49.246 135.231 48.574C135.615 47.902 136.143 47.368 136.815 46.972C137.487 46.564 138.249 46.36 139.101 46.36C139.953 46.36 140.709 46.564 141.369 46.972C142.041 47.368 142.569 47.902 142.953 48.574C143.337 49.246 143.529 49.99 143.529 50.806C143.529 51.61 143.337 52.354 142.953 53.038C142.569 53.71 142.041 54.25 141.369 54.658C140.709 55.054 139.953 55.252 139.101 55.252ZM139.101 53.848C139.689 53.848 140.187 53.704 140.595 53.416C141.015 53.116 141.333 52.732 141.549 52.264C141.777 51.796 141.891 51.31 141.891 50.806C141.891 50.302 141.777 49.816 141.549 49.348C141.333 48.88 141.015 48.502 140.595 48.214C140.175 47.914 139.677 47.764 139.101 47.764C138.525 47.764 138.027 47.914 137.607 48.214C137.187 48.502 136.863 48.88 136.635 49.348C136.419 49.804 136.311 50.29 136.311 50.806C136.311 51.31 136.425 51.796 136.653 52.264C136.881 52.72 137.199 53.098 137.607 53.398C138.027 53.698 138.525 53.848 139.101 53.848ZM146.99 55H145.37V47.494C145.37 47.386 145.37 47.278 145.37 47.17C145.37 47.05 145.364 46.87 145.352 46.63H146.9L146.954 47.89C147.098 47.686 147.29 47.476 147.53 47.26C147.77 47.032 148.07 46.84 148.43 46.684C148.802 46.516 149.246 46.432 149.762 46.432C150.854 46.432 151.664 46.756 152.192 47.404C152.72 48.04 152.984 48.898 152.984 49.978V55H151.364V50.104C151.364 49.324 151.19 48.754 150.842 48.394C150.506 48.022 150.038 47.836 149.438 47.836C148.826 47.836 148.34 47.998 147.98 48.322C147.62 48.634 147.362 49.042 147.206 49.546C147.062 50.05 146.99 50.572 146.99 51.112V55ZM155.881 52.264V47.98H154.369V46.63H155.881V43.894H157.501V46.63H159.949V47.98H157.501V52.102C157.501 52.774 157.603 53.236 157.807 53.488C158.023 53.74 158.323 53.866 158.707 53.866C159.019 53.866 159.277 53.818 159.481 53.722C159.697 53.626 159.901 53.482 160.093 53.29L160.831 54.28C160.483 54.616 160.123 54.856 159.751 55C159.391 55.156 158.959 55.234 158.455 55.234C157.579 55.234 156.931 54.994 156.511 54.514C156.091 54.022 155.881 53.272 155.881 52.264ZM162.051 55V42.994H163.653V47.872C163.797 47.668 163.983 47.458 164.211 47.242C164.451 47.014 164.751 46.822 165.111 46.666C165.483 46.51 165.927 46.432 166.443 46.432C167.535 46.432 168.345 46.756 168.873 47.404C169.401 48.04 169.665 48.898 169.665 49.978V55H168.045V50.104C168.045 49.324 167.871 48.754 167.523 48.394C167.187 48.022 166.719 47.836 166.119 47.836C165.507 47.836 165.021 47.998 164.661 48.322C164.301 48.634 164.043 49.042 163.887 49.546C163.743 50.05 163.671 50.572 163.671 51.112V55H162.051Z" fill="black"/>
</svg>
