<svg width="224" height="24" viewBox="0 0 224 24" fill="none" xmlns="http://www.w3.org/2000/svg">
<path d="M32.684 17.064L33.602 15.876C33.938 16.14 34.31 16.368 34.718 16.56C35.126 16.752 35.624 16.848 36.212 16.848C37.052 16.848 37.676 16.614 38.084 16.146C38.504 15.678 38.714 15.114 38.714 14.454C38.714 14.142 38.648 13.818 38.516 13.482C38.384 13.134 38.144 12.84 37.796 12.6C37.448 12.348 36.95 12.222 36.302 12.222C35.822 12.222 35.432 12.27 35.132 12.366C34.844 12.462 34.58 12.57 34.34 12.69L33.512 12.06L34.592 6.66H40.154V8.172H35.726L35.204 11.142C35.324 11.07 35.516 11.004 35.78 10.944C36.044 10.872 36.362 10.836 36.734 10.836C37.802 10.836 38.678 11.148 39.362 11.772C40.058 12.384 40.406 13.26 40.406 14.4C40.406 15.096 40.256 15.744 39.956 16.344C39.656 16.932 39.188 17.406 38.552 17.766C37.928 18.126 37.118 18.306 36.122 18.306C35.33 18.306 34.652 18.186 34.088 17.946C33.536 17.694 33.068 17.4 32.684 17.064ZM46.4285 18V5.994H50.4425C51.7145 5.994 52.8365 6.21 53.8085 6.642C54.7925 7.062 55.5605 7.716 56.1125 8.604C56.6765 9.492 56.9585 10.632 56.9585 12.024C56.9585 13.368 56.6765 14.484 56.1125 15.372C55.5605 16.26 54.7925 16.92 53.8085 17.352C52.8245 17.784 51.6965 18 50.4245 18H46.4285ZM48.1565 16.452H50.3885C51.8885 16.452 53.0525 16.086 53.8805 15.354C54.7205 14.61 55.1405 13.512 55.1405 12.06C55.1405 10.596 54.7325 9.48 53.9165 8.712C53.1125 7.932 51.9185 7.542 50.3345 7.542H48.1565V16.452ZM64.2298 18L64.1938 16.992C63.8938 17.4 63.4798 17.712 62.9518 17.928C62.4358 18.132 61.9138 18.234 61.3858 18.234C60.9298 18.234 60.4738 18.15 60.0178 17.982C59.5738 17.814 59.2018 17.538 58.9018 17.154C58.6138 16.77 58.4698 16.26 58.4698 15.624C58.4698 14.724 58.7878 14.004 59.4238 13.464C60.0598 12.924 60.9658 12.654 62.1418 12.654C62.4058 12.654 62.6758 12.666 62.9518 12.69C63.2398 12.702 63.4978 12.72 63.7258 12.744C63.9538 12.756 64.1038 12.768 64.1758 12.78V12.474C64.1758 11.85 63.9838 11.406 63.5998 11.142C63.2278 10.866 62.7178 10.728 62.0698 10.728C61.4458 10.728 60.9418 10.818 60.5578 10.998C60.1858 11.166 59.8738 11.34 59.6218 11.52L58.8658 10.422C59.1658 10.182 59.5798 9.948 60.1078 9.72C60.6358 9.492 61.3498 9.378 62.2498 9.378C63.3178 9.378 64.1638 9.642 64.7878 10.17C65.4118 10.686 65.7238 11.424 65.7238 12.384V17.262C65.7238 17.346 65.7238 17.448 65.7238 17.568C65.7238 17.688 65.7298 17.832 65.7418 18H64.2298ZM64.1758 14.994V14.04C64.1158 14.016 63.9778 13.998 63.7618 13.986C63.5458 13.962 63.2998 13.944 63.0238 13.932C62.7598 13.908 62.5018 13.896 62.2498 13.896C61.6498 13.896 61.1878 13.986 60.8638 14.166C60.5518 14.334 60.3358 14.55 60.2158 14.814C60.1078 15.066 60.0538 15.318 60.0538 15.57C60.0538 16.014 60.2098 16.356 60.5218 16.596C60.8338 16.836 61.2658 16.956 61.8178 16.956C62.2378 16.956 62.6218 16.866 62.9698 16.686C63.3298 16.494 63.6178 16.248 63.8338 15.948C64.0618 15.648 64.1758 15.33 64.1758 14.994ZM66.8847 21.186L67.6227 20.052C67.7427 20.16 67.8807 20.256 68.0367 20.34C68.1927 20.424 68.3847 20.466 68.6127 20.466C68.9967 20.466 69.2847 20.292 69.4767 19.944C69.6687 19.608 69.8967 19.116 70.1607 18.468L70.3767 17.928L66.6327 9.63H68.4867L71.1867 15.948L73.5627 9.63H75.3267L71.9787 17.784C71.8227 18.156 71.6607 18.57 71.4927 19.026C71.3247 19.494 71.1267 19.938 70.8987 20.358C70.6707 20.79 70.3767 21.138 70.0167 21.402C69.6687 21.678 69.2307 21.816 68.7027 21.816C68.2827 21.816 67.9287 21.756 67.6407 21.636C67.3527 21.528 67.1007 21.378 66.8847 21.186ZM75.9082 16.974L76.8982 15.894C77.1982 16.194 77.5582 16.434 77.9782 16.614C78.3982 16.794 78.8842 16.884 79.4362 16.884C79.9762 16.884 80.4262 16.8 80.7862 16.632C81.1462 16.452 81.3262 16.176 81.3262 15.804C81.3262 15.54 81.2542 15.33 81.1102 15.174C80.9662 15.018 80.7202 14.88 80.3722 14.76C80.0242 14.628 79.5442 14.49 78.9322 14.346C78.5002 14.238 78.0802 14.094 77.6722 13.914C77.2642 13.722 76.9282 13.464 76.6642 13.14C76.4002 12.804 76.2682 12.372 76.2682 11.844C76.2682 11.304 76.4242 10.848 76.7362 10.476C77.0602 10.104 77.4742 9.828 77.9782 9.648C78.4822 9.456 79.0102 9.36 79.5622 9.36C80.2702 9.36 80.8822 9.456 81.3982 9.648C81.9142 9.828 82.3582 10.086 82.7302 10.422L81.8482 11.538C81.5962 11.31 81.2782 11.118 80.8942 10.962C80.5222 10.806 80.0842 10.728 79.5802 10.728C79.0642 10.728 78.6502 10.812 78.3382 10.98C78.0262 11.148 77.8702 11.424 77.8702 11.808C77.8702 12.168 78.0802 12.438 78.5002 12.618C78.9202 12.786 79.4602 12.948 80.1202 13.104C80.6482 13.224 81.1222 13.386 81.5422 13.59C81.9742 13.782 82.3162 14.046 82.5682 14.382C82.8322 14.718 82.9642 15.156 82.9642 15.696C82.9642 16.248 82.7962 16.716 82.4602 17.1C82.1362 17.472 81.7102 17.76 81.1822 17.964C80.6542 18.156 80.0842 18.252 79.4722 18.252C77.8882 18.252 76.7002 17.826 75.9082 16.974ZM88.4604 20.898L89.2164 19.71C89.4924 19.902 89.8284 20.064 90.2244 20.196C90.6324 20.34 91.1244 20.412 91.7004 20.412C92.5044 20.412 93.1044 20.19 93.5004 19.746C93.8964 19.302 94.0944 18.72 94.0944 18V16.974C93.9864 17.07 93.8244 17.208 93.6084 17.388C93.3924 17.556 93.1104 17.712 92.7624 17.856C92.4264 18 92.0064 18.072 91.5024 18.072C90.6864 18.072 89.9904 17.892 89.4144 17.532C88.8504 17.172 88.4184 16.68 88.1184 16.056C87.8304 15.42 87.6864 14.706 87.6864 13.914C87.6864 13.05 87.8844 12.282 88.2804 11.61C88.6764 10.926 89.2284 10.392 89.9364 10.008C90.6444 9.624 91.4664 9.432 92.4024 9.432C93.0744 9.432 93.7044 9.492 94.2924 9.612C94.8924 9.732 95.3724 9.864 95.7324 10.008V18C95.7324 19.2 95.3784 20.136 94.6704 20.808C93.9624 21.48 92.9784 21.816 91.7184 21.816C90.8664 21.816 90.1884 21.72 89.6844 21.528C89.1804 21.336 88.7724 21.126 88.4604 20.898ZM94.1124 14.58V11.106C94.0044 11.07 93.8184 11.022 93.5544 10.962C93.3024 10.89 92.9184 10.854 92.4024 10.854C91.7904 10.854 91.2564 10.986 90.8004 11.25C90.3444 11.502 89.9844 11.856 89.7204 12.312C89.4684 12.768 89.3424 13.296 89.3424 13.896C89.3424 14.4 89.4204 14.862 89.5764 15.282C89.7444 15.702 90.0084 16.038 90.3684 16.29C90.7284 16.542 91.1904 16.668 91.7544 16.668C92.2944 16.668 92.7384 16.566 93.0864 16.362C93.4344 16.158 93.6924 15.9 93.8604 15.588C94.0284 15.264 94.1124 14.928 94.1124 14.58ZM99.5641 18H97.9441V10.44C97.9441 10.356 97.9441 10.26 97.9441 10.152C97.9441 10.044 97.9381 9.87 97.9261 9.63H99.4741L99.5281 10.98C99.6601 10.788 99.8401 10.578 100.068 10.35C100.308 10.122 100.608 9.924 100.968 9.756C101.328 9.588 101.76 9.504 102.264 9.504C102.444 9.504 102.606 9.516 102.75 9.54C102.906 9.564 103.05 9.6 103.182 9.648L102.822 11.16C102.606 11.076 102.33 11.034 101.994 11.034C101.538 11.034 101.124 11.154 100.752 11.394C100.392 11.622 100.104 11.928 99.8881 12.312C99.6721 12.696 99.5641 13.122 99.5641 13.59V18ZM108.076 18.252C107.224 18.252 106.462 18.054 105.79 17.658C105.118 17.25 104.59 16.71 104.206 16.038C103.834 15.354 103.648 14.61 103.648 13.806C103.648 12.99 103.834 12.246 104.206 11.574C104.59 10.902 105.118 10.368 105.79 9.972C106.462 9.564 107.224 9.36 108.076 9.36C108.928 9.36 109.684 9.564 110.344 9.972C111.016 10.368 111.544 10.902 111.928 11.574C112.312 12.246 112.504 12.99 112.504 13.806C112.504 14.61 112.312 15.354 111.928 16.038C111.544 16.71 111.016 17.25 110.344 17.658C109.684 18.054 108.928 18.252 108.076 18.252ZM108.076 16.848C108.664 16.848 109.162 16.704 109.57 16.416C109.99 16.116 110.308 15.732 110.524 15.264C110.752 14.796 110.866 14.31 110.866 13.806C110.866 13.302 110.752 12.816 110.524 12.348C110.308 11.88 109.99 11.502 109.57 11.214C109.15 10.914 108.652 10.764 108.076 10.764C107.5 10.764 107.002 10.914 106.582 11.214C106.162 11.502 105.838 11.88 105.61 12.348C105.394 12.804 105.286 13.29 105.286 13.806C105.286 14.31 105.4 14.796 105.628 15.264C105.856 15.72 106.174 16.098 106.582 16.398C107.002 16.698 107.5 16.848 108.076 16.848ZM114.291 14.652V9.63H115.911V14.544C115.911 15.324 116.073 15.894 116.397 16.254C116.721 16.614 117.189 16.794 117.801 16.794C118.425 16.794 118.911 16.632 119.259 16.308C119.607 15.984 119.853 15.576 119.997 15.084C120.153 14.58 120.231 14.058 120.231 13.518V9.63H121.851V17.154C121.851 17.202 121.851 17.316 121.851 17.496C121.851 17.664 121.857 17.832 121.869 18H120.321L120.267 16.758C120.135 16.95 119.949 17.16 119.709 17.388C119.469 17.604 119.163 17.79 118.791 17.946C118.431 18.102 117.993 18.18 117.477 18.18C116.385 18.18 115.581 17.862 115.065 17.226C114.549 16.59 114.291 15.732 114.291 14.652ZM125.702 21.6H124.1V10.494C124.1 10.386 124.1 10.278 124.1 10.17C124.1 10.05 124.094 9.87 124.082 9.63H125.63L125.684 10.818C125.804 10.662 125.978 10.482 126.206 10.278C126.446 10.062 126.758 9.87 127.142 9.702C127.526 9.534 127.988 9.45 128.528 9.45C129.392 9.45 130.1 9.654 130.652 10.062C131.216 10.47 131.63 11.01 131.894 11.682C132.17 12.354 132.308 13.08 132.308 13.86C132.308 14.616 132.176 15.276 131.912 15.84C131.66 16.392 131.324 16.848 130.904 17.208C130.484 17.556 130.022 17.82 129.518 18C129.014 18.168 128.516 18.252 128.024 18.252C127.46 18.252 127.01 18.192 126.674 18.072C126.338 17.964 126.014 17.844 125.702 17.712V21.6ZM125.702 14.04V16.182C125.894 16.338 126.17 16.488 126.53 16.632C126.89 16.776 127.34 16.848 127.88 16.848C128.432 16.848 128.912 16.722 129.32 16.47C129.74 16.206 130.064 15.846 130.292 15.39C130.532 14.934 130.652 14.424 130.652 13.86C130.652 13.32 130.568 12.822 130.4 12.366C130.244 11.91 129.986 11.544 129.626 11.268C129.266 10.992 128.78 10.854 128.168 10.854C127.604 10.854 127.112 11.016 126.692 11.34C126.284 11.664 125.996 12.126 125.828 12.726C125.78 12.918 125.744 13.128 125.72 13.356C125.708 13.572 125.702 13.8 125.702 14.04ZM138.991 21.6H137.389V10.494C137.389 10.386 137.389 10.278 137.389 10.17C137.389 10.05 137.383 9.87 137.371 9.63H138.919L138.973 10.818C139.093 10.662 139.267 10.482 139.495 10.278C139.735 10.062 140.047 9.87 140.431 9.702C140.815 9.534 141.277 9.45 141.817 9.45C142.681 9.45 143.389 9.654 143.941 10.062C144.505 10.47 144.919 11.01 145.183 11.682C145.459 12.354 145.597 13.08 145.597 13.86C145.597 14.616 145.465 15.276 145.201 15.84C144.949 16.392 144.613 16.848 144.193 17.208C143.773 17.556 143.311 17.82 142.807 18C142.303 18.168 141.805 18.252 141.313 18.252C140.749 18.252 140.299 18.192 139.963 18.072C139.627 17.964 139.303 17.844 138.991 17.712V21.6ZM138.991 14.04V16.182C139.183 16.338 139.459 16.488 139.819 16.632C140.179 16.776 140.629 16.848 141.169 16.848C141.721 16.848 142.201 16.722 142.609 16.47C143.029 16.206 143.353 15.846 143.581 15.39C143.821 14.934 143.941 14.424 143.941 13.86C143.941 13.32 143.857 12.822 143.689 12.366C143.533 11.91 143.275 11.544 142.915 11.268C142.555 10.992 142.069 10.854 141.457 10.854C140.893 10.854 140.401 11.016 139.981 11.34C139.573 11.664 139.285 12.126 139.117 12.726C139.069 12.918 139.033 13.128 139.009 13.356C138.997 13.572 138.991 13.8 138.991 14.04ZM152.701 18L152.665 16.992C152.365 17.4 151.951 17.712 151.423 17.928C150.907 18.132 150.385 18.234 149.857 18.234C149.401 18.234 148.945 18.15 148.489 17.982C148.045 17.814 147.673 17.538 147.373 17.154C147.085 16.77 146.941 16.26 146.941 15.624C146.941 14.724 147.259 14.004 147.895 13.464C148.531 12.924 149.437 12.654 150.613 12.654C150.877 12.654 151.147 12.666 151.423 12.69C151.711 12.702 151.969 12.72 152.197 12.744C152.425 12.756 152.575 12.768 152.647 12.78V12.474C152.647 11.85 152.455 11.406 152.071 11.142C151.699 10.866 151.189 10.728 150.541 10.728C149.917 10.728 149.413 10.818 149.029 10.998C148.657 11.166 148.345 11.34 148.093 11.52L147.337 10.422C147.637 10.182 148.051 9.948 148.579 9.72C149.107 9.492 149.821 9.378 150.721 9.378C151.789 9.378 152.635 9.642 153.259 10.17C153.883 10.686 154.195 11.424 154.195 12.384V17.262C154.195 17.346 154.195 17.448 154.195 17.568C154.195 17.688 154.201 17.832 154.213 18H152.701ZM152.647 14.994V14.04C152.587 14.016 152.449 13.998 152.233 13.986C152.017 13.962 151.771 13.944 151.495 13.932C151.231 13.908 150.973 13.896 150.721 13.896C150.121 13.896 149.659 13.986 149.335 14.166C149.023 14.334 148.807 14.55 148.687 14.814C148.579 15.066 148.525 15.318 148.525 15.57C148.525 16.014 148.681 16.356 148.993 16.596C149.305 16.836 149.737 16.956 150.289 16.956C150.709 16.956 151.093 16.866 151.441 16.686C151.801 16.494 152.089 16.248 152.305 15.948C152.533 15.648 152.647 15.33 152.647 14.994ZM156.769 20.898L157.525 19.71C157.801 19.902 158.137 20.064 158.533 20.196C158.941 20.34 159.433 20.412 160.009 20.412C160.813 20.412 161.413 20.19 161.809 19.746C162.205 19.302 162.403 18.72 162.403 18V16.974C162.295 17.07 162.133 17.208 161.917 17.388C161.701 17.556 161.419 17.712 161.071 17.856C160.735 18 160.315 18.072 159.811 18.072C158.995 18.072 158.299 17.892 157.723 17.532C157.159 17.172 156.727 16.68 156.427 16.056C156.139 15.42 155.995 14.706 155.995 13.914C155.995 13.05 156.193 12.282 156.589 11.61C156.985 10.926 157.537 10.392 158.245 10.008C158.953 9.624 159.775 9.432 160.711 9.432C161.383 9.432 162.013 9.492 162.601 9.612C163.201 9.732 163.681 9.864 164.041 10.008V18C164.041 19.2 163.687 20.136 162.979 20.808C162.271 21.48 161.287 21.816 160.027 21.816C159.175 21.816 158.497 21.72 157.993 21.528C157.489 21.336 157.081 21.126 156.769 20.898ZM162.421 14.58V11.106C162.313 11.07 162.127 11.022 161.863 10.962C161.611 10.89 161.227 10.854 160.711 10.854C160.099 10.854 159.565 10.986 159.109 11.25C158.653 11.502 158.293 11.856 158.029 12.312C157.777 12.768 157.651 13.296 157.651 13.896C157.651 14.4 157.729 14.862 157.885 15.282C158.053 15.702 158.317 16.038 158.677 16.29C159.037 16.542 159.499 16.668 160.063 16.668C160.603 16.668 161.047 16.566 161.395 16.362C161.743 16.158 162.001 15.9 162.169 15.588C162.337 15.264 162.421 14.928 162.421 14.58ZM172.967 15.804L173.885 16.776C173.765 16.92 173.549 17.112 173.237 17.352C172.925 17.58 172.517 17.79 172.013 17.982C171.521 18.162 170.921 18.252 170.213 18.252C169.349 18.252 168.587 18.066 167.927 17.694C167.267 17.31 166.751 16.782 166.379 16.11C166.019 15.426 165.839 14.64 165.839 13.752C165.839 12.936 166.013 12.198 166.361 11.538C166.721 10.878 167.213 10.356 167.837 9.972C168.473 9.576 169.199 9.378 170.015 9.378C170.987 9.378 171.773 9.612 172.373 10.08C172.973 10.548 173.411 11.154 173.687 11.898C173.963 12.642 174.101 13.44 174.101 14.292H167.495C167.507 14.784 167.639 15.228 167.891 15.624C168.143 16.008 168.473 16.314 168.881 16.542C169.301 16.758 169.751 16.866 170.231 16.866C170.939 16.866 171.521 16.746 171.977 16.506C172.445 16.266 172.775 16.032 172.967 15.804ZM167.495 13.086H172.427C172.379 12.438 172.151 11.886 171.743 11.43C171.335 10.974 170.759 10.746 170.015 10.746C169.499 10.746 169.055 10.86 168.683 11.088C168.311 11.316 168.023 11.61 167.819 11.97C167.627 12.318 167.519 12.69 167.495 13.086ZM178.705 16.974L179.695 15.894C179.995 16.194 180.355 16.434 180.775 16.614C181.195 16.794 181.681 16.884 182.233 16.884C182.773 16.884 183.223 16.8 183.583 16.632C183.943 16.452 184.123 16.176 184.123 15.804C184.123 15.54 184.051 15.33 183.907 15.174C183.763 15.018 183.517 14.88 183.169 14.76C182.821 14.628 182.341 14.49 181.729 14.346C181.297 14.238 180.877 14.094 180.469 13.914C180.061 13.722 179.725 13.464 179.461 13.14C179.197 12.804 179.065 12.372 179.065 11.844C179.065 11.304 179.221 10.848 179.533 10.476C179.857 10.104 180.271 9.828 180.775 9.648C181.279 9.456 181.807 9.36 182.359 9.36C183.067 9.36 183.679 9.456 184.195 9.648C184.711 9.828 185.155 10.086 185.527 10.422L184.645 11.538C184.393 11.31 184.075 11.118 183.691 10.962C183.319 10.806 182.881 10.728 182.377 10.728C181.861 10.728 181.447 10.812 181.135 10.98C180.823 11.148 180.667 11.424 180.667 11.808C180.667 12.168 180.877 12.438 181.297 12.618C181.717 12.786 182.257 12.948 182.917 13.104C183.445 13.224 183.919 13.386 184.339 13.59C184.771 13.782 185.113 14.046 185.365 14.382C185.629 14.718 185.761 15.156 185.761 15.696C185.761 16.248 185.593 16.716 185.257 17.1C184.933 17.472 184.507 17.76 183.979 17.964C183.451 18.156 182.881 18.252 182.269 18.252C180.685 18.252 179.497 17.826 178.705 16.974ZM192.919 18L192.883 16.992C192.583 17.4 192.169 17.712 191.641 17.928C191.125 18.132 190.603 18.234 190.075 18.234C189.619 18.234 189.163 18.15 188.707 17.982C188.263 17.814 187.891 17.538 187.591 17.154C187.303 16.77 187.159 16.26 187.159 15.624C187.159 14.724 187.477 14.004 188.113 13.464C188.749 12.924 189.655 12.654 190.831 12.654C191.095 12.654 191.365 12.666 191.641 12.69C191.929 12.702 192.187 12.72 192.415 12.744C192.643 12.756 192.793 12.768 192.865 12.78V12.474C192.865 11.85 192.673 11.406 192.289 11.142C191.917 10.866 191.407 10.728 190.759 10.728C190.135 10.728 189.631 10.818 189.247 10.998C188.875 11.166 188.563 11.34 188.311 11.52L187.555 10.422C187.855 10.182 188.269 9.948 188.797 9.72C189.325 9.492 190.039 9.378 190.939 9.378C192.007 9.378 192.853 9.642 193.477 10.17C194.101 10.686 194.413 11.424 194.413 12.384V17.262C194.413 17.346 194.413 17.448 194.413 17.568C194.413 17.688 194.419 17.832 194.431 18H192.919ZM192.865 14.994V14.04C192.805 14.016 192.667 13.998 192.451 13.986C192.235 13.962 191.989 13.944 191.713 13.932C191.449 13.908 191.191 13.896 190.939 13.896C190.339 13.896 189.877 13.986 189.553 14.166C189.241 14.334 189.025 14.55 188.905 14.814C188.797 15.066 188.743 15.318 188.743 15.57C188.743 16.014 188.899 16.356 189.211 16.596C189.523 16.836 189.955 16.956 190.507 16.956C190.927 16.956 191.311 16.866 191.659 16.686C192.019 16.494 192.307 16.248 192.523 15.948C192.751 15.648 192.865 15.33 192.865 14.994ZM198.868 18L195.268 9.63H197.122L199.732 16.164L202.324 9.63H204.07L200.488 18H198.868ZM211.568 15.804L212.486 16.776C212.366 16.92 212.15 17.112 211.838 17.352C211.526 17.58 211.118 17.79 210.614 17.982C210.122 18.162 209.522 18.252 208.814 18.252C207.95 18.252 207.188 18.066 206.528 17.694C205.868 17.31 205.352 16.782 204.98 16.11C204.62 15.426 204.44 14.64 204.44 13.752C204.44 12.936 204.614 12.198 204.962 11.538C205.322 10.878 205.814 10.356 206.438 9.972C207.074 9.576 207.8 9.378 208.616 9.378C209.588 9.378 210.374 9.612 210.974 10.08C211.574 10.548 212.012 11.154 212.288 11.898C212.564 12.642 212.702 13.44 212.702 14.292H206.096C206.108 14.784 206.24 15.228 206.492 15.624C206.744 16.008 207.074 16.314 207.482 16.542C207.902 16.758 208.352 16.866 208.832 16.866C209.54 16.866 210.122 16.746 210.578 16.506C211.046 16.266 211.376 16.032 211.568 15.804ZM206.096 13.086H211.028C210.98 12.438 210.752 11.886 210.344 11.43C209.936 10.974 209.36 10.746 208.616 10.746C208.1 10.746 207.656 10.86 207.284 11.088C206.912 11.316 206.624 11.61 206.42 11.97C206.228 12.318 206.12 12.69 206.096 13.086ZM220.589 18L220.535 16.938C220.451 17.034 220.295 17.19 220.067 17.406C219.851 17.622 219.557 17.82 219.185 18C218.813 18.168 218.357 18.252 217.817 18.252C217.109 18.252 216.473 18.078 215.909 17.73C215.345 17.37 214.901 16.866 214.577 16.218C214.253 15.57 214.091 14.808 214.091 13.932C214.091 13.14 214.223 12.462 214.487 11.898C214.763 11.322 215.117 10.854 215.549 10.494C215.981 10.134 216.443 9.87 216.935 9.702C217.439 9.522 217.913 9.432 218.357 9.432C218.813 9.432 219.203 9.48 219.527 9.576C219.863 9.672 220.199 9.804 220.535 9.972V5.994H222.155V17.154C222.155 17.202 222.155 17.316 222.155 17.496C222.155 17.664 222.161 17.832 222.173 18H220.589ZM220.535 14.472V11.484C220.319 11.304 220.043 11.154 219.707 11.034C219.371 10.914 218.963 10.854 218.483 10.854C217.703 10.854 217.049 11.13 216.521 11.682C216.005 12.234 215.747 12.99 215.747 13.95C215.747 14.478 215.831 14.964 215.999 15.408C216.179 15.852 216.449 16.206 216.809 16.47C217.169 16.722 217.625 16.848 218.177 16.848C218.741 16.848 219.191 16.722 219.527 16.47C219.875 16.206 220.127 15.888 220.283 15.516C220.451 15.144 220.535 14.796 220.535 14.472Z" fill="black"/>
<path fill-rule="evenodd" clip-rule="evenodd" d="M18.6946 7.93136C19.1467 8.45305 19.0904 9.2425 18.5687 9.69463L11.0687 16.1946C10.5731 16.6241 9.82984 16.5976 9.36612 16.1339L5.36612 12.1339C4.87796 11.6457 4.87796 10.8543 5.36612 10.3661C5.85427 9.87798 6.64573 9.87798 7.13388 10.3661L10.3109 13.5431L16.9313 7.80541C17.453 7.35327 18.2425 7.40966 18.6946 7.93136Z" fill="black"/>
</svg>
