<svg width="207" height="24" viewBox="0 0 207 24" fill="none" xmlns="http://www.w3.org/2000/svg">
<path d="M33.278 13.428V5.994H35.006V13.014C35.006 13.734 35.096 14.37 35.276 14.922C35.456 15.474 35.768 15.906 36.212 16.218C36.656 16.518 37.274 16.668 38.066 16.668C38.858 16.668 39.47 16.518 39.902 16.218C40.346 15.906 40.658 15.474 40.838 14.922C41.018 14.37 41.108 13.734 41.108 13.014V5.994H42.836V13.428C42.836 14.34 42.662 15.168 42.314 15.912C41.978 16.644 41.456 17.226 40.748 17.658C40.052 18.09 39.158 18.306 38.066 18.306C36.974 18.306 36.074 18.09 35.366 17.658C34.658 17.226 34.13 16.644 33.782 15.912C33.446 15.168 33.278 14.34 33.278 13.428ZM46.8473 18H45.2273V10.494C45.2273 10.386 45.2273 10.278 45.2273 10.17C45.2273 10.05 45.2213 9.87 45.2093 9.63H46.7573L46.8113 10.89C46.9553 10.686 47.1473 10.476 47.3873 10.26C47.6273 10.032 47.9273 9.84 48.2873 9.684C48.6593 9.516 49.1033 9.432 49.6193 9.432C50.7113 9.432 51.5213 9.756 52.0493 10.404C52.5773 11.04 52.8413 11.898 52.8413 12.978V18H51.2213V13.104C51.2213 12.324 51.0473 11.754 50.6993 11.394C50.3633 11.022 49.8953 10.836 49.2953 10.836C48.6833 10.836 48.1973 10.998 47.8373 11.322C47.4773 11.634 47.2193 12.042 47.0633 12.546C46.9193 13.05 46.8473 13.572 46.8473 14.112V18ZM55.0003 18V5.994H56.6203V18H55.0003ZM58.7968 8.136V6.318H60.6148V8.136H58.7968ZM58.9048 18V9.63H60.5248V18H58.9048ZM64.443 18H62.823V10.494C62.823 10.386 62.823 10.278 62.823 10.17C62.823 10.05 62.817 9.87 62.805 9.63H64.353L64.407 10.89C64.539 10.686 64.719 10.476 64.947 10.26C65.175 10.032 65.469 9.84 65.829 9.684C66.189 9.516 66.621 9.432 67.125 9.432C67.773 9.432 68.307 9.564 68.727 9.828C69.159 10.08 69.495 10.452 69.735 10.944C70.071 10.548 70.485 10.2 70.977 9.9C71.469 9.588 72.069 9.432 72.777 9.432C73.857 9.432 74.655 9.756 75.171 10.404C75.687 11.04 75.945 11.898 75.945 12.978V18H74.325V13.104C74.325 11.592 73.725 10.836 72.525 10.836C72.081 10.836 71.685 10.956 71.337 11.196C70.989 11.424 70.713 11.73 70.509 12.114C70.305 12.486 70.203 12.9 70.203 13.356V18H68.583V13.104C68.583 12.324 68.427 11.754 68.115 11.394C67.803 11.022 67.365 10.836 66.801 10.836C66.213 10.836 65.745 10.998 65.397 11.322C65.049 11.646 64.803 12.06 64.659 12.564C64.515 13.056 64.443 13.572 64.443 14.112V18ZM78.08 8.136V6.318H79.898V8.136H78.08ZM78.188 18V9.63H79.808V18H78.188ZM82.8262 15.264V10.98H81.3142V9.63H82.8262V6.894H84.4462V9.63H86.8942V10.98H84.4462V15.102C84.4462 15.774 84.5482 16.236 84.7522 16.488C84.9682 16.74 85.2682 16.866 85.6522 16.866C85.9642 16.866 86.2222 16.818 86.4262 16.722C86.6422 16.626 86.8462 16.482 87.0382 16.29L87.7762 17.28C87.4282 17.616 87.0682 17.856 86.6962 18C86.3362 18.156 85.9042 18.234 85.4002 18.234C84.5242 18.234 83.8762 17.994 83.4562 17.514C83.0362 17.022 82.8262 16.272 82.8262 15.264ZM95.1835 15.804L96.1015 16.776C95.9815 16.92 95.7655 17.112 95.4535 17.352C95.1415 17.58 94.7335 17.79 94.2295 17.982C93.7375 18.162 93.1375 18.252 92.4295 18.252C91.5655 18.252 90.8035 18.066 90.1435 17.694C89.4835 17.31 88.9675 16.782 88.5955 16.11C88.2355 15.426 88.0555 14.64 88.0555 13.752C88.0555 12.936 88.2295 12.198 88.5775 11.538C88.9375 10.878 89.4295 10.356 90.0535 9.972C90.6895 9.576 91.4155 9.378 92.2315 9.378C93.2035 9.378 93.9895 9.612 94.5895 10.08C95.1895 10.548 95.6275 11.154 95.9035 11.898C96.1795 12.642 96.3175 13.44 96.3175 14.292H89.7115C89.7235 14.784 89.8555 15.228 90.1075 15.624C90.3595 16.008 90.6895 16.314 91.0975 16.542C91.5175 16.758 91.9675 16.866 92.4475 16.866C93.1555 16.866 93.7375 16.746 94.1935 16.506C94.6615 16.266 94.9915 16.032 95.1835 15.804ZM89.7115 13.086H94.6435C94.5955 12.438 94.3675 11.886 93.9595 11.43C93.5515 10.974 92.9755 10.746 92.2315 10.746C91.7155 10.746 91.2715 10.86 90.8995 11.088C90.5275 11.316 90.2395 11.61 90.0355 11.97C89.8435 12.318 89.7355 12.69 89.7115 13.086ZM104.204 18L104.15 16.938C104.066 17.034 103.91 17.19 103.682 17.406C103.466 17.622 103.172 17.82 102.8 18C102.428 18.168 101.972 18.252 101.432 18.252C100.724 18.252 100.088 18.078 99.5239 17.73C98.9599 17.37 98.5159 16.866 98.1919 16.218C97.8679 15.57 97.7059 14.808 97.7059 13.932C97.7059 13.14 97.8379 12.462 98.1019 11.898C98.3779 11.322 98.7319 10.854 99.1639 10.494C99.5959 10.134 100.058 9.87 100.55 9.702C101.054 9.522 101.528 9.432 101.972 9.432C102.428 9.432 102.818 9.48 103.142 9.576C103.478 9.672 103.814 9.804 104.15 9.972V5.994H105.77V17.154C105.77 17.202 105.77 17.316 105.77 17.496C105.77 17.664 105.776 17.832 105.788 18H104.204ZM104.15 14.472V11.484C103.934 11.304 103.658 11.154 103.322 11.034C102.986 10.914 102.578 10.854 102.098 10.854C101.318 10.854 100.664 11.13 100.136 11.682C99.6199 12.234 99.3619 12.99 99.3619 13.95C99.3619 14.478 99.4459 14.964 99.6139 15.408C99.7939 15.852 100.064 16.206 100.424 16.47C100.784 16.722 101.24 16.848 101.792 16.848C102.356 16.848 102.806 16.722 103.142 16.47C103.49 16.206 103.742 15.888 103.898 15.516C104.066 15.144 104.15 14.796 104.15 14.472ZM111.628 20.898L112.384 19.71C112.66 19.902 112.996 20.064 113.392 20.196C113.8 20.34 114.292 20.412 114.868 20.412C115.672 20.412 116.272 20.19 116.668 19.746C117.064 19.302 117.262 18.72 117.262 18V16.974C117.154 17.07 116.992 17.208 116.776 17.388C116.56 17.556 116.278 17.712 115.93 17.856C115.594 18 115.174 18.072 114.67 18.072C113.854 18.072 113.158 17.892 112.582 17.532C112.018 17.172 111.586 16.68 111.286 16.056C110.998 15.42 110.854 14.706 110.854 13.914C110.854 13.05 111.052 12.282 111.448 11.61C111.844 10.926 112.396 10.392 113.104 10.008C113.812 9.624 114.634 9.432 115.57 9.432C116.242 9.432 116.872 9.492 117.46 9.612C118.06 9.732 118.54 9.864 118.9 10.008V18C118.9 19.2 118.546 20.136 117.838 20.808C117.13 21.48 116.146 21.816 114.886 21.816C114.034 21.816 113.356 21.72 112.852 21.528C112.348 21.336 111.94 21.126 111.628 20.898ZM117.28 14.58V11.106C117.172 11.07 116.986 11.022 116.722 10.962C116.47 10.89 116.086 10.854 115.57 10.854C114.958 10.854 114.424 10.986 113.968 11.25C113.512 11.502 113.152 11.856 112.888 12.312C112.636 12.768 112.51 13.296 112.51 13.896C112.51 14.4 112.588 14.862 112.744 15.282C112.912 15.702 113.176 16.038 113.536 16.29C113.896 16.542 114.358 16.668 114.922 16.668C115.462 16.668 115.906 16.566 116.254 16.362C116.602 16.158 116.86 15.9 117.028 15.588C117.196 15.264 117.28 14.928 117.28 14.58ZM122.732 18H121.112V10.44C121.112 10.356 121.112 10.26 121.112 10.152C121.112 10.044 121.106 9.87 121.094 9.63H122.642L122.696 10.98C122.828 10.788 123.008 10.578 123.236 10.35C123.476 10.122 123.776 9.924 124.136 9.756C124.496 9.588 124.928 9.504 125.432 9.504C125.612 9.504 125.774 9.516 125.918 9.54C126.074 9.564 126.218 9.6 126.35 9.648L125.99 11.16C125.774 11.076 125.498 11.034 125.162 11.034C124.706 11.034 124.292 11.154 123.92 11.394C123.56 11.622 123.272 11.928 123.056 12.312C122.84 12.696 122.732 13.122 122.732 13.59V18ZM131.244 18.252C130.392 18.252 129.63 18.054 128.958 17.658C128.286 17.25 127.758 16.71 127.374 16.038C127.002 15.354 126.816 14.61 126.816 13.806C126.816 12.99 127.002 12.246 127.374 11.574C127.758 10.902 128.286 10.368 128.958 9.972C129.63 9.564 130.392 9.36 131.244 9.36C132.096 9.36 132.852 9.564 133.512 9.972C134.184 10.368 134.712 10.902 135.096 11.574C135.48 12.246 135.672 12.99 135.672 13.806C135.672 14.61 135.48 15.354 135.096 16.038C134.712 16.71 134.184 17.25 133.512 17.658C132.852 18.054 132.096 18.252 131.244 18.252ZM131.244 16.848C131.832 16.848 132.33 16.704 132.738 16.416C133.158 16.116 133.476 15.732 133.692 15.264C133.92 14.796 134.034 14.31 134.034 13.806C134.034 13.302 133.92 12.816 133.692 12.348C133.476 11.88 133.158 11.502 132.738 11.214C132.318 10.914 131.82 10.764 131.244 10.764C130.668 10.764 130.17 10.914 129.75 11.214C129.33 11.502 129.006 11.88 128.778 12.348C128.562 12.804 128.454 13.29 128.454 13.806C128.454 14.31 128.568 14.796 128.796 15.264C129.024 15.72 129.342 16.098 129.75 16.398C130.17 16.698 130.668 16.848 131.244 16.848ZM137.458 14.652V9.63H139.078V14.544C139.078 15.324 139.24 15.894 139.564 16.254C139.888 16.614 140.356 16.794 140.968 16.794C141.592 16.794 142.078 16.632 142.426 16.308C142.774 15.984 143.02 15.576 143.164 15.084C143.32 14.58 143.398 14.058 143.398 13.518V9.63H145.018V17.154C145.018 17.202 145.018 17.316 145.018 17.496C145.018 17.664 145.024 17.832 145.036 18H143.488L143.434 16.758C143.302 16.95 143.116 17.16 142.876 17.388C142.636 17.604 142.33 17.79 141.958 17.946C141.598 18.102 141.16 18.18 140.644 18.18C139.552 18.18 138.748 17.862 138.232 17.226C137.716 16.59 137.458 15.732 137.458 14.652ZM148.87 21.6H147.268V10.494C147.268 10.386 147.268 10.278 147.268 10.17C147.268 10.05 147.262 9.87 147.25 9.63H148.798L148.852 10.818C148.972 10.662 149.146 10.482 149.374 10.278C149.614 10.062 149.926 9.87 150.31 9.702C150.694 9.534 151.156 9.45 151.696 9.45C152.56 9.45 153.268 9.654 153.82 10.062C154.384 10.47 154.798 11.01 155.062 11.682C155.338 12.354 155.476 13.08 155.476 13.86C155.476 14.616 155.344 15.276 155.08 15.84C154.828 16.392 154.492 16.848 154.072 17.208C153.652 17.556 153.19 17.82 152.686 18C152.182 18.168 151.684 18.252 151.192 18.252C150.628 18.252 150.178 18.192 149.842 18.072C149.506 17.964 149.182 17.844 148.87 17.712V21.6ZM148.87 14.04V16.182C149.062 16.338 149.338 16.488 149.698 16.632C150.058 16.776 150.508 16.848 151.048 16.848C151.6 16.848 152.08 16.722 152.488 16.47C152.908 16.206 153.232 15.846 153.46 15.39C153.7 14.934 153.82 14.424 153.82 13.86C153.82 13.32 153.736 12.822 153.568 12.366C153.412 11.91 153.154 11.544 152.794 11.268C152.434 10.992 151.948 10.854 151.336 10.854C150.772 10.854 150.28 11.016 149.86 11.34C149.452 11.664 149.164 12.126 148.996 12.726C148.948 12.918 148.912 13.128 148.888 13.356C148.876 13.572 148.87 13.8 148.87 14.04ZM162.159 21.6H160.557V10.494C160.557 10.386 160.557 10.278 160.557 10.17C160.557 10.05 160.551 9.87 160.539 9.63H162.087L162.141 10.818C162.261 10.662 162.435 10.482 162.663 10.278C162.903 10.062 163.215 9.87 163.599 9.702C163.983 9.534 164.445 9.45 164.985 9.45C165.849 9.45 166.557 9.654 167.109 10.062C167.673 10.47 168.087 11.01 168.351 11.682C168.627 12.354 168.765 13.08 168.765 13.86C168.765 14.616 168.633 15.276 168.369 15.84C168.117 16.392 167.781 16.848 167.361 17.208C166.941 17.556 166.479 17.82 165.975 18C165.471 18.168 164.973 18.252 164.481 18.252C163.917 18.252 163.467 18.192 163.131 18.072C162.795 17.964 162.471 17.844 162.159 17.712V21.6ZM162.159 14.04V16.182C162.351 16.338 162.627 16.488 162.987 16.632C163.347 16.776 163.797 16.848 164.337 16.848C164.889 16.848 165.369 16.722 165.777 16.47C166.197 16.206 166.521 15.846 166.749 15.39C166.989 14.934 167.109 14.424 167.109 13.86C167.109 13.32 167.025 12.822 166.857 12.366C166.701 11.91 166.443 11.544 166.083 11.268C165.723 10.992 165.237 10.854 164.625 10.854C164.061 10.854 163.569 11.016 163.149 11.34C162.741 11.664 162.453 12.126 162.285 12.726C162.237 12.918 162.201 13.128 162.177 13.356C162.165 13.572 162.159 13.8 162.159 14.04ZM175.869 18L175.833 16.992C175.533 17.4 175.119 17.712 174.591 17.928C174.075 18.132 173.553 18.234 173.025 18.234C172.569 18.234 172.113 18.15 171.657 17.982C171.213 17.814 170.841 17.538 170.541 17.154C170.253 16.77 170.109 16.26 170.109 15.624C170.109 14.724 170.427 14.004 171.063 13.464C171.699 12.924 172.605 12.654 173.781 12.654C174.045 12.654 174.315 12.666 174.591 12.69C174.879 12.702 175.137 12.72 175.365 12.744C175.593 12.756 175.743 12.768 175.815 12.78V12.474C175.815 11.85 175.623 11.406 175.239 11.142C174.867 10.866 174.357 10.728 173.709 10.728C173.085 10.728 172.581 10.818 172.197 10.998C171.825 11.166 171.513 11.34 171.261 11.52L170.505 10.422C170.805 10.182 171.219 9.948 171.747 9.72C172.275 9.492 172.989 9.378 173.889 9.378C174.957 9.378 175.803 9.642 176.427 10.17C177.051 10.686 177.363 11.424 177.363 12.384V17.262C177.363 17.346 177.363 17.448 177.363 17.568C177.363 17.688 177.369 17.832 177.381 18H175.869ZM175.815 14.994V14.04C175.755 14.016 175.617 13.998 175.401 13.986C175.185 13.962 174.939 13.944 174.663 13.932C174.399 13.908 174.141 13.896 173.889 13.896C173.289 13.896 172.827 13.986 172.503 14.166C172.191 14.334 171.975 14.55 171.855 14.814C171.747 15.066 171.693 15.318 171.693 15.57C171.693 16.014 171.849 16.356 172.161 16.596C172.473 16.836 172.905 16.956 173.457 16.956C173.877 16.956 174.261 16.866 174.609 16.686C174.969 16.494 175.257 16.248 175.473 15.948C175.701 15.648 175.815 15.33 175.815 14.994ZM179.937 20.898L180.693 19.71C180.969 19.902 181.305 20.064 181.701 20.196C182.109 20.34 182.601 20.412 183.177 20.412C183.981 20.412 184.581 20.19 184.977 19.746C185.373 19.302 185.571 18.72 185.571 18V16.974C185.463 17.07 185.301 17.208 185.085 17.388C184.869 17.556 184.587 17.712 184.239 17.856C183.903 18 183.483 18.072 182.979 18.072C182.163 18.072 181.467 17.892 180.891 17.532C180.327 17.172 179.895 16.68 179.595 16.056C179.307 15.42 179.163 14.706 179.163 13.914C179.163 13.05 179.361 12.282 179.757 11.61C180.153 10.926 180.705 10.392 181.413 10.008C182.121 9.624 182.943 9.432 183.879 9.432C184.551 9.432 185.181 9.492 185.769 9.612C186.369 9.732 186.849 9.864 187.209 10.008V18C187.209 19.2 186.855 20.136 186.147 20.808C185.439 21.48 184.455 21.816 183.195 21.816C182.343 21.816 181.665 21.72 181.161 21.528C180.657 21.336 180.249 21.126 179.937 20.898ZM185.589 14.58V11.106C185.481 11.07 185.295 11.022 185.031 10.962C184.779 10.89 184.395 10.854 183.879 10.854C183.267 10.854 182.733 10.986 182.277 11.25C181.821 11.502 181.461 11.856 181.197 12.312C180.945 12.768 180.819 13.296 180.819 13.896C180.819 14.4 180.897 14.862 181.053 15.282C181.221 15.702 181.485 16.038 181.845 16.29C182.205 16.542 182.667 16.668 183.231 16.668C183.771 16.668 184.215 16.566 184.563 16.362C184.911 16.158 185.169 15.9 185.337 15.588C185.505 15.264 185.589 14.928 185.589 14.58ZM196.135 15.804L197.053 16.776C196.933 16.92 196.717 17.112 196.405 17.352C196.093 17.58 195.685 17.79 195.181 17.982C194.689 18.162 194.089 18.252 193.381 18.252C192.517 18.252 191.755 18.066 191.095 17.694C190.435 17.31 189.919 16.782 189.547 16.11C189.187 15.426 189.007 14.64 189.007 13.752C189.007 12.936 189.181 12.198 189.529 11.538C189.889 10.878 190.381 10.356 191.005 9.972C191.641 9.576 192.367 9.378 193.183 9.378C194.155 9.378 194.941 9.612 195.541 10.08C196.141 10.548 196.579 11.154 196.855 11.898C197.131 12.642 197.269 13.44 197.269 14.292H190.663C190.675 14.784 190.807 15.228 191.059 15.624C191.311 16.008 191.641 16.314 192.049 16.542C192.469 16.758 192.919 16.866 193.399 16.866C194.107 16.866 194.689 16.746 195.145 16.506C195.613 16.266 195.943 16.032 196.135 15.804ZM190.663 13.086H195.595C195.547 12.438 195.319 11.886 194.911 11.43C194.503 10.974 193.927 10.746 193.183 10.746C192.667 10.746 192.223 10.86 191.851 11.088C191.479 11.316 191.191 11.61 190.987 11.97C190.795 12.318 190.687 12.69 190.663 13.086ZM198.621 16.974L199.611 15.894C199.911 16.194 200.271 16.434 200.691 16.614C201.111 16.794 201.597 16.884 202.149 16.884C202.689 16.884 203.139 16.8 203.499 16.632C203.859 16.452 204.039 16.176 204.039 15.804C204.039 15.54 203.967 15.33 203.823 15.174C203.679 15.018 203.433 14.88 203.085 14.76C202.737 14.628 202.257 14.49 201.645 14.346C201.213 14.238 200.793 14.094 200.385 13.914C199.977 13.722 199.641 13.464 199.377 13.14C199.113 12.804 198.981 12.372 198.981 11.844C198.981 11.304 199.137 10.848 199.449 10.476C199.773 10.104 200.187 9.828 200.691 9.648C201.195 9.456 201.723 9.36 202.275 9.36C202.983 9.36 203.595 9.456 204.111 9.648C204.627 9.828 205.071 10.086 205.443 10.422L204.561 11.538C204.309 11.31 203.991 11.118 203.607 10.962C203.235 10.806 202.797 10.728 202.293 10.728C201.777 10.728 201.363 10.812 201.051 10.98C200.739 11.148 200.583 11.424 200.583 11.808C200.583 12.168 200.793 12.438 201.213 12.618C201.633 12.786 202.173 12.948 202.833 13.104C203.361 13.224 203.835 13.386 204.255 13.59C204.687 13.782 205.029 14.046 205.281 14.382C205.545 14.718 205.677 15.156 205.677 15.696C205.677 16.248 205.509 16.716 205.173 17.1C204.849 17.472 204.423 17.76 203.895 17.964C203.367 18.156 202.797 18.252 202.185 18.252C200.601 18.252 199.413 17.826 198.621 16.974Z" fill="black"/>
<path fill-rule="evenodd" clip-rule="evenodd" d="M18.6946 7.93136C19.1467 8.45305 19.0904 9.2425 18.5687 9.69463L11.0687 16.1946C10.5731 16.6241 9.82984 16.5976 9.36612 16.1339L5.36612 12.1339C4.87796 11.6457 4.87796 10.8543 5.36612 10.3661C5.85427 9.87798 6.64573 9.87798 7.13388 10.3661L10.3109 13.5431L16.9313 7.80541C17.453 7.35327 18.2425 7.40966 18.6946 7.93136Z" fill="black"/>
</svg>
