<svg width="219" height="24" viewBox="0 0 219 24" fill="none" xmlns="http://www.w3.org/2000/svg">
<path d="M33.278 13.428V5.994H35.006V13.014C35.006 13.734 35.096 14.37 35.276 14.922C35.456 15.474 35.768 15.906 36.212 16.218C36.656 16.518 37.274 16.668 38.066 16.668C38.858 16.668 39.47 16.518 39.902 16.218C40.346 15.906 40.658 15.474 40.838 14.922C41.018 14.37 41.108 13.734 41.108 13.014V5.994H42.836V13.428C42.836 14.34 42.662 15.168 42.314 15.912C41.978 16.644 41.456 17.226 40.748 17.658C40.052 18.09 39.158 18.306 38.066 18.306C36.974 18.306 36.074 18.09 35.366 17.658C34.658 17.226 34.13 16.644 33.782 15.912C33.446 15.168 33.278 14.34 33.278 13.428ZM46.8293 21.6H45.2273V10.494C45.2273 10.386 45.2273 10.278 45.2273 10.17C45.2273 10.05 45.2213 9.87 45.2093 9.63H46.7573L46.8113 10.818C46.9313 10.662 47.1053 10.482 47.3333 10.278C47.5733 10.062 47.8853 9.87 48.2693 9.702C48.6533 9.534 49.1153 9.45 49.6553 9.45C50.5193 9.45 51.2273 9.654 51.7793 10.062C52.3433 10.47 52.7573 11.01 53.0213 11.682C53.2973 12.354 53.4353 13.08 53.4353 13.86C53.4353 14.616 53.3033 15.276 53.0393 15.84C52.7873 16.392 52.4513 16.848 52.0313 17.208C51.6113 17.556 51.1493 17.82 50.6453 18C50.1413 18.168 49.6433 18.252 49.1513 18.252C48.5873 18.252 48.1373 18.192 47.8013 18.072C47.4653 17.964 47.1413 17.844 46.8293 17.712V21.6ZM46.8293 14.04V16.182C47.0213 16.338 47.2973 16.488 47.6573 16.632C48.0173 16.776 48.4673 16.848 49.0073 16.848C49.5593 16.848 50.0393 16.722 50.4473 16.47C50.8673 16.206 51.1913 15.846 51.4193 15.39C51.6593 14.934 51.7793 14.424 51.7793 13.86C51.7793 13.32 51.6953 12.822 51.5273 12.366C51.3713 11.91 51.1133 11.544 50.7533 11.268C50.3933 10.992 49.9073 10.854 49.2953 10.854C48.7313 10.854 48.2393 11.016 47.8193 11.34C47.4113 11.664 47.1233 12.126 46.9553 12.726C46.9073 12.918 46.8713 13.128 46.8473 13.356C46.8353 13.572 46.8293 13.8 46.8293 14.04ZM59.2364 15.264V10.98H57.7244V9.63H59.2364V6.894H60.8564V9.63H63.3044V10.98H60.8564V15.102C60.8564 15.774 60.9584 16.236 61.1624 16.488C61.3784 16.74 61.6784 16.866 62.0624 16.866C62.3744 16.866 62.6324 16.818 62.8364 16.722C63.0524 16.626 63.2564 16.482 63.4484 16.29L64.1864 17.28C63.8384 17.616 63.4784 17.856 63.1064 18C62.7464 18.156 62.3144 18.234 61.8104 18.234C60.9344 18.234 60.2864 17.994 59.8664 17.514C59.4464 17.022 59.2364 16.272 59.2364 15.264ZM68.9117 18.252C68.0597 18.252 67.2977 18.054 66.6257 17.658C65.9537 17.25 65.4257 16.71 65.0417 16.038C64.6697 15.354 64.4837 14.61 64.4837 13.806C64.4837 12.99 64.6697 12.246 65.0417 11.574C65.4257 10.902 65.9537 10.368 66.6257 9.972C67.2977 9.564 68.0597 9.36 68.9117 9.36C69.7637 9.36 70.5197 9.564 71.1797 9.972C71.8517 10.368 72.3797 10.902 72.7637 11.574C73.1477 12.246 73.3397 12.99 73.3397 13.806C73.3397 14.61 73.1477 15.354 72.7637 16.038C72.3797 16.71 71.8517 17.25 71.1797 17.658C70.5197 18.054 69.7637 18.252 68.9117 18.252ZM68.9117 16.848C69.4997 16.848 69.9977 16.704 70.4057 16.416C70.8257 16.116 71.1437 15.732 71.3597 15.264C71.5877 14.796 71.7017 14.31 71.7017 13.806C71.7017 13.302 71.5877 12.816 71.3597 12.348C71.1437 11.88 70.8257 11.502 70.4057 11.214C69.9857 10.914 69.4877 10.764 68.9117 10.764C68.3357 10.764 67.8377 10.914 67.4177 11.214C66.9977 11.502 66.6737 11.88 66.4457 12.348C66.2297 12.804 66.1217 13.29 66.1217 13.806C66.1217 14.31 66.2357 14.796 66.4637 15.264C66.6917 15.72 67.0097 16.098 67.4177 16.398C67.8377 16.698 68.3357 16.848 68.9117 16.848ZM78.0004 17.064L78.9184 15.876C79.2544 16.14 79.6264 16.368 80.0344 16.56C80.4424 16.752 80.9404 16.848 81.5284 16.848C82.3684 16.848 82.9924 16.614 83.4004 16.146C83.8204 15.678 84.0304 15.114 84.0304 14.454C84.0304 14.142 83.9644 13.818 83.8324 13.482C83.7004 13.134 83.4604 12.84 83.1124 12.6C82.7644 12.348 82.2664 12.222 81.6184 12.222C81.1384 12.222 80.7484 12.27 80.4484 12.366C80.1604 12.462 79.8964 12.57 79.6564 12.69L78.8284 12.06L79.9084 6.66H85.4704V8.172H81.0424L80.5204 11.142C80.6404 11.07 80.8324 11.004 81.0964 10.944C81.3604 10.872 81.6784 10.836 82.0504 10.836C83.1184 10.836 83.9944 11.148 84.6784 11.772C85.3744 12.384 85.7224 13.26 85.7224 14.4C85.7224 15.096 85.5724 15.744 85.2724 16.344C84.9724 16.932 84.5044 17.406 83.8684 17.766C83.2444 18.126 82.4344 18.306 81.4384 18.306C80.6464 18.306 79.9684 18.186 79.4044 17.946C78.8524 17.694 78.3844 17.4 78.0004 17.064ZM93.095 21.6H91.493V10.494C91.493 10.386 91.493 10.278 91.493 10.17C91.493 10.05 91.487 9.87 91.475 9.63H93.023L93.077 10.818C93.197 10.662 93.371 10.482 93.599 10.278C93.839 10.062 94.151 9.87 94.535 9.702C94.919 9.534 95.381 9.45 95.921 9.45C96.785 9.45 97.493 9.654 98.045 10.062C98.609 10.47 99.023 11.01 99.287 11.682C99.563 12.354 99.701 13.08 99.701 13.86C99.701 14.616 99.569 15.276 99.305 15.84C99.053 16.392 98.717 16.848 98.297 17.208C97.877 17.556 97.415 17.82 96.911 18C96.407 18.168 95.909 18.252 95.417 18.252C94.853 18.252 94.403 18.192 94.067 18.072C93.731 17.964 93.407 17.844 93.095 17.712V21.6ZM93.095 14.04V16.182C93.287 16.338 93.563 16.488 93.923 16.632C94.283 16.776 94.733 16.848 95.273 16.848C95.825 16.848 96.305 16.722 96.713 16.47C97.133 16.206 97.457 15.846 97.685 15.39C97.925 14.934 98.045 14.424 98.045 13.86C98.045 13.32 97.961 12.822 97.793 12.366C97.637 11.91 97.379 11.544 97.019 11.268C96.659 10.992 96.173 10.854 95.561 10.854C94.997 10.854 94.505 11.016 94.085 11.34C93.677 11.664 93.389 12.126 93.221 12.726C93.173 12.918 93.137 13.128 93.113 13.356C93.101 13.572 93.095 13.8 93.095 14.04ZM106.804 18L106.768 16.992C106.468 17.4 106.054 17.712 105.526 17.928C105.01 18.132 104.488 18.234 103.96 18.234C103.504 18.234 103.048 18.15 102.592 17.982C102.148 17.814 101.776 17.538 101.476 17.154C101.188 16.77 101.044 16.26 101.044 15.624C101.044 14.724 101.362 14.004 101.998 13.464C102.634 12.924 103.54 12.654 104.716 12.654C104.98 12.654 105.25 12.666 105.526 12.69C105.814 12.702 106.072 12.72 106.3 12.744C106.528 12.756 106.678 12.768 106.75 12.78V12.474C106.75 11.85 106.558 11.406 106.174 11.142C105.802 10.866 105.292 10.728 104.644 10.728C104.02 10.728 103.516 10.818 103.132 10.998C102.76 11.166 102.448 11.34 102.196 11.52L101.44 10.422C101.74 10.182 102.154 9.948 102.682 9.72C103.21 9.492 103.924 9.378 104.824 9.378C105.892 9.378 106.738 9.642 107.362 10.17C107.986 10.686 108.298 11.424 108.298 12.384V17.262C108.298 17.346 108.298 17.448 108.298 17.568C108.298 17.688 108.304 17.832 108.316 18H106.804ZM106.75 14.994V14.04C106.69 14.016 106.552 13.998 106.336 13.986C106.12 13.962 105.874 13.944 105.598 13.932C105.334 13.908 105.076 13.896 104.824 13.896C104.224 13.896 103.762 13.986 103.438 14.166C103.126 14.334 102.91 14.55 102.79 14.814C102.682 15.066 102.628 15.318 102.628 15.57C102.628 16.014 102.784 16.356 103.096 16.596C103.408 16.836 103.84 16.956 104.392 16.956C104.812 16.956 105.196 16.866 105.544 16.686C105.904 16.494 106.192 16.248 106.408 15.948C106.636 15.648 106.75 15.33 106.75 14.994ZM110.872 20.898L111.628 19.71C111.904 19.902 112.24 20.064 112.636 20.196C113.044 20.34 113.536 20.412 114.112 20.412C114.916 20.412 115.516 20.19 115.912 19.746C116.308 19.302 116.506 18.72 116.506 18V16.974C116.398 17.07 116.236 17.208 116.02 17.388C115.804 17.556 115.522 17.712 115.174 17.856C114.838 18 114.418 18.072 113.914 18.072C113.098 18.072 112.402 17.892 111.826 17.532C111.262 17.172 110.83 16.68 110.53 16.056C110.242 15.42 110.098 14.706 110.098 13.914C110.098 13.05 110.296 12.282 110.692 11.61C111.088 10.926 111.64 10.392 112.348 10.008C113.056 9.624 113.878 9.432 114.814 9.432C115.486 9.432 116.116 9.492 116.704 9.612C117.304 9.732 117.784 9.864 118.144 10.008V18C118.144 19.2 117.79 20.136 117.082 20.808C116.374 21.48 115.39 21.816 114.13 21.816C113.278 21.816 112.6 21.72 112.096 21.528C111.592 21.336 111.184 21.126 110.872 20.898ZM116.524 14.58V11.106C116.416 11.07 116.23 11.022 115.966 10.962C115.714 10.89 115.33 10.854 114.814 10.854C114.202 10.854 113.668 10.986 113.212 11.25C112.756 11.502 112.396 11.856 112.132 12.312C111.88 12.768 111.754 13.296 111.754 13.896C111.754 14.4 111.832 14.862 111.988 15.282C112.156 15.702 112.42 16.038 112.78 16.29C113.14 16.542 113.602 16.668 114.166 16.668C114.706 16.668 115.15 16.566 115.498 16.362C115.846 16.158 116.104 15.9 116.272 15.588C116.44 15.264 116.524 14.928 116.524 14.58ZM127.07 15.804L127.988 16.776C127.868 16.92 127.652 17.112 127.34 17.352C127.028 17.58 126.62 17.79 126.116 17.982C125.624 18.162 125.024 18.252 124.316 18.252C123.452 18.252 122.69 18.066 122.03 17.694C121.37 17.31 120.854 16.782 120.482 16.11C120.122 15.426 119.942 14.64 119.942 13.752C119.942 12.936 120.116 12.198 120.464 11.538C120.824 10.878 121.316 10.356 121.94 9.972C122.576 9.576 123.302 9.378 124.118 9.378C125.09 9.378 125.876 9.612 126.476 10.08C127.076 10.548 127.514 11.154 127.79 11.898C128.066 12.642 128.204 13.44 128.204 14.292H121.598C121.61 14.784 121.742 15.228 121.994 15.624C122.246 16.008 122.576 16.314 122.984 16.542C123.404 16.758 123.854 16.866 124.334 16.866C125.042 16.866 125.624 16.746 126.08 16.506C126.548 16.266 126.878 16.032 127.07 15.804ZM121.598 13.086H126.53C126.482 12.438 126.254 11.886 125.846 11.43C125.438 10.974 124.862 10.746 124.118 10.746C123.602 10.746 123.158 10.86 122.786 11.088C122.414 11.316 122.126 11.61 121.922 11.97C121.73 12.318 121.622 12.69 121.598 13.086ZM139.973 15.804L140.891 16.776C140.771 16.92 140.555 17.112 140.243 17.352C139.931 17.58 139.523 17.79 139.019 17.982C138.527 18.162 137.927 18.252 137.219 18.252C136.355 18.252 135.593 18.066 134.933 17.694C134.273 17.31 133.757 16.782 133.385 16.11C133.025 15.426 132.845 14.64 132.845 13.752C132.845 12.936 133.019 12.198 133.367 11.538C133.727 10.878 134.219 10.356 134.843 9.972C135.479 9.576 136.205 9.378 137.021 9.378C137.993 9.378 138.779 9.612 139.379 10.08C139.979 10.548 140.417 11.154 140.693 11.898C140.969 12.642 141.107 13.44 141.107 14.292H134.501C134.513 14.784 134.645 15.228 134.897 15.624C135.149 16.008 135.479 16.314 135.887 16.542C136.307 16.758 136.757 16.866 137.237 16.866C137.945 16.866 138.527 16.746 138.983 16.506C139.451 16.266 139.781 16.032 139.973 15.804ZM134.501 13.086H139.433C139.385 12.438 139.157 11.886 138.749 11.43C138.341 10.974 137.765 10.746 137.021 10.746C136.505 10.746 136.061 10.86 135.689 11.088C135.317 11.316 135.029 11.61 134.825 11.97C134.633 12.318 134.525 12.69 134.501 13.086ZM148.183 18L148.147 16.992C147.847 17.4 147.433 17.712 146.905 17.928C146.389 18.132 145.867 18.234 145.339 18.234C144.883 18.234 144.427 18.15 143.971 17.982C143.527 17.814 143.155 17.538 142.855 17.154C142.567 16.77 142.423 16.26 142.423 15.624C142.423 14.724 142.741 14.004 143.377 13.464C144.013 12.924 144.919 12.654 146.095 12.654C146.359 12.654 146.629 12.666 146.905 12.69C147.193 12.702 147.451 12.72 147.679 12.744C147.907 12.756 148.057 12.768 148.129 12.78V12.474C148.129 11.85 147.937 11.406 147.553 11.142C147.181 10.866 146.671 10.728 146.023 10.728C145.399 10.728 144.895 10.818 144.511 10.998C144.139 11.166 143.827 11.34 143.575 11.52L142.819 10.422C143.119 10.182 143.533 9.948 144.061 9.72C144.589 9.492 145.303 9.378 146.203 9.378C147.271 9.378 148.117 9.642 148.741 10.17C149.365 10.686 149.677 11.424 149.677 12.384V17.262C149.677 17.346 149.677 17.448 149.677 17.568C149.677 17.688 149.683 17.832 149.695 18H148.183ZM148.129 14.994V14.04C148.069 14.016 147.931 13.998 147.715 13.986C147.499 13.962 147.253 13.944 146.977 13.932C146.713 13.908 146.455 13.896 146.203 13.896C145.603 13.896 145.141 13.986 144.817 14.166C144.505 14.334 144.289 14.55 144.169 14.814C144.061 15.066 144.007 15.318 144.007 15.57C144.007 16.014 144.163 16.356 144.475 16.596C144.787 16.836 145.219 16.956 145.771 16.956C146.191 16.956 146.575 16.866 146.923 16.686C147.283 16.494 147.571 16.248 147.787 15.948C148.015 15.648 148.129 15.33 148.129 14.994ZM158.173 15.804L159.163 16.848C158.791 17.268 158.329 17.61 157.777 17.874C157.225 18.126 156.595 18.252 155.887 18.252C154.987 18.252 154.207 18.06 153.547 17.676C152.899 17.292 152.395 16.77 152.035 16.11C151.675 15.438 151.495 14.67 151.495 13.806C151.495 12.99 151.681 12.246 152.053 11.574C152.425 10.902 152.941 10.368 153.601 9.972C154.273 9.564 155.035 9.36 155.887 9.36C156.595 9.36 157.219 9.486 157.759 9.738C158.299 9.99 158.761 10.332 159.145 10.764L158.083 11.79C157.831 11.478 157.525 11.232 157.165 11.052C156.805 10.872 156.379 10.782 155.887 10.782C155.311 10.782 154.813 10.926 154.393 11.214C153.985 11.49 153.673 11.856 153.457 12.312C153.241 12.768 153.133 13.266 153.133 13.806C153.133 14.322 153.241 14.814 153.457 15.282C153.685 15.738 154.003 16.11 154.411 16.398C154.819 16.686 155.311 16.83 155.887 16.83C156.379 16.83 156.817 16.74 157.201 16.56C157.597 16.368 157.921 16.116 158.173 15.804ZM160.75 18V5.994H162.352V10.872C162.496 10.668 162.682 10.458 162.91 10.242C163.15 10.014 163.45 9.822 163.81 9.666C164.182 9.51 164.626 9.432 165.142 9.432C166.234 9.432 167.044 9.756 167.572 10.404C168.1 11.04 168.364 11.898 168.364 12.978V18H166.744V13.104C166.744 12.324 166.57 11.754 166.222 11.394C165.886 11.022 165.418 10.836 164.818 10.836C164.206 10.836 163.72 10.998 163.36 11.322C163 11.634 162.742 12.042 162.586 12.546C162.442 13.05 162.37 13.572 162.37 14.112V18H160.75ZM174.154 20.898L174.91 19.71C175.186 19.902 175.522 20.064 175.918 20.196C176.326 20.34 176.818 20.412 177.394 20.412C178.198 20.412 178.798 20.19 179.194 19.746C179.59 19.302 179.788 18.72 179.788 18V16.974C179.68 17.07 179.518 17.208 179.302 17.388C179.086 17.556 178.804 17.712 178.456 17.856C178.12 18 177.7 18.072 177.196 18.072C176.38 18.072 175.684 17.892 175.108 17.532C174.544 17.172 174.112 16.68 173.812 16.056C173.524 15.42 173.38 14.706 173.38 13.914C173.38 13.05 173.578 12.282 173.974 11.61C174.37 10.926 174.922 10.392 175.63 10.008C176.338 9.624 177.16 9.432 178.096 9.432C178.768 9.432 179.398 9.492 179.986 9.612C180.586 9.732 181.066 9.864 181.426 10.008V18C181.426 19.2 181.072 20.136 180.364 20.808C179.656 21.48 178.672 21.816 177.412 21.816C176.56 21.816 175.882 21.72 175.378 21.528C174.874 21.336 174.466 21.126 174.154 20.898ZM179.806 14.58V11.106C179.698 11.07 179.512 11.022 179.248 10.962C178.996 10.89 178.612 10.854 178.096 10.854C177.484 10.854 176.95 10.986 176.494 11.25C176.038 11.502 175.678 11.856 175.414 12.312C175.162 12.768 175.036 13.296 175.036 13.896C175.036 14.4 175.114 14.862 175.27 15.282C175.438 15.702 175.702 16.038 176.062 16.29C176.422 16.542 176.884 16.668 177.448 16.668C177.988 16.668 178.432 16.566 178.78 16.362C179.128 16.158 179.386 15.9 179.554 15.588C179.722 15.264 179.806 14.928 179.806 14.58ZM185.257 18H183.637V10.44C183.637 10.356 183.637 10.26 183.637 10.152C183.637 10.044 183.631 9.87 183.619 9.63H185.167L185.221 10.98C185.353 10.788 185.533 10.578 185.761 10.35C186.001 10.122 186.301 9.924 186.661 9.756C187.021 9.588 187.453 9.504 187.957 9.504C188.137 9.504 188.299 9.516 188.443 9.54C188.599 9.564 188.743 9.6 188.875 9.648L188.515 11.16C188.299 11.076 188.023 11.034 187.687 11.034C187.231 11.034 186.817 11.154 186.445 11.394C186.085 11.622 185.797 11.928 185.581 12.312C185.365 12.696 185.257 13.122 185.257 13.59V18ZM193.769 18.252C192.917 18.252 192.155 18.054 191.483 17.658C190.811 17.25 190.283 16.71 189.899 16.038C189.527 15.354 189.341 14.61 189.341 13.806C189.341 12.99 189.527 12.246 189.899 11.574C190.283 10.902 190.811 10.368 191.483 9.972C192.155 9.564 192.917 9.36 193.769 9.36C194.621 9.36 195.377 9.564 196.037 9.972C196.709 10.368 197.237 10.902 197.621 11.574C198.005 12.246 198.197 12.99 198.197 13.806C198.197 14.61 198.005 15.354 197.621 16.038C197.237 16.71 196.709 17.25 196.037 17.658C195.377 18.054 194.621 18.252 193.769 18.252ZM193.769 16.848C194.357 16.848 194.855 16.704 195.263 16.416C195.683 16.116 196.001 15.732 196.217 15.264C196.445 14.796 196.559 14.31 196.559 13.806C196.559 13.302 196.445 12.816 196.217 12.348C196.001 11.88 195.683 11.502 195.263 11.214C194.843 10.914 194.345 10.764 193.769 10.764C193.193 10.764 192.695 10.914 192.275 11.214C191.855 11.502 191.531 11.88 191.303 12.348C191.087 12.804 190.979 13.29 190.979 13.806C190.979 14.31 191.093 14.796 191.321 15.264C191.549 15.72 191.867 16.098 192.275 16.398C192.695 16.698 193.193 16.848 193.769 16.848ZM199.984 14.652V9.63H201.604V14.544C201.604 15.324 201.766 15.894 202.09 16.254C202.414 16.614 202.882 16.794 203.494 16.794C204.118 16.794 204.604 16.632 204.952 16.308C205.3 15.984 205.546 15.576 205.69 15.084C205.846 14.58 205.924 14.058 205.924 13.518V9.63H207.544V17.154C207.544 17.202 207.544 17.316 207.544 17.496C207.544 17.664 207.55 17.832 207.562 18H206.014L205.96 16.758C205.828 16.95 205.642 17.16 205.402 17.388C205.162 17.604 204.856 17.79 204.484 17.946C204.124 18.102 203.686 18.18 203.17 18.18C202.078 18.18 201.274 17.862 200.758 17.226C200.242 16.59 199.984 15.732 199.984 14.652ZM211.396 21.6H209.794V10.494C209.794 10.386 209.794 10.278 209.794 10.17C209.794 10.05 209.788 9.87 209.776 9.63H211.324L211.378 10.818C211.498 10.662 211.672 10.482 211.9 10.278C212.14 10.062 212.452 9.87 212.836 9.702C213.22 9.534 213.682 9.45 214.222 9.45C215.086 9.45 215.794 9.654 216.346 10.062C216.91 10.47 217.324 11.01 217.588 11.682C217.864 12.354 218.002 13.08 218.002 13.86C218.002 14.616 217.87 15.276 217.606 15.84C217.354 16.392 217.018 16.848 216.598 17.208C216.178 17.556 215.716 17.82 215.212 18C214.708 18.168 214.21 18.252 213.718 18.252C213.154 18.252 212.704 18.192 212.368 18.072C212.032 17.964 211.708 17.844 211.396 17.712V21.6ZM211.396 14.04V16.182C211.588 16.338 211.864 16.488 212.224 16.632C212.584 16.776 213.034 16.848 213.574 16.848C214.126 16.848 214.606 16.722 215.014 16.47C215.434 16.206 215.758 15.846 215.986 15.39C216.226 14.934 216.346 14.424 216.346 13.86C216.346 13.32 216.262 12.822 216.094 12.366C215.938 11.91 215.68 11.544 215.32 11.268C214.96 10.992 214.474 10.854 213.862 10.854C213.298 10.854 212.806 11.016 212.386 11.34C211.978 11.664 211.69 12.126 211.522 12.726C211.474 12.918 211.438 13.128 211.414 13.356C211.402 13.572 211.396 13.8 211.396 14.04Z" fill="black"/>
<path fill-rule="evenodd" clip-rule="evenodd" d="M18.6946 7.93136C19.1467 8.45305 19.0904 9.2425 18.5687 9.69463L11.0687 16.1946C10.5731 16.6241 9.82984 16.5976 9.36612 16.1339L5.36612 12.1339C4.87796 11.6457 4.87796 10.8543 5.36612 10.3661C5.85427 9.87798 6.64573 9.87798 7.13388 10.3661L10.3109 13.5431L16.9313 7.80541C17.453 7.35327 18.2425 7.40966 18.6946 7.93136Z" fill="black"/>
</svg>
